%TF.GenerationSoftware,KiCad,Pcbnew,9.0.3*%
%TF.CreationDate,2025-09-09T09:23:43+09:00*%
%TF.ProjectId,Frekeys,4672656b-6579-4732-9e6b-696361645f70,rev?*%
%TF.SameCoordinates,Original*%
%TF.FileFunction,Paste,Bot*%
%TF.FilePolarity,Positive*%
%FSLAX46Y46*%
G04 Gerber Fmt 4.6, Leading zero omitted, Abs format (unit mm)*
G04 Created by KiCad (PCBNEW 9.0.3) date 2025-09-09 09:23:43*
%MOMM*%
%LPD*%
G01*
G04 APERTURE LIST*
G04 Aperture macros list*
%AMRoundRect*
0 Rectangle with rounded corners*
0 $1 Rounding radius*
0 $2 $3 $4 $5 $6 $7 $8 $9 X,Y pos of 4 corners*
0 Add a 4 corners polygon primitive as box body*
4,1,4,$2,$3,$4,$5,$6,$7,$8,$9,$2,$3,0*
0 Add four circle primitives for the rounded corners*
1,1,$1+$1,$2,$3*
1,1,$1+$1,$4,$5*
1,1,$1+$1,$6,$7*
1,1,$1+$1,$8,$9*
0 Add four rect primitives between the rounded corners*
20,1,$1+$1,$2,$3,$4,$5,0*
20,1,$1+$1,$4,$5,$6,$7,0*
20,1,$1+$1,$6,$7,$8,$9,0*
20,1,$1+$1,$8,$9,$2,$3,0*%
G04 Aperture macros list end*
%ADD10RoundRect,0.250000X-1.025000X-1.000000X1.025000X-1.000000X1.025000X1.000000X-1.025000X1.000000X0*%
%ADD11RoundRect,0.243750X0.456250X-0.243750X0.456250X0.243750X-0.456250X0.243750X-0.456250X-0.243750X0*%
%ADD12RoundRect,0.250000X0.450000X-0.262500X0.450000X0.262500X-0.450000X0.262500X-0.450000X-0.262500X0*%
%ADD13RoundRect,0.250000X-0.450000X0.262500X-0.450000X-0.262500X0.450000X-0.262500X0.450000X0.262500X0*%
%ADD14RoundRect,0.150000X-0.150000X0.825000X-0.150000X-0.825000X0.150000X-0.825000X0.150000X0.825000X0*%
%ADD15RoundRect,0.243750X-0.243750X-0.456250X0.243750X-0.456250X0.243750X0.456250X-0.243750X0.456250X0*%
G04 APERTURE END LIST*
D10*
%TO.C,SW65*%
X313400000Y-31500000D03*
X326327000Y-28960000D03*
%TD*%
%TO.C,SW21*%
X85860000Y-90500000D03*
X98787000Y-87960000D03*
%TD*%
%TO.C,SW8*%
X236860000Y-71000000D03*
X249787000Y-68460000D03*
%TD*%
%TO.C,SW58*%
X164440000Y-32000000D03*
X177367000Y-29460000D03*
%TD*%
%TO.C,SW12*%
X61440000Y-71000000D03*
X74367000Y-68460000D03*
%TD*%
%TO.C,SW18*%
X66780000Y-32000000D03*
X79707000Y-29460000D03*
%TD*%
%TO.C,SW22*%
X79195000Y-110000000D03*
X92122000Y-107460000D03*
%TD*%
%TO.C,SW64*%
X278415000Y-60960000D03*
X291342000Y-58420000D03*
%TD*%
%TO.C,SW39*%
X203780000Y-32000000D03*
X216707000Y-29460000D03*
%TD*%
%TO.C,SW40*%
X212860000Y-51500000D03*
X225787000Y-48960000D03*
%TD*%
%TO.C,SW32*%
X217415000Y-71062500D03*
X230342000Y-68522500D03*
%TD*%
%TO.C,SW9*%
X256445000Y-71040000D03*
X269372000Y-68500000D03*
%TD*%
%TO.C,SW19*%
X76360000Y-51500000D03*
X89287000Y-48960000D03*
%TD*%
%TO.C,SW49*%
X313320000Y-70500000D03*
X326247000Y-67960000D03*
%TD*%
%TO.C,SW13*%
X66360000Y-90500000D03*
X79287000Y-87960000D03*
%TD*%
%TO.C,SW11*%
X56780000Y-51500000D03*
X69707000Y-48960000D03*
%TD*%
%TO.C,SW54*%
X261670000Y-110000000D03*
X274597000Y-107460000D03*
%TD*%
%TO.C,SW29*%
X105360000Y-90500000D03*
X118287000Y-87960000D03*
%TD*%
%TO.C,SW59*%
X173940000Y-51500000D03*
X186867000Y-48960000D03*
%TD*%
%TO.C,SW53*%
X163940000Y-90500000D03*
X176867000Y-87960000D03*
%TD*%
%TO.C,SW17*%
X261440000Y-90500000D03*
X274367000Y-87960000D03*
%TD*%
%TO.C,SW25*%
X280940000Y-90500000D03*
X293867000Y-87960000D03*
%TD*%
%TO.C,SW63*%
X271835000Y-31960000D03*
X284762000Y-29420000D03*
%TD*%
%TO.C,SW34*%
X105860000Y-32000000D03*
X118787000Y-29460000D03*
%TD*%
%TO.C,SW2*%
X27725000Y-32000000D03*
X40652000Y-29460000D03*
%TD*%
%TO.C,SW52*%
X158940000Y-71000000D03*
X171867000Y-68460000D03*
%TD*%
%TO.C,SW7*%
X202780000Y-90500000D03*
X215707000Y-87960000D03*
%TD*%
%TO.C,SW42*%
X125280000Y-32000000D03*
X138207000Y-29460000D03*
%TD*%
%TO.C,SW24*%
X222360000Y-90500000D03*
X235287000Y-87960000D03*
%TD*%
%TO.C,SW43*%
X134860000Y-51500000D03*
X147787000Y-48960000D03*
%TD*%
%TO.C,SW61*%
X183280000Y-90500000D03*
X196207000Y-87960000D03*
%TD*%
%TO.C,SW6*%
X30360000Y-110000000D03*
X43287000Y-107460000D03*
%TD*%
%TO.C,SW20*%
X80860000Y-71000000D03*
X93787000Y-68460000D03*
%TD*%
%TO.C,SW44*%
X139360000Y-71000000D03*
X152287000Y-68460000D03*
%TD*%
%TO.C,SW3*%
X32440000Y-51500000D03*
X45367000Y-48960000D03*
%TD*%
%TO.C,SW50*%
X144860000Y-32000000D03*
X157787000Y-29460000D03*
%TD*%
%TO.C,SW23*%
X193440000Y-51500000D03*
X206367000Y-48960000D03*
%TD*%
%TO.C,SW55*%
X242780000Y-32000000D03*
X255707000Y-29460000D03*
%TD*%
%TO.C,SW47*%
X223280000Y-32000000D03*
X236207000Y-29460000D03*
%TD*%
%TO.C,SW38*%
X171000000Y-110000000D03*
X183927000Y-107460000D03*
%TD*%
%TO.C,SW36*%
X119860000Y-71000000D03*
X132787000Y-68460000D03*
%TD*%
%TO.C,SW30*%
X101440000Y-110000000D03*
X114367000Y-107460000D03*
%TD*%
%TO.C,SW26*%
X86360000Y-32000000D03*
X99287000Y-29460000D03*
%TD*%
%TO.C,SW10*%
X47280000Y-32000000D03*
X60207000Y-29460000D03*
%TD*%
%TO.C,SW60*%
X178440000Y-71000000D03*
X191367000Y-68460000D03*
%TD*%
%TO.C,SW35*%
X115280000Y-51500000D03*
X128207000Y-48960000D03*
%TD*%
%TO.C,SW27*%
X95780000Y-51500000D03*
X108707000Y-48960000D03*
%TD*%
%TO.C,SW51*%
X154440000Y-51500000D03*
X167367000Y-48960000D03*
%TD*%
%TO.C,SW16*%
X241940000Y-90500000D03*
X254867000Y-87960000D03*
%TD*%
%TO.C,SW14*%
X54780000Y-110000000D03*
X67707000Y-107460000D03*
%TD*%
%TO.C,SW41*%
X313400000Y-90500000D03*
X326327000Y-87960000D03*
%TD*%
%TO.C,SW33*%
X313400000Y-110000000D03*
X326327000Y-107460000D03*
%TD*%
%TO.C,SW56*%
X251780000Y-51500000D03*
X264707000Y-48960000D03*
%TD*%
%TO.C,SW48*%
X232280000Y-51500000D03*
X245207000Y-48960000D03*
%TD*%
%TO.C,SW5*%
X37335000Y-90460000D03*
X50262000Y-87920000D03*
%TD*%
%TO.C,SW57*%
X313400000Y-51000000D03*
X326327000Y-48460000D03*
%TD*%
%TO.C,SW31*%
X184170000Y-32040000D03*
X197097000Y-29500000D03*
%TD*%
%TO.C,SW45*%
X144440000Y-90500000D03*
X157367000Y-87960000D03*
%TD*%
%TO.C,SW15*%
X197860000Y-71040000D03*
X210787000Y-68500000D03*
%TD*%
%TO.C,SW28*%
X100360000Y-71000000D03*
X113287000Y-68460000D03*
%TD*%
%TO.C,SW46*%
X241750000Y-110000000D03*
X254677000Y-107460000D03*
%TD*%
%TO.C,SW4*%
X34860000Y-71000000D03*
X47787000Y-68460000D03*
%TD*%
%TO.C,SW62*%
X281255000Y-110040000D03*
X294182000Y-107500000D03*
%TD*%
%TO.C,SW37*%
X124780000Y-90500000D03*
X137707000Y-87960000D03*
%TD*%
D11*
%TO.C,D41*%
X140865000Y-34415000D03*
X140865000Y-32540000D03*
%TD*%
%TO.C,D25*%
X101945000Y-34477500D03*
X101945000Y-32602500D03*
%TD*%
D12*
%TO.C,R13*%
X339195000Y-65442500D03*
X339195000Y-63617500D03*
%TD*%
D11*
%TO.C,D22*%
X209025000Y-53947500D03*
X209025000Y-52072500D03*
%TD*%
%TO.C,D53*%
X277200000Y-112437500D03*
X277200000Y-110562500D03*
%TD*%
D13*
%TO.C,R5*%
X344245000Y-79030000D03*
X344245000Y-80855000D03*
%TD*%
D12*
%TO.C,R15*%
X341695000Y-37637500D03*
X341695000Y-35812500D03*
%TD*%
D11*
%TO.C,D5*%
X46160000Y-112450000D03*
X46160000Y-110575000D03*
%TD*%
D13*
%TO.C,R8*%
X338645000Y-79030000D03*
X338645000Y-80855000D03*
%TD*%
%TO.C,R18*%
X336695000Y-50812500D03*
X336695000Y-52637500D03*
%TD*%
D11*
%TO.C,D54*%
X258365000Y-34477500D03*
X258365000Y-32602500D03*
%TD*%
%TO.C,D47*%
X247810000Y-53915000D03*
X247810000Y-52040000D03*
%TD*%
%TO.C,D64*%
X328970000Y-34375000D03*
X328970000Y-32500000D03*
%TD*%
%TO.C,D43*%
X154930000Y-73397500D03*
X154930000Y-71522500D03*
%TD*%
%TO.C,D8*%
X272165000Y-73340000D03*
X272165000Y-71465000D03*
%TD*%
D12*
%TO.C,R14*%
X339195000Y-37637500D03*
X339195000Y-35812500D03*
%TD*%
D11*
%TO.C,D36*%
X140445000Y-93040000D03*
X140445000Y-91165000D03*
%TD*%
%TO.C,D17*%
X82445000Y-34477500D03*
X82445000Y-32602500D03*
%TD*%
%TO.C,D39*%
X228430000Y-53977500D03*
X228430000Y-52102500D03*
%TD*%
%TO.C,D21*%
X94945000Y-112477500D03*
X94945000Y-110602500D03*
%TD*%
%TO.C,D60*%
X198850000Y-92875000D03*
X198850000Y-91000000D03*
%TD*%
D13*
%TO.C,R19*%
X338695000Y-50812500D03*
X338695000Y-52637500D03*
%TD*%
D12*
%TO.C,R9*%
X341695000Y-65530000D03*
X341695000Y-63705000D03*
%TD*%
D11*
%TO.C,D11*%
X76945000Y-73477500D03*
X76945000Y-71602500D03*
%TD*%
%TO.C,D46*%
X238810000Y-34447500D03*
X238810000Y-32572500D03*
%TD*%
%TO.C,D23*%
X237945000Y-92977500D03*
X237945000Y-91102500D03*
%TD*%
%TO.C,D48*%
X328850000Y-72977500D03*
X328850000Y-71102500D03*
%TD*%
%TO.C,D33*%
X121485000Y-34415000D03*
X121485000Y-32540000D03*
%TD*%
%TO.C,D28*%
X120945000Y-92977500D03*
X120945000Y-91102500D03*
%TD*%
%TO.C,D50*%
X170025000Y-53875000D03*
X170025000Y-52000000D03*
%TD*%
%TO.C,D42*%
X150445000Y-53875000D03*
X150445000Y-52000000D03*
%TD*%
%TO.C,D35*%
X135445000Y-73477500D03*
X135445000Y-71602500D03*
%TD*%
D12*
%TO.C,R6*%
X336195000Y-65442500D03*
X336195000Y-63617500D03*
%TD*%
D11*
%TO.C,D13*%
X70445000Y-112477500D03*
X70445000Y-110602500D03*
%TD*%
%TO.C,D27*%
X115945000Y-73477500D03*
X115945000Y-71602500D03*
%TD*%
%TO.C,D2*%
X47945000Y-53977500D03*
X47945000Y-52102500D03*
%TD*%
%TO.C,D59*%
X193945000Y-73540000D03*
X193945000Y-71665000D03*
%TD*%
%TO.C,D45*%
X257280000Y-112375000D03*
X257280000Y-110500000D03*
%TD*%
%TO.C,D24*%
X296525000Y-92915000D03*
X296525000Y-91040000D03*
%TD*%
D13*
%TO.C,R12*%
X345195000Y-50900000D03*
X345195000Y-52725000D03*
%TD*%
D11*
%TO.C,D31*%
X232945000Y-73540000D03*
X232945000Y-71665000D03*
%TD*%
%TO.C,D51*%
X174510000Y-73335000D03*
X174510000Y-71460000D03*
%TD*%
%TO.C,D12*%
X81945000Y-92977500D03*
X81945000Y-91102500D03*
%TD*%
%TO.C,D18*%
X91945000Y-53977500D03*
X91945000Y-52102500D03*
%TD*%
%TO.C,D63*%
X295445000Y-66415000D03*
X295445000Y-64540000D03*
%TD*%
%TO.C,D58*%
X189445000Y-53977500D03*
X189445000Y-52102500D03*
%TD*%
%TO.C,D62*%
X287510000Y-34407500D03*
X287510000Y-32532500D03*
%TD*%
%TO.C,D56*%
X328930000Y-53415000D03*
X328930000Y-51540000D03*
%TD*%
%TO.C,D49*%
X160445000Y-34415000D03*
X160445000Y-32540000D03*
%TD*%
%TO.C,D32*%
X328930000Y-112477500D03*
X328930000Y-110602500D03*
%TD*%
D12*
%TO.C,R17*%
X336695000Y-37637500D03*
X336695000Y-35812500D03*
%TD*%
D13*
%TO.C,R10*%
X341595000Y-79030000D03*
X341595000Y-80855000D03*
%TD*%
D11*
%TO.C,D19*%
X96445000Y-73477500D03*
X96445000Y-71602500D03*
%TD*%
%TO.C,D44*%
X159945000Y-93040000D03*
X159945000Y-91165000D03*
%TD*%
%TO.C,D16*%
X277065000Y-92977500D03*
X277065000Y-91102500D03*
%TD*%
D13*
%TO.C,R7*%
X335695000Y-79030000D03*
X335695000Y-80855000D03*
%TD*%
D14*
%TO.C,U3*%
X335560000Y-42065000D03*
X336830000Y-42065000D03*
X338100000Y-42065000D03*
X339370000Y-42065000D03*
X340640000Y-42065000D03*
X341910000Y-42065000D03*
X343180000Y-42065000D03*
X344450000Y-42065000D03*
X344450000Y-47015000D03*
X343180000Y-47015000D03*
X341910000Y-47015000D03*
X340640000Y-47015000D03*
X339370000Y-47015000D03*
X338100000Y-47015000D03*
X336830000Y-47015000D03*
X335560000Y-47015000D03*
%TD*%
D11*
%TO.C,D14*%
X213485000Y-73567500D03*
X213485000Y-71692500D03*
%TD*%
%TO.C,D52*%
X179445000Y-92915000D03*
X179445000Y-91040000D03*
%TD*%
%TO.C,D3*%
X50580000Y-73487500D03*
X50580000Y-71612500D03*
%TD*%
%TO.C,D7*%
X252580000Y-73350000D03*
X252580000Y-71475000D03*
%TD*%
D13*
%TO.C,R20*%
X342195000Y-50725000D03*
X342195000Y-52550000D03*
%TD*%
D12*
%TO.C,R16*%
X344695000Y-37637500D03*
X344695000Y-35812500D03*
%TD*%
D11*
%TO.C,D29*%
X116970000Y-112375000D03*
X116970000Y-110500000D03*
%TD*%
%TO.C,D4*%
X52945000Y-92977500D03*
X52945000Y-91102500D03*
%TD*%
%TO.C,D1*%
X43445000Y-34477500D03*
X43445000Y-32602500D03*
%TD*%
%TO.C,D6*%
X218500000Y-92900000D03*
X218500000Y-91025000D03*
%TD*%
%TO.C,D20*%
X101445000Y-92977500D03*
X101445000Y-91102500D03*
%TD*%
D15*
%TO.C,D37*%
X188982500Y-107500000D03*
X190857500Y-107500000D03*
%TD*%
D11*
%TO.C,D55*%
X267310000Y-53977500D03*
X267310000Y-52102500D03*
%TD*%
%TO.C,D15*%
X257565000Y-92977500D03*
X257565000Y-91102500D03*
%TD*%
D14*
%TO.C,U4*%
X335560000Y-70065000D03*
X336830000Y-70065000D03*
X338100000Y-70065000D03*
X339370000Y-70065000D03*
X340640000Y-70065000D03*
X341910000Y-70065000D03*
X343180000Y-70065000D03*
X344450000Y-70065000D03*
X344450000Y-75015000D03*
X343180000Y-75015000D03*
X341910000Y-75015000D03*
X340640000Y-75015000D03*
X339370000Y-75015000D03*
X338100000Y-75015000D03*
X336830000Y-75015000D03*
X335560000Y-75015000D03*
%TD*%
D11*
%TO.C,D26*%
X111445000Y-53977500D03*
X111445000Y-52102500D03*
%TD*%
%TO.C,D57*%
X179945000Y-34477500D03*
X179945000Y-32602500D03*
%TD*%
%TO.C,D9*%
X62945000Y-34477500D03*
X62945000Y-32602500D03*
%TD*%
%TO.C,D10*%
X72445000Y-53977500D03*
X72445000Y-52102500D03*
%TD*%
%TO.C,D61*%
X296840000Y-112517500D03*
X296840000Y-110642500D03*
%TD*%
%TO.C,D38*%
X219350000Y-34385000D03*
X219350000Y-32510000D03*
%TD*%
%TO.C,D40*%
X328970000Y-92977500D03*
X328970000Y-91102500D03*
%TD*%
%TO.C,D30*%
X199700000Y-34425000D03*
X199700000Y-32550000D03*
%TD*%
%TO.C,D34*%
X130905000Y-53937500D03*
X130905000Y-52062500D03*
%TD*%
D12*
%TO.C,R11*%
X344645000Y-65530000D03*
X344645000Y-63705000D03*
%TD*%
M02*
