%TF.GenerationSoftware,KiCad,Pcbnew,9.0.3*%
%TF.CreationDate,2025-09-09T09:23:44+09:00*%
%TF.ProjectId,Frekeys,4672656b-6579-4732-9e6b-696361645f70,rev?*%
%TF.SameCoordinates,Original*%
%TF.FileFunction,Soldermask,Top*%
%TF.FilePolarity,Negative*%
%FSLAX46Y46*%
G04 Gerber Fmt 4.6, Leading zero omitted, Abs format (unit mm)*
G04 Created by KiCad (PCBNEW 9.0.3) date 2025-09-09 09:23:44*
%MOMM*%
%LPD*%
G01*
G04 APERTURE LIST*
G04 Aperture macros list*
%AMRoundRect*
0 Rectangle with rounded corners*
0 $1 Rounding radius*
0 $2 $3 $4 $5 $6 $7 $8 $9 X,Y pos of 4 corners*
0 Add a 4 corners polygon primitive as box body*
4,1,4,$2,$3,$4,$5,$6,$7,$8,$9,$2,$3,0*
0 Add four circle primitives for the rounded corners*
1,1,$1+$1,$2,$3*
1,1,$1+$1,$4,$5*
1,1,$1+$1,$6,$7*
1,1,$1+$1,$8,$9*
0 Add four rect primitives between the rounded corners*
20,1,$1+$1,$2,$3,$4,$5,0*
20,1,$1+$1,$4,$5,$6,$7,0*
20,1,$1+$1,$6,$7,$8,$9,0*
20,1,$1+$1,$8,$9,$2,$3,0*%
G04 Aperture macros list end*
%ADD10O,2.200000X1.200000*%
%ADD11O,1.200000X2.200000*%
%ADD12C,1.200000*%
%ADD13C,1.750000*%
%ADD14C,3.050000*%
%ADD15C,4.000000*%
%ADD16R,1.500000X1.500000*%
%ADD17C,1.500000*%
%ADD18RoundRect,0.250000X0.262500X0.450000X-0.262500X0.450000X-0.262500X-0.450000X0.262500X-0.450000X0*%
%ADD19C,3.048000*%
%ADD20C,3.987800*%
%ADD21RoundRect,0.250000X-0.550000X-0.550000X0.550000X-0.550000X0.550000X0.550000X-0.550000X0.550000X0*%
%ADD22C,1.600000*%
%ADD23O,4.100000X3.000000*%
%ADD24RoundRect,0.250000X-0.262500X-0.450000X0.262500X-0.450000X0.262500X0.450000X-0.262500X0.450000X0*%
%ADD25RoundRect,0.250000X0.250000X0.475000X-0.250000X0.475000X-0.250000X-0.475000X0.250000X-0.475000X0*%
%ADD26R,2.000000X1.200000*%
%ADD27O,2.000000X1.200000*%
G04 APERTURE END LIST*
D10*
%TO.C,J1*%
X413000000Y-102000000D03*
D11*
X418000000Y-107000000D03*
D10*
X413000000Y-112000000D03*
D12*
X420500000Y-102000000D03*
X418000000Y-102000000D03*
X413000000Y-107000000D03*
X420500000Y-112000000D03*
X418000000Y-112000000D03*
%TD*%
D13*
%TO.C,SW65*%
X315405000Y-34040000D03*
D14*
X316675000Y-31500000D03*
D15*
X320485000Y-34040000D03*
D14*
X323025000Y-28960000D03*
D13*
X325565000Y-34040000D03*
%TD*%
%TO.C,SW21*%
X87865000Y-93040000D03*
D14*
X89135000Y-90500000D03*
D15*
X92945000Y-93040000D03*
D14*
X95485000Y-87960000D03*
D13*
X98025000Y-93040000D03*
%TD*%
%TO.C,SW8*%
X238865000Y-73540000D03*
D14*
X240135000Y-71000000D03*
D15*
X243945000Y-73540000D03*
D14*
X246485000Y-68460000D03*
D13*
X249025000Y-73540000D03*
%TD*%
%TO.C,SW58*%
X166445000Y-34540000D03*
D14*
X167715000Y-32000000D03*
D15*
X171525000Y-34540000D03*
D14*
X174065000Y-29460000D03*
D13*
X176605000Y-34540000D03*
%TD*%
%TO.C,SW12*%
X63445000Y-73540000D03*
D14*
X64715000Y-71000000D03*
D15*
X68525000Y-73540000D03*
D14*
X71065000Y-68460000D03*
D13*
X73605000Y-73540000D03*
%TD*%
%TO.C,SW18*%
X68785000Y-34540000D03*
D14*
X70055000Y-32000000D03*
D15*
X73865000Y-34540000D03*
D14*
X76405000Y-29460000D03*
D13*
X78945000Y-34540000D03*
%TD*%
D15*
%TO.C,U1*%
X385380000Y-91405420D03*
X419480000Y-91405420D03*
X385380000Y-30205420D03*
X419480000Y-30205420D03*
D16*
X392270000Y-92905420D03*
D17*
X394810000Y-92905420D03*
X397350000Y-92905420D03*
X399890000Y-92905420D03*
X402430000Y-92905420D03*
X404970000Y-92905420D03*
X407510000Y-92905420D03*
X410050000Y-92905420D03*
X412590000Y-92905420D03*
X397350000Y-29385420D03*
X399890000Y-29385420D03*
X402430000Y-29385420D03*
X404970000Y-29385420D03*
X407510000Y-29385420D03*
%TD*%
D13*
%TO.C,SW22*%
X81200000Y-112540000D03*
D14*
X82470000Y-110000000D03*
D15*
X86280000Y-112540000D03*
D14*
X88820000Y-107460000D03*
D13*
X91360000Y-112540000D03*
%TD*%
%TO.C,SW64*%
X280420000Y-63500000D03*
D14*
X281690000Y-60960000D03*
D15*
X285500000Y-63500000D03*
D14*
X288040000Y-58420000D03*
D13*
X290580000Y-63500000D03*
%TD*%
%TO.C,SW39*%
X205785000Y-34540000D03*
D14*
X207055000Y-32000000D03*
D15*
X210865000Y-34540000D03*
D14*
X213405000Y-29460000D03*
D13*
X215945000Y-34540000D03*
%TD*%
%TO.C,SW40*%
X214865000Y-54040000D03*
D14*
X216135000Y-51500000D03*
D15*
X219945000Y-54040000D03*
D14*
X222485000Y-48960000D03*
D13*
X225025000Y-54040000D03*
%TD*%
%TO.C,SW32*%
X219420000Y-73602500D03*
D14*
X220690000Y-71062500D03*
D15*
X224500000Y-73602500D03*
D14*
X227040000Y-68522500D03*
D13*
X229580000Y-73602500D03*
%TD*%
%TO.C,SW9*%
X258450000Y-73580000D03*
D14*
X259720000Y-71040000D03*
D15*
X263530000Y-73580000D03*
D14*
X266070000Y-68500000D03*
D13*
X268610000Y-73580000D03*
%TD*%
%TO.C,SW19*%
X78365000Y-54040000D03*
D14*
X79635000Y-51500000D03*
D15*
X83445000Y-54040000D03*
D14*
X85985000Y-48960000D03*
D13*
X88525000Y-54040000D03*
%TD*%
%TO.C,SW49*%
X315325000Y-73040000D03*
D14*
X316595000Y-70500000D03*
D15*
X320405000Y-73040000D03*
D14*
X322945000Y-67960000D03*
D13*
X325485000Y-73040000D03*
%TD*%
%TO.C,SW13*%
X68365000Y-93040000D03*
D14*
X69635000Y-90500000D03*
D15*
X73445000Y-93040000D03*
D14*
X75985000Y-87960000D03*
D13*
X78525000Y-93040000D03*
%TD*%
%TO.C,SW11*%
X58785000Y-54040000D03*
D14*
X60055000Y-51500000D03*
D15*
X63865000Y-54040000D03*
D14*
X66405000Y-48960000D03*
D13*
X68945000Y-54040000D03*
%TD*%
%TO.C,SW54*%
X263675000Y-112540000D03*
D14*
X264945000Y-110000000D03*
D15*
X268755000Y-112540000D03*
D14*
X271295000Y-107460000D03*
D13*
X273835000Y-112540000D03*
%TD*%
%TO.C,SW29*%
X107365000Y-93040000D03*
D14*
X108635000Y-90500000D03*
D15*
X112445000Y-93040000D03*
D14*
X114985000Y-87960000D03*
D13*
X117525000Y-93040000D03*
%TD*%
%TO.C,SW59*%
X175945000Y-54040000D03*
D14*
X177215000Y-51500000D03*
D15*
X181025000Y-54040000D03*
D14*
X183565000Y-48960000D03*
D13*
X186105000Y-54040000D03*
%TD*%
%TO.C,SW53*%
X165945000Y-93040000D03*
D14*
X167215000Y-90500000D03*
D15*
X171025000Y-93040000D03*
D14*
X173565000Y-87960000D03*
D13*
X176105000Y-93040000D03*
%TD*%
D18*
%TO.C,R1*%
X393092500Y-98947920D03*
X391267500Y-98947920D03*
%TD*%
D13*
%TO.C,SW17*%
X263445000Y-93040000D03*
D14*
X264715000Y-90500000D03*
D15*
X268525000Y-93040000D03*
D14*
X271065000Y-87960000D03*
D13*
X273605000Y-93040000D03*
%TD*%
%TO.C,SW25*%
X282945000Y-93040000D03*
D14*
X284215000Y-90500000D03*
D15*
X288025000Y-93040000D03*
D14*
X290565000Y-87960000D03*
D13*
X293105000Y-93040000D03*
%TD*%
%TO.C,SW63*%
X273840000Y-34500000D03*
D14*
X275110000Y-31960000D03*
D15*
X278920000Y-34500000D03*
D14*
X281460000Y-29420000D03*
D13*
X284000000Y-34500000D03*
%TD*%
%TO.C,SW34*%
X107865000Y-34540000D03*
D14*
X109135000Y-32000000D03*
D15*
X112945000Y-34540000D03*
D14*
X115485000Y-29460000D03*
D13*
X118025000Y-34540000D03*
%TD*%
%TO.C,SW2*%
X29730000Y-34540000D03*
D14*
X31000000Y-32000000D03*
D15*
X34810000Y-34540000D03*
D14*
X37350000Y-29460000D03*
D13*
X39890000Y-34540000D03*
%TD*%
%TO.C,SW52*%
X160945000Y-73540000D03*
D14*
X162215000Y-71000000D03*
D15*
X166025000Y-73540000D03*
D14*
X168565000Y-68460000D03*
D13*
X171105000Y-73540000D03*
%TD*%
%TO.C,SW7*%
X204785000Y-93040000D03*
D14*
X206055000Y-90500000D03*
D15*
X209865000Y-93040000D03*
D14*
X212405000Y-87960000D03*
D13*
X214945000Y-93040000D03*
%TD*%
%TO.C,SW42*%
X127285000Y-34540000D03*
D14*
X128555000Y-32000000D03*
D15*
X132365000Y-34540000D03*
D14*
X134905000Y-29460000D03*
D13*
X137445000Y-34540000D03*
%TD*%
D18*
%TO.C,R4*%
X397005000Y-98947920D03*
X395180000Y-98947920D03*
%TD*%
D13*
%TO.C,SW24*%
X224365000Y-93040000D03*
D14*
X225635000Y-90500000D03*
D15*
X229445000Y-93040000D03*
D14*
X231985000Y-87960000D03*
D13*
X234525000Y-93040000D03*
%TD*%
%TO.C,SW43*%
X136865000Y-54040000D03*
D14*
X138135000Y-51500000D03*
D15*
X141945000Y-54040000D03*
D14*
X144485000Y-48960000D03*
D13*
X147025000Y-54040000D03*
%TD*%
%TO.C,SW61*%
X185285000Y-93040000D03*
D14*
X186555000Y-90500000D03*
D15*
X190365000Y-93040000D03*
D14*
X192905000Y-87960000D03*
D13*
X195445000Y-93040000D03*
%TD*%
%TO.C,SW6*%
X32365000Y-112540000D03*
D14*
X33635000Y-110000000D03*
D15*
X37445000Y-112540000D03*
D14*
X39985000Y-107460000D03*
D13*
X42525000Y-112540000D03*
%TD*%
%TO.C,SW20*%
X82865000Y-73540000D03*
D14*
X84135000Y-71000000D03*
D15*
X87945000Y-73540000D03*
D14*
X90485000Y-68460000D03*
D13*
X93025000Y-73540000D03*
%TD*%
D19*
%TO.C,REF\u002A\u002A*%
X128665000Y-104700050D03*
D20*
X128665000Y-119910050D03*
D19*
X228665000Y-104700050D03*
D20*
X228665000Y-119910050D03*
%TD*%
D13*
%TO.C,SW44*%
X141365000Y-73540000D03*
D14*
X142635000Y-71000000D03*
D15*
X146445000Y-73540000D03*
D14*
X148985000Y-68460000D03*
D13*
X151525000Y-73540000D03*
%TD*%
%TO.C,SW3*%
X34445000Y-54040000D03*
D14*
X35715000Y-51500000D03*
D15*
X39525000Y-54040000D03*
D14*
X42065000Y-48960000D03*
D13*
X44605000Y-54040000D03*
%TD*%
%TO.C,SW50*%
X146865000Y-34540000D03*
D14*
X148135000Y-32000000D03*
D15*
X151945000Y-34540000D03*
D14*
X154485000Y-29460000D03*
D13*
X157025000Y-34540000D03*
%TD*%
D21*
%TO.C,SW1*%
X386680000Y-105447920D03*
D22*
X386680000Y-110447920D03*
X386680000Y-107947920D03*
X401180000Y-105447920D03*
X401180000Y-110447920D03*
D23*
X394180000Y-102347920D03*
X394180000Y-113547920D03*
%TD*%
D19*
%TO.C,REF\u002A\u002A*%
X32482000Y-85975000D03*
D20*
X32482000Y-101185000D03*
D19*
X56358000Y-85975000D03*
D20*
X56358000Y-101185000D03*
%TD*%
D13*
%TO.C,SW23*%
X195445000Y-54040000D03*
D14*
X196715000Y-51500000D03*
D15*
X200525000Y-54040000D03*
D14*
X203065000Y-48960000D03*
D13*
X205605000Y-54040000D03*
%TD*%
%TO.C,SW55*%
X244785000Y-34540000D03*
D14*
X246055000Y-32000000D03*
D15*
X249865000Y-34540000D03*
D14*
X252405000Y-29460000D03*
D13*
X254945000Y-34540000D03*
%TD*%
%TO.C,SW47*%
X225285000Y-34540000D03*
D14*
X226555000Y-32000000D03*
D15*
X230365000Y-34540000D03*
D14*
X232905000Y-29460000D03*
D13*
X235445000Y-34540000D03*
%TD*%
D19*
%TO.C,REF\u002A\u002A*%
X277117550Y-75438000D03*
D20*
X292327550Y-75438000D03*
D19*
X277117550Y-51562000D03*
D20*
X292327550Y-51562000D03*
%TD*%
D24*
%TO.C,R2*%
X386942500Y-98947920D03*
X388767500Y-98947920D03*
%TD*%
D13*
%TO.C,SW38*%
X173005000Y-112540000D03*
D14*
X174275000Y-110000000D03*
D15*
X178085000Y-112540000D03*
D14*
X180625000Y-107460000D03*
D13*
X183165000Y-112540000D03*
%TD*%
%TO.C,SW36*%
X121865000Y-73540000D03*
D14*
X123135000Y-71000000D03*
D15*
X126945000Y-73540000D03*
D14*
X129485000Y-68460000D03*
D13*
X132025000Y-73540000D03*
%TD*%
%TO.C,SW30*%
X103445000Y-112540000D03*
D14*
X104715000Y-110000000D03*
D15*
X108525000Y-112540000D03*
D14*
X111065000Y-107460000D03*
D13*
X113605000Y-112540000D03*
%TD*%
%TO.C,SW26*%
X88365000Y-34540000D03*
D14*
X89635000Y-32000000D03*
D15*
X93445000Y-34540000D03*
D14*
X95985000Y-29460000D03*
D13*
X98525000Y-34540000D03*
%TD*%
%TO.C,SW10*%
X49285000Y-34540000D03*
D14*
X50555000Y-32000000D03*
D15*
X54365000Y-34540000D03*
D14*
X56905000Y-29460000D03*
D13*
X59445000Y-34540000D03*
%TD*%
%TO.C,SW60*%
X180445000Y-73540000D03*
D14*
X181715000Y-71000000D03*
D15*
X185525000Y-73540000D03*
D14*
X188065000Y-68460000D03*
D13*
X190605000Y-73540000D03*
%TD*%
%TO.C,SW35*%
X117285000Y-54040000D03*
D14*
X118555000Y-51500000D03*
D15*
X122365000Y-54040000D03*
D14*
X124905000Y-48960000D03*
D13*
X127445000Y-54040000D03*
%TD*%
%TO.C,SW27*%
X97785000Y-54040000D03*
D14*
X99055000Y-51500000D03*
D15*
X102865000Y-54040000D03*
D14*
X105405000Y-48960000D03*
D13*
X107945000Y-54040000D03*
%TD*%
D19*
%TO.C,REF\u002A\u002A*%
X266439500Y-26660050D03*
D20*
X266439500Y-41870050D03*
D19*
X290315500Y-26660050D03*
D20*
X290315500Y-41870050D03*
%TD*%
D13*
%TO.C,SW51*%
X156445000Y-54040000D03*
D14*
X157715000Y-51500000D03*
D15*
X161525000Y-54040000D03*
D14*
X164065000Y-48960000D03*
D13*
X166605000Y-54040000D03*
%TD*%
%TO.C,SW16*%
X243945000Y-93040000D03*
D14*
X245215000Y-90500000D03*
D15*
X249025000Y-93040000D03*
D14*
X251565000Y-87960000D03*
D13*
X254105000Y-93040000D03*
%TD*%
%TO.C,SW14*%
X56785000Y-112540000D03*
D14*
X58055000Y-110000000D03*
D15*
X61865000Y-112540000D03*
D14*
X64405000Y-107460000D03*
D13*
X66945000Y-112540000D03*
%TD*%
%TO.C,SW41*%
X315405000Y-93040000D03*
D14*
X316675000Y-90500000D03*
D15*
X320485000Y-93040000D03*
D14*
X323025000Y-87960000D03*
D13*
X325565000Y-93040000D03*
%TD*%
%TO.C,SW33*%
X315405000Y-112540000D03*
D14*
X316675000Y-110000000D03*
D15*
X320485000Y-112540000D03*
D14*
X323025000Y-107460000D03*
D13*
X325565000Y-112540000D03*
%TD*%
%TO.C,SW56*%
X253785000Y-54040000D03*
D14*
X255055000Y-51500000D03*
D15*
X258865000Y-54040000D03*
D14*
X261405000Y-48960000D03*
D13*
X263945000Y-54040000D03*
%TD*%
%TO.C,SW48*%
X234285000Y-54040000D03*
D14*
X235555000Y-51500000D03*
D15*
X239365000Y-54040000D03*
D14*
X241905000Y-48960000D03*
D13*
X244445000Y-54040000D03*
%TD*%
%TO.C,SW5*%
X39340000Y-93000000D03*
D14*
X40610000Y-90460000D03*
D15*
X44420000Y-93000000D03*
D14*
X46960000Y-87920000D03*
D13*
X49500000Y-93000000D03*
%TD*%
%TO.C,SW57*%
X315405000Y-53540000D03*
D14*
X316675000Y-51000000D03*
D15*
X320485000Y-53540000D03*
D14*
X323025000Y-48460000D03*
D13*
X325565000Y-53540000D03*
%TD*%
%TO.C,SW31*%
X186175000Y-34580000D03*
D14*
X187445000Y-32040000D03*
D15*
X191255000Y-34580000D03*
D14*
X193795000Y-29500000D03*
D13*
X196335000Y-34580000D03*
%TD*%
%TO.C,SW45*%
X146445000Y-93040000D03*
D14*
X147715000Y-90500000D03*
D15*
X151525000Y-93040000D03*
D14*
X154065000Y-87960000D03*
D13*
X156605000Y-93040000D03*
%TD*%
%TO.C,SW15*%
X199865000Y-73580000D03*
D14*
X201135000Y-71040000D03*
D15*
X204945000Y-73580000D03*
D14*
X207485000Y-68500000D03*
D13*
X210025000Y-73580000D03*
%TD*%
%TO.C,SW28*%
X102365000Y-73540000D03*
D14*
X103635000Y-71000000D03*
D15*
X107445000Y-73540000D03*
D14*
X109985000Y-68460000D03*
D13*
X112525000Y-73540000D03*
%TD*%
D25*
%TO.C,C2*%
X408950000Y-102000000D03*
X407050000Y-102000000D03*
%TD*%
D13*
%TO.C,SW46*%
X243755000Y-112540000D03*
D14*
X245025000Y-110000000D03*
D15*
X248835000Y-112540000D03*
D14*
X251375000Y-107460000D03*
D13*
X253915000Y-112540000D03*
%TD*%
D26*
%TO.C,U2*%
X375360000Y-87340000D03*
D27*
X375360000Y-84800000D03*
X375360000Y-82260000D03*
X375360000Y-79720000D03*
X375360000Y-77180000D03*
X375360000Y-74640000D03*
X375360000Y-72100000D03*
X375360000Y-69560000D03*
X375360000Y-67020000D03*
X375360000Y-64480000D03*
X375360000Y-61940000D03*
X375360000Y-59400000D03*
X375360000Y-56860000D03*
X375360000Y-54320000D03*
X375360000Y-51780000D03*
X375360000Y-49240000D03*
X375360000Y-46700000D03*
X375360000Y-44160000D03*
X375360000Y-41620000D03*
X375363680Y-39082720D03*
X375363680Y-36542720D03*
X375363680Y-34002720D03*
X352500000Y-34000000D03*
X352500000Y-36540000D03*
X352500000Y-39080000D03*
X352500000Y-41620000D03*
X352500000Y-44160000D03*
X352500000Y-46700000D03*
X352500000Y-49240000D03*
X352500000Y-51780000D03*
X352500000Y-54320000D03*
X352500000Y-56860000D03*
X352500000Y-59400000D03*
X352500000Y-61940000D03*
X352500000Y-64480000D03*
X352500000Y-67020000D03*
X352500000Y-69560000D03*
X352500000Y-72100000D03*
X352500000Y-74640000D03*
X352500000Y-77180000D03*
X352500000Y-79720000D03*
X352500000Y-82260000D03*
X352500000Y-84800000D03*
X352500000Y-87340000D03*
%TD*%
D24*
%TO.C,R3*%
X382767500Y-98947920D03*
X384592500Y-98947920D03*
%TD*%
D25*
%TO.C,C1*%
X408950000Y-112000000D03*
X407050000Y-112000000D03*
%TD*%
D13*
%TO.C,SW4*%
X36865000Y-73540000D03*
D14*
X38135000Y-71000000D03*
D15*
X41945000Y-73540000D03*
D14*
X44485000Y-68460000D03*
D13*
X47025000Y-73540000D03*
%TD*%
%TO.C,SW62*%
X283260000Y-112580000D03*
D14*
X284530000Y-110040000D03*
D15*
X288340000Y-112580000D03*
D14*
X290880000Y-107500000D03*
D13*
X293420000Y-112580000D03*
%TD*%
%TO.C,SW37*%
X126785000Y-93040000D03*
D14*
X128055000Y-90500000D03*
D15*
X131865000Y-93040000D03*
D14*
X134405000Y-87960000D03*
D13*
X136945000Y-93040000D03*
%TD*%
M02*
