%TF.GenerationSoftware,KiCad,Pcbnew,9.0.3*%
%TF.CreationDate,2025-09-09T09:23:44+09:00*%
%TF.ProjectId,Frekeys,4672656b-6579-4732-9e6b-696361645f70,rev?*%
%TF.SameCoordinates,Original*%
%TF.FileFunction,Legend,Bot*%
%TF.FilePolarity,Positive*%
%FSLAX46Y46*%
G04 Gerber Fmt 4.6, Leading zero omitted, Abs format (unit mm)*
G04 Created by KiCad (PCBNEW 9.0.3) date 2025-09-09 09:23:44*
%MOMM*%
%LPD*%
G01*
G04 APERTURE LIST*
%ADD10C,0.150000*%
%ADD11C,0.120000*%
G04 APERTURE END LIST*
D10*
X142969819Y-32263214D02*
X141969819Y-32263214D01*
X141969819Y-32263214D02*
X141969819Y-32501309D01*
X141969819Y-32501309D02*
X142017438Y-32644166D01*
X142017438Y-32644166D02*
X142112676Y-32739404D01*
X142112676Y-32739404D02*
X142207914Y-32787023D01*
X142207914Y-32787023D02*
X142398390Y-32834642D01*
X142398390Y-32834642D02*
X142541247Y-32834642D01*
X142541247Y-32834642D02*
X142731723Y-32787023D01*
X142731723Y-32787023D02*
X142826961Y-32739404D01*
X142826961Y-32739404D02*
X142922200Y-32644166D01*
X142922200Y-32644166D02*
X142969819Y-32501309D01*
X142969819Y-32501309D02*
X142969819Y-32263214D01*
X142303152Y-33691785D02*
X142969819Y-33691785D01*
X141922200Y-33453690D02*
X142636485Y-33215595D01*
X142636485Y-33215595D02*
X142636485Y-33834642D01*
X142969819Y-34739404D02*
X142969819Y-34167976D01*
X142969819Y-34453690D02*
X141969819Y-34453690D01*
X141969819Y-34453690D02*
X142112676Y-34358452D01*
X142112676Y-34358452D02*
X142207914Y-34263214D01*
X142207914Y-34263214D02*
X142255533Y-34167976D01*
X104049819Y-32325714D02*
X103049819Y-32325714D01*
X103049819Y-32325714D02*
X103049819Y-32563809D01*
X103049819Y-32563809D02*
X103097438Y-32706666D01*
X103097438Y-32706666D02*
X103192676Y-32801904D01*
X103192676Y-32801904D02*
X103287914Y-32849523D01*
X103287914Y-32849523D02*
X103478390Y-32897142D01*
X103478390Y-32897142D02*
X103621247Y-32897142D01*
X103621247Y-32897142D02*
X103811723Y-32849523D01*
X103811723Y-32849523D02*
X103906961Y-32801904D01*
X103906961Y-32801904D02*
X104002200Y-32706666D01*
X104002200Y-32706666D02*
X104049819Y-32563809D01*
X104049819Y-32563809D02*
X104049819Y-32325714D01*
X103145057Y-33278095D02*
X103097438Y-33325714D01*
X103097438Y-33325714D02*
X103049819Y-33420952D01*
X103049819Y-33420952D02*
X103049819Y-33659047D01*
X103049819Y-33659047D02*
X103097438Y-33754285D01*
X103097438Y-33754285D02*
X103145057Y-33801904D01*
X103145057Y-33801904D02*
X103240295Y-33849523D01*
X103240295Y-33849523D02*
X103335533Y-33849523D01*
X103335533Y-33849523D02*
X103478390Y-33801904D01*
X103478390Y-33801904D02*
X104049819Y-33230476D01*
X104049819Y-33230476D02*
X104049819Y-33849523D01*
X103049819Y-34754285D02*
X103049819Y-34278095D01*
X103049819Y-34278095D02*
X103526009Y-34230476D01*
X103526009Y-34230476D02*
X103478390Y-34278095D01*
X103478390Y-34278095D02*
X103430771Y-34373333D01*
X103430771Y-34373333D02*
X103430771Y-34611428D01*
X103430771Y-34611428D02*
X103478390Y-34706666D01*
X103478390Y-34706666D02*
X103526009Y-34754285D01*
X103526009Y-34754285D02*
X103621247Y-34801904D01*
X103621247Y-34801904D02*
X103859342Y-34801904D01*
X103859342Y-34801904D02*
X103954580Y-34754285D01*
X103954580Y-34754285D02*
X104002200Y-34706666D01*
X104002200Y-34706666D02*
X104049819Y-34611428D01*
X104049819Y-34611428D02*
X104049819Y-34373333D01*
X104049819Y-34373333D02*
X104002200Y-34278095D01*
X104002200Y-34278095D02*
X103954580Y-34230476D01*
X341299819Y-63887142D02*
X340823628Y-63553809D01*
X341299819Y-63315714D02*
X340299819Y-63315714D01*
X340299819Y-63315714D02*
X340299819Y-63696666D01*
X340299819Y-63696666D02*
X340347438Y-63791904D01*
X340347438Y-63791904D02*
X340395057Y-63839523D01*
X340395057Y-63839523D02*
X340490295Y-63887142D01*
X340490295Y-63887142D02*
X340633152Y-63887142D01*
X340633152Y-63887142D02*
X340728390Y-63839523D01*
X340728390Y-63839523D02*
X340776009Y-63791904D01*
X340776009Y-63791904D02*
X340823628Y-63696666D01*
X340823628Y-63696666D02*
X340823628Y-63315714D01*
X341299819Y-64839523D02*
X341299819Y-64268095D01*
X341299819Y-64553809D02*
X340299819Y-64553809D01*
X340299819Y-64553809D02*
X340442676Y-64458571D01*
X340442676Y-64458571D02*
X340537914Y-64363333D01*
X340537914Y-64363333D02*
X340585533Y-64268095D01*
X340299819Y-65172857D02*
X340299819Y-65791904D01*
X340299819Y-65791904D02*
X340680771Y-65458571D01*
X340680771Y-65458571D02*
X340680771Y-65601428D01*
X340680771Y-65601428D02*
X340728390Y-65696666D01*
X340728390Y-65696666D02*
X340776009Y-65744285D01*
X340776009Y-65744285D02*
X340871247Y-65791904D01*
X340871247Y-65791904D02*
X341109342Y-65791904D01*
X341109342Y-65791904D02*
X341204580Y-65744285D01*
X341204580Y-65744285D02*
X341252200Y-65696666D01*
X341252200Y-65696666D02*
X341299819Y-65601428D01*
X341299819Y-65601428D02*
X341299819Y-65315714D01*
X341299819Y-65315714D02*
X341252200Y-65220476D01*
X341252200Y-65220476D02*
X341204580Y-65172857D01*
X211129819Y-51795714D02*
X210129819Y-51795714D01*
X210129819Y-51795714D02*
X210129819Y-52033809D01*
X210129819Y-52033809D02*
X210177438Y-52176666D01*
X210177438Y-52176666D02*
X210272676Y-52271904D01*
X210272676Y-52271904D02*
X210367914Y-52319523D01*
X210367914Y-52319523D02*
X210558390Y-52367142D01*
X210558390Y-52367142D02*
X210701247Y-52367142D01*
X210701247Y-52367142D02*
X210891723Y-52319523D01*
X210891723Y-52319523D02*
X210986961Y-52271904D01*
X210986961Y-52271904D02*
X211082200Y-52176666D01*
X211082200Y-52176666D02*
X211129819Y-52033809D01*
X211129819Y-52033809D02*
X211129819Y-51795714D01*
X210225057Y-52748095D02*
X210177438Y-52795714D01*
X210177438Y-52795714D02*
X210129819Y-52890952D01*
X210129819Y-52890952D02*
X210129819Y-53129047D01*
X210129819Y-53129047D02*
X210177438Y-53224285D01*
X210177438Y-53224285D02*
X210225057Y-53271904D01*
X210225057Y-53271904D02*
X210320295Y-53319523D01*
X210320295Y-53319523D02*
X210415533Y-53319523D01*
X210415533Y-53319523D02*
X210558390Y-53271904D01*
X210558390Y-53271904D02*
X211129819Y-52700476D01*
X211129819Y-52700476D02*
X211129819Y-53319523D01*
X210225057Y-53700476D02*
X210177438Y-53748095D01*
X210177438Y-53748095D02*
X210129819Y-53843333D01*
X210129819Y-53843333D02*
X210129819Y-54081428D01*
X210129819Y-54081428D02*
X210177438Y-54176666D01*
X210177438Y-54176666D02*
X210225057Y-54224285D01*
X210225057Y-54224285D02*
X210320295Y-54271904D01*
X210320295Y-54271904D02*
X210415533Y-54271904D01*
X210415533Y-54271904D02*
X210558390Y-54224285D01*
X210558390Y-54224285D02*
X211129819Y-53652857D01*
X211129819Y-53652857D02*
X211129819Y-54271904D01*
X279304819Y-110285714D02*
X278304819Y-110285714D01*
X278304819Y-110285714D02*
X278304819Y-110523809D01*
X278304819Y-110523809D02*
X278352438Y-110666666D01*
X278352438Y-110666666D02*
X278447676Y-110761904D01*
X278447676Y-110761904D02*
X278542914Y-110809523D01*
X278542914Y-110809523D02*
X278733390Y-110857142D01*
X278733390Y-110857142D02*
X278876247Y-110857142D01*
X278876247Y-110857142D02*
X279066723Y-110809523D01*
X279066723Y-110809523D02*
X279161961Y-110761904D01*
X279161961Y-110761904D02*
X279257200Y-110666666D01*
X279257200Y-110666666D02*
X279304819Y-110523809D01*
X279304819Y-110523809D02*
X279304819Y-110285714D01*
X278304819Y-111761904D02*
X278304819Y-111285714D01*
X278304819Y-111285714D02*
X278781009Y-111238095D01*
X278781009Y-111238095D02*
X278733390Y-111285714D01*
X278733390Y-111285714D02*
X278685771Y-111380952D01*
X278685771Y-111380952D02*
X278685771Y-111619047D01*
X278685771Y-111619047D02*
X278733390Y-111714285D01*
X278733390Y-111714285D02*
X278781009Y-111761904D01*
X278781009Y-111761904D02*
X278876247Y-111809523D01*
X278876247Y-111809523D02*
X279114342Y-111809523D01*
X279114342Y-111809523D02*
X279209580Y-111761904D01*
X279209580Y-111761904D02*
X279257200Y-111714285D01*
X279257200Y-111714285D02*
X279304819Y-111619047D01*
X279304819Y-111619047D02*
X279304819Y-111380952D01*
X279304819Y-111380952D02*
X279257200Y-111285714D01*
X279257200Y-111285714D02*
X279209580Y-111238095D01*
X278304819Y-112142857D02*
X278304819Y-112761904D01*
X278304819Y-112761904D02*
X278685771Y-112428571D01*
X278685771Y-112428571D02*
X278685771Y-112571428D01*
X278685771Y-112571428D02*
X278733390Y-112666666D01*
X278733390Y-112666666D02*
X278781009Y-112714285D01*
X278781009Y-112714285D02*
X278876247Y-112761904D01*
X278876247Y-112761904D02*
X279114342Y-112761904D01*
X279114342Y-112761904D02*
X279209580Y-112714285D01*
X279209580Y-112714285D02*
X279257200Y-112666666D01*
X279257200Y-112666666D02*
X279304819Y-112571428D01*
X279304819Y-112571428D02*
X279304819Y-112285714D01*
X279304819Y-112285714D02*
X279257200Y-112190476D01*
X279257200Y-112190476D02*
X279209580Y-112142857D01*
X343049819Y-79775833D02*
X342573628Y-79442500D01*
X343049819Y-79204405D02*
X342049819Y-79204405D01*
X342049819Y-79204405D02*
X342049819Y-79585357D01*
X342049819Y-79585357D02*
X342097438Y-79680595D01*
X342097438Y-79680595D02*
X342145057Y-79728214D01*
X342145057Y-79728214D02*
X342240295Y-79775833D01*
X342240295Y-79775833D02*
X342383152Y-79775833D01*
X342383152Y-79775833D02*
X342478390Y-79728214D01*
X342478390Y-79728214D02*
X342526009Y-79680595D01*
X342526009Y-79680595D02*
X342573628Y-79585357D01*
X342573628Y-79585357D02*
X342573628Y-79204405D01*
X342049819Y-80680595D02*
X342049819Y-80204405D01*
X342049819Y-80204405D02*
X342526009Y-80156786D01*
X342526009Y-80156786D02*
X342478390Y-80204405D01*
X342478390Y-80204405D02*
X342430771Y-80299643D01*
X342430771Y-80299643D02*
X342430771Y-80537738D01*
X342430771Y-80537738D02*
X342478390Y-80632976D01*
X342478390Y-80632976D02*
X342526009Y-80680595D01*
X342526009Y-80680595D02*
X342621247Y-80728214D01*
X342621247Y-80728214D02*
X342859342Y-80728214D01*
X342859342Y-80728214D02*
X342954580Y-80680595D01*
X342954580Y-80680595D02*
X343002200Y-80632976D01*
X343002200Y-80632976D02*
X343049819Y-80537738D01*
X343049819Y-80537738D02*
X343049819Y-80299643D01*
X343049819Y-80299643D02*
X343002200Y-80204405D01*
X343002200Y-80204405D02*
X342954580Y-80156786D01*
X343799819Y-36082142D02*
X343323628Y-35748809D01*
X343799819Y-35510714D02*
X342799819Y-35510714D01*
X342799819Y-35510714D02*
X342799819Y-35891666D01*
X342799819Y-35891666D02*
X342847438Y-35986904D01*
X342847438Y-35986904D02*
X342895057Y-36034523D01*
X342895057Y-36034523D02*
X342990295Y-36082142D01*
X342990295Y-36082142D02*
X343133152Y-36082142D01*
X343133152Y-36082142D02*
X343228390Y-36034523D01*
X343228390Y-36034523D02*
X343276009Y-35986904D01*
X343276009Y-35986904D02*
X343323628Y-35891666D01*
X343323628Y-35891666D02*
X343323628Y-35510714D01*
X343799819Y-37034523D02*
X343799819Y-36463095D01*
X343799819Y-36748809D02*
X342799819Y-36748809D01*
X342799819Y-36748809D02*
X342942676Y-36653571D01*
X342942676Y-36653571D02*
X343037914Y-36558333D01*
X343037914Y-36558333D02*
X343085533Y-36463095D01*
X342799819Y-37939285D02*
X342799819Y-37463095D01*
X342799819Y-37463095D02*
X343276009Y-37415476D01*
X343276009Y-37415476D02*
X343228390Y-37463095D01*
X343228390Y-37463095D02*
X343180771Y-37558333D01*
X343180771Y-37558333D02*
X343180771Y-37796428D01*
X343180771Y-37796428D02*
X343228390Y-37891666D01*
X343228390Y-37891666D02*
X343276009Y-37939285D01*
X343276009Y-37939285D02*
X343371247Y-37986904D01*
X343371247Y-37986904D02*
X343609342Y-37986904D01*
X343609342Y-37986904D02*
X343704580Y-37939285D01*
X343704580Y-37939285D02*
X343752200Y-37891666D01*
X343752200Y-37891666D02*
X343799819Y-37796428D01*
X343799819Y-37796428D02*
X343799819Y-37558333D01*
X343799819Y-37558333D02*
X343752200Y-37463095D01*
X343752200Y-37463095D02*
X343704580Y-37415476D01*
X48264819Y-110774405D02*
X47264819Y-110774405D01*
X47264819Y-110774405D02*
X47264819Y-111012500D01*
X47264819Y-111012500D02*
X47312438Y-111155357D01*
X47312438Y-111155357D02*
X47407676Y-111250595D01*
X47407676Y-111250595D02*
X47502914Y-111298214D01*
X47502914Y-111298214D02*
X47693390Y-111345833D01*
X47693390Y-111345833D02*
X47836247Y-111345833D01*
X47836247Y-111345833D02*
X48026723Y-111298214D01*
X48026723Y-111298214D02*
X48121961Y-111250595D01*
X48121961Y-111250595D02*
X48217200Y-111155357D01*
X48217200Y-111155357D02*
X48264819Y-111012500D01*
X48264819Y-111012500D02*
X48264819Y-110774405D01*
X47264819Y-112250595D02*
X47264819Y-111774405D01*
X47264819Y-111774405D02*
X47741009Y-111726786D01*
X47741009Y-111726786D02*
X47693390Y-111774405D01*
X47693390Y-111774405D02*
X47645771Y-111869643D01*
X47645771Y-111869643D02*
X47645771Y-112107738D01*
X47645771Y-112107738D02*
X47693390Y-112202976D01*
X47693390Y-112202976D02*
X47741009Y-112250595D01*
X47741009Y-112250595D02*
X47836247Y-112298214D01*
X47836247Y-112298214D02*
X48074342Y-112298214D01*
X48074342Y-112298214D02*
X48169580Y-112250595D01*
X48169580Y-112250595D02*
X48217200Y-112202976D01*
X48217200Y-112202976D02*
X48264819Y-112107738D01*
X48264819Y-112107738D02*
X48264819Y-111869643D01*
X48264819Y-111869643D02*
X48217200Y-111774405D01*
X48217200Y-111774405D02*
X48169580Y-111726786D01*
X337449819Y-79775833D02*
X336973628Y-79442500D01*
X337449819Y-79204405D02*
X336449819Y-79204405D01*
X336449819Y-79204405D02*
X336449819Y-79585357D01*
X336449819Y-79585357D02*
X336497438Y-79680595D01*
X336497438Y-79680595D02*
X336545057Y-79728214D01*
X336545057Y-79728214D02*
X336640295Y-79775833D01*
X336640295Y-79775833D02*
X336783152Y-79775833D01*
X336783152Y-79775833D02*
X336878390Y-79728214D01*
X336878390Y-79728214D02*
X336926009Y-79680595D01*
X336926009Y-79680595D02*
X336973628Y-79585357D01*
X336973628Y-79585357D02*
X336973628Y-79204405D01*
X336878390Y-80347262D02*
X336830771Y-80252024D01*
X336830771Y-80252024D02*
X336783152Y-80204405D01*
X336783152Y-80204405D02*
X336687914Y-80156786D01*
X336687914Y-80156786D02*
X336640295Y-80156786D01*
X336640295Y-80156786D02*
X336545057Y-80204405D01*
X336545057Y-80204405D02*
X336497438Y-80252024D01*
X336497438Y-80252024D02*
X336449819Y-80347262D01*
X336449819Y-80347262D02*
X336449819Y-80537738D01*
X336449819Y-80537738D02*
X336497438Y-80632976D01*
X336497438Y-80632976D02*
X336545057Y-80680595D01*
X336545057Y-80680595D02*
X336640295Y-80728214D01*
X336640295Y-80728214D02*
X336687914Y-80728214D01*
X336687914Y-80728214D02*
X336783152Y-80680595D01*
X336783152Y-80680595D02*
X336830771Y-80632976D01*
X336830771Y-80632976D02*
X336878390Y-80537738D01*
X336878390Y-80537738D02*
X336878390Y-80347262D01*
X336878390Y-80347262D02*
X336926009Y-80252024D01*
X336926009Y-80252024D02*
X336973628Y-80204405D01*
X336973628Y-80204405D02*
X337068866Y-80156786D01*
X337068866Y-80156786D02*
X337259342Y-80156786D01*
X337259342Y-80156786D02*
X337354580Y-80204405D01*
X337354580Y-80204405D02*
X337402200Y-80252024D01*
X337402200Y-80252024D02*
X337449819Y-80347262D01*
X337449819Y-80347262D02*
X337449819Y-80537738D01*
X337449819Y-80537738D02*
X337402200Y-80632976D01*
X337402200Y-80632976D02*
X337354580Y-80680595D01*
X337354580Y-80680595D02*
X337259342Y-80728214D01*
X337259342Y-80728214D02*
X337068866Y-80728214D01*
X337068866Y-80728214D02*
X336973628Y-80680595D01*
X336973628Y-80680595D02*
X336926009Y-80632976D01*
X336926009Y-80632976D02*
X336878390Y-80537738D01*
X335499819Y-51082142D02*
X335023628Y-50748809D01*
X335499819Y-50510714D02*
X334499819Y-50510714D01*
X334499819Y-50510714D02*
X334499819Y-50891666D01*
X334499819Y-50891666D02*
X334547438Y-50986904D01*
X334547438Y-50986904D02*
X334595057Y-51034523D01*
X334595057Y-51034523D02*
X334690295Y-51082142D01*
X334690295Y-51082142D02*
X334833152Y-51082142D01*
X334833152Y-51082142D02*
X334928390Y-51034523D01*
X334928390Y-51034523D02*
X334976009Y-50986904D01*
X334976009Y-50986904D02*
X335023628Y-50891666D01*
X335023628Y-50891666D02*
X335023628Y-50510714D01*
X335499819Y-52034523D02*
X335499819Y-51463095D01*
X335499819Y-51748809D02*
X334499819Y-51748809D01*
X334499819Y-51748809D02*
X334642676Y-51653571D01*
X334642676Y-51653571D02*
X334737914Y-51558333D01*
X334737914Y-51558333D02*
X334785533Y-51463095D01*
X334928390Y-52605952D02*
X334880771Y-52510714D01*
X334880771Y-52510714D02*
X334833152Y-52463095D01*
X334833152Y-52463095D02*
X334737914Y-52415476D01*
X334737914Y-52415476D02*
X334690295Y-52415476D01*
X334690295Y-52415476D02*
X334595057Y-52463095D01*
X334595057Y-52463095D02*
X334547438Y-52510714D01*
X334547438Y-52510714D02*
X334499819Y-52605952D01*
X334499819Y-52605952D02*
X334499819Y-52796428D01*
X334499819Y-52796428D02*
X334547438Y-52891666D01*
X334547438Y-52891666D02*
X334595057Y-52939285D01*
X334595057Y-52939285D02*
X334690295Y-52986904D01*
X334690295Y-52986904D02*
X334737914Y-52986904D01*
X334737914Y-52986904D02*
X334833152Y-52939285D01*
X334833152Y-52939285D02*
X334880771Y-52891666D01*
X334880771Y-52891666D02*
X334928390Y-52796428D01*
X334928390Y-52796428D02*
X334928390Y-52605952D01*
X334928390Y-52605952D02*
X334976009Y-52510714D01*
X334976009Y-52510714D02*
X335023628Y-52463095D01*
X335023628Y-52463095D02*
X335118866Y-52415476D01*
X335118866Y-52415476D02*
X335309342Y-52415476D01*
X335309342Y-52415476D02*
X335404580Y-52463095D01*
X335404580Y-52463095D02*
X335452200Y-52510714D01*
X335452200Y-52510714D02*
X335499819Y-52605952D01*
X335499819Y-52605952D02*
X335499819Y-52796428D01*
X335499819Y-52796428D02*
X335452200Y-52891666D01*
X335452200Y-52891666D02*
X335404580Y-52939285D01*
X335404580Y-52939285D02*
X335309342Y-52986904D01*
X335309342Y-52986904D02*
X335118866Y-52986904D01*
X335118866Y-52986904D02*
X335023628Y-52939285D01*
X335023628Y-52939285D02*
X334976009Y-52891666D01*
X334976009Y-52891666D02*
X334928390Y-52796428D01*
X260469819Y-32325714D02*
X259469819Y-32325714D01*
X259469819Y-32325714D02*
X259469819Y-32563809D01*
X259469819Y-32563809D02*
X259517438Y-32706666D01*
X259517438Y-32706666D02*
X259612676Y-32801904D01*
X259612676Y-32801904D02*
X259707914Y-32849523D01*
X259707914Y-32849523D02*
X259898390Y-32897142D01*
X259898390Y-32897142D02*
X260041247Y-32897142D01*
X260041247Y-32897142D02*
X260231723Y-32849523D01*
X260231723Y-32849523D02*
X260326961Y-32801904D01*
X260326961Y-32801904D02*
X260422200Y-32706666D01*
X260422200Y-32706666D02*
X260469819Y-32563809D01*
X260469819Y-32563809D02*
X260469819Y-32325714D01*
X259469819Y-33801904D02*
X259469819Y-33325714D01*
X259469819Y-33325714D02*
X259946009Y-33278095D01*
X259946009Y-33278095D02*
X259898390Y-33325714D01*
X259898390Y-33325714D02*
X259850771Y-33420952D01*
X259850771Y-33420952D02*
X259850771Y-33659047D01*
X259850771Y-33659047D02*
X259898390Y-33754285D01*
X259898390Y-33754285D02*
X259946009Y-33801904D01*
X259946009Y-33801904D02*
X260041247Y-33849523D01*
X260041247Y-33849523D02*
X260279342Y-33849523D01*
X260279342Y-33849523D02*
X260374580Y-33801904D01*
X260374580Y-33801904D02*
X260422200Y-33754285D01*
X260422200Y-33754285D02*
X260469819Y-33659047D01*
X260469819Y-33659047D02*
X260469819Y-33420952D01*
X260469819Y-33420952D02*
X260422200Y-33325714D01*
X260422200Y-33325714D02*
X260374580Y-33278095D01*
X259803152Y-34706666D02*
X260469819Y-34706666D01*
X259422200Y-34468571D02*
X260136485Y-34230476D01*
X260136485Y-34230476D02*
X260136485Y-34849523D01*
X249914819Y-51763214D02*
X248914819Y-51763214D01*
X248914819Y-51763214D02*
X248914819Y-52001309D01*
X248914819Y-52001309D02*
X248962438Y-52144166D01*
X248962438Y-52144166D02*
X249057676Y-52239404D01*
X249057676Y-52239404D02*
X249152914Y-52287023D01*
X249152914Y-52287023D02*
X249343390Y-52334642D01*
X249343390Y-52334642D02*
X249486247Y-52334642D01*
X249486247Y-52334642D02*
X249676723Y-52287023D01*
X249676723Y-52287023D02*
X249771961Y-52239404D01*
X249771961Y-52239404D02*
X249867200Y-52144166D01*
X249867200Y-52144166D02*
X249914819Y-52001309D01*
X249914819Y-52001309D02*
X249914819Y-51763214D01*
X249248152Y-53191785D02*
X249914819Y-53191785D01*
X248867200Y-52953690D02*
X249581485Y-52715595D01*
X249581485Y-52715595D02*
X249581485Y-53334642D01*
X248914819Y-53620357D02*
X248914819Y-54287023D01*
X248914819Y-54287023D02*
X249914819Y-53858452D01*
X331074819Y-32223214D02*
X330074819Y-32223214D01*
X330074819Y-32223214D02*
X330074819Y-32461309D01*
X330074819Y-32461309D02*
X330122438Y-32604166D01*
X330122438Y-32604166D02*
X330217676Y-32699404D01*
X330217676Y-32699404D02*
X330312914Y-32747023D01*
X330312914Y-32747023D02*
X330503390Y-32794642D01*
X330503390Y-32794642D02*
X330646247Y-32794642D01*
X330646247Y-32794642D02*
X330836723Y-32747023D01*
X330836723Y-32747023D02*
X330931961Y-32699404D01*
X330931961Y-32699404D02*
X331027200Y-32604166D01*
X331027200Y-32604166D02*
X331074819Y-32461309D01*
X331074819Y-32461309D02*
X331074819Y-32223214D01*
X330074819Y-33651785D02*
X330074819Y-33461309D01*
X330074819Y-33461309D02*
X330122438Y-33366071D01*
X330122438Y-33366071D02*
X330170057Y-33318452D01*
X330170057Y-33318452D02*
X330312914Y-33223214D01*
X330312914Y-33223214D02*
X330503390Y-33175595D01*
X330503390Y-33175595D02*
X330884342Y-33175595D01*
X330884342Y-33175595D02*
X330979580Y-33223214D01*
X330979580Y-33223214D02*
X331027200Y-33270833D01*
X331027200Y-33270833D02*
X331074819Y-33366071D01*
X331074819Y-33366071D02*
X331074819Y-33556547D01*
X331074819Y-33556547D02*
X331027200Y-33651785D01*
X331027200Y-33651785D02*
X330979580Y-33699404D01*
X330979580Y-33699404D02*
X330884342Y-33747023D01*
X330884342Y-33747023D02*
X330646247Y-33747023D01*
X330646247Y-33747023D02*
X330551009Y-33699404D01*
X330551009Y-33699404D02*
X330503390Y-33651785D01*
X330503390Y-33651785D02*
X330455771Y-33556547D01*
X330455771Y-33556547D02*
X330455771Y-33366071D01*
X330455771Y-33366071D02*
X330503390Y-33270833D01*
X330503390Y-33270833D02*
X330551009Y-33223214D01*
X330551009Y-33223214D02*
X330646247Y-33175595D01*
X330408152Y-34604166D02*
X331074819Y-34604166D01*
X330027200Y-34366071D02*
X330741485Y-34127976D01*
X330741485Y-34127976D02*
X330741485Y-34747023D01*
X157034819Y-71245714D02*
X156034819Y-71245714D01*
X156034819Y-71245714D02*
X156034819Y-71483809D01*
X156034819Y-71483809D02*
X156082438Y-71626666D01*
X156082438Y-71626666D02*
X156177676Y-71721904D01*
X156177676Y-71721904D02*
X156272914Y-71769523D01*
X156272914Y-71769523D02*
X156463390Y-71817142D01*
X156463390Y-71817142D02*
X156606247Y-71817142D01*
X156606247Y-71817142D02*
X156796723Y-71769523D01*
X156796723Y-71769523D02*
X156891961Y-71721904D01*
X156891961Y-71721904D02*
X156987200Y-71626666D01*
X156987200Y-71626666D02*
X157034819Y-71483809D01*
X157034819Y-71483809D02*
X157034819Y-71245714D01*
X156368152Y-72674285D02*
X157034819Y-72674285D01*
X155987200Y-72436190D02*
X156701485Y-72198095D01*
X156701485Y-72198095D02*
X156701485Y-72817142D01*
X156034819Y-73102857D02*
X156034819Y-73721904D01*
X156034819Y-73721904D02*
X156415771Y-73388571D01*
X156415771Y-73388571D02*
X156415771Y-73531428D01*
X156415771Y-73531428D02*
X156463390Y-73626666D01*
X156463390Y-73626666D02*
X156511009Y-73674285D01*
X156511009Y-73674285D02*
X156606247Y-73721904D01*
X156606247Y-73721904D02*
X156844342Y-73721904D01*
X156844342Y-73721904D02*
X156939580Y-73674285D01*
X156939580Y-73674285D02*
X156987200Y-73626666D01*
X156987200Y-73626666D02*
X157034819Y-73531428D01*
X157034819Y-73531428D02*
X157034819Y-73245714D01*
X157034819Y-73245714D02*
X156987200Y-73150476D01*
X156987200Y-73150476D02*
X156939580Y-73102857D01*
X274269819Y-71664405D02*
X273269819Y-71664405D01*
X273269819Y-71664405D02*
X273269819Y-71902500D01*
X273269819Y-71902500D02*
X273317438Y-72045357D01*
X273317438Y-72045357D02*
X273412676Y-72140595D01*
X273412676Y-72140595D02*
X273507914Y-72188214D01*
X273507914Y-72188214D02*
X273698390Y-72235833D01*
X273698390Y-72235833D02*
X273841247Y-72235833D01*
X273841247Y-72235833D02*
X274031723Y-72188214D01*
X274031723Y-72188214D02*
X274126961Y-72140595D01*
X274126961Y-72140595D02*
X274222200Y-72045357D01*
X274222200Y-72045357D02*
X274269819Y-71902500D01*
X274269819Y-71902500D02*
X274269819Y-71664405D01*
X273698390Y-72807262D02*
X273650771Y-72712024D01*
X273650771Y-72712024D02*
X273603152Y-72664405D01*
X273603152Y-72664405D02*
X273507914Y-72616786D01*
X273507914Y-72616786D02*
X273460295Y-72616786D01*
X273460295Y-72616786D02*
X273365057Y-72664405D01*
X273365057Y-72664405D02*
X273317438Y-72712024D01*
X273317438Y-72712024D02*
X273269819Y-72807262D01*
X273269819Y-72807262D02*
X273269819Y-72997738D01*
X273269819Y-72997738D02*
X273317438Y-73092976D01*
X273317438Y-73092976D02*
X273365057Y-73140595D01*
X273365057Y-73140595D02*
X273460295Y-73188214D01*
X273460295Y-73188214D02*
X273507914Y-73188214D01*
X273507914Y-73188214D02*
X273603152Y-73140595D01*
X273603152Y-73140595D02*
X273650771Y-73092976D01*
X273650771Y-73092976D02*
X273698390Y-72997738D01*
X273698390Y-72997738D02*
X273698390Y-72807262D01*
X273698390Y-72807262D02*
X273746009Y-72712024D01*
X273746009Y-72712024D02*
X273793628Y-72664405D01*
X273793628Y-72664405D02*
X273888866Y-72616786D01*
X273888866Y-72616786D02*
X274079342Y-72616786D01*
X274079342Y-72616786D02*
X274174580Y-72664405D01*
X274174580Y-72664405D02*
X274222200Y-72712024D01*
X274222200Y-72712024D02*
X274269819Y-72807262D01*
X274269819Y-72807262D02*
X274269819Y-72997738D01*
X274269819Y-72997738D02*
X274222200Y-73092976D01*
X274222200Y-73092976D02*
X274174580Y-73140595D01*
X274174580Y-73140595D02*
X274079342Y-73188214D01*
X274079342Y-73188214D02*
X273888866Y-73188214D01*
X273888866Y-73188214D02*
X273793628Y-73140595D01*
X273793628Y-73140595D02*
X273746009Y-73092976D01*
X273746009Y-73092976D02*
X273698390Y-72997738D01*
X341299819Y-36082142D02*
X340823628Y-35748809D01*
X341299819Y-35510714D02*
X340299819Y-35510714D01*
X340299819Y-35510714D02*
X340299819Y-35891666D01*
X340299819Y-35891666D02*
X340347438Y-35986904D01*
X340347438Y-35986904D02*
X340395057Y-36034523D01*
X340395057Y-36034523D02*
X340490295Y-36082142D01*
X340490295Y-36082142D02*
X340633152Y-36082142D01*
X340633152Y-36082142D02*
X340728390Y-36034523D01*
X340728390Y-36034523D02*
X340776009Y-35986904D01*
X340776009Y-35986904D02*
X340823628Y-35891666D01*
X340823628Y-35891666D02*
X340823628Y-35510714D01*
X341299819Y-37034523D02*
X341299819Y-36463095D01*
X341299819Y-36748809D02*
X340299819Y-36748809D01*
X340299819Y-36748809D02*
X340442676Y-36653571D01*
X340442676Y-36653571D02*
X340537914Y-36558333D01*
X340537914Y-36558333D02*
X340585533Y-36463095D01*
X340633152Y-37891666D02*
X341299819Y-37891666D01*
X340252200Y-37653571D02*
X340966485Y-37415476D01*
X340966485Y-37415476D02*
X340966485Y-38034523D01*
X142549819Y-90888214D02*
X141549819Y-90888214D01*
X141549819Y-90888214D02*
X141549819Y-91126309D01*
X141549819Y-91126309D02*
X141597438Y-91269166D01*
X141597438Y-91269166D02*
X141692676Y-91364404D01*
X141692676Y-91364404D02*
X141787914Y-91412023D01*
X141787914Y-91412023D02*
X141978390Y-91459642D01*
X141978390Y-91459642D02*
X142121247Y-91459642D01*
X142121247Y-91459642D02*
X142311723Y-91412023D01*
X142311723Y-91412023D02*
X142406961Y-91364404D01*
X142406961Y-91364404D02*
X142502200Y-91269166D01*
X142502200Y-91269166D02*
X142549819Y-91126309D01*
X142549819Y-91126309D02*
X142549819Y-90888214D01*
X141549819Y-91792976D02*
X141549819Y-92412023D01*
X141549819Y-92412023D02*
X141930771Y-92078690D01*
X141930771Y-92078690D02*
X141930771Y-92221547D01*
X141930771Y-92221547D02*
X141978390Y-92316785D01*
X141978390Y-92316785D02*
X142026009Y-92364404D01*
X142026009Y-92364404D02*
X142121247Y-92412023D01*
X142121247Y-92412023D02*
X142359342Y-92412023D01*
X142359342Y-92412023D02*
X142454580Y-92364404D01*
X142454580Y-92364404D02*
X142502200Y-92316785D01*
X142502200Y-92316785D02*
X142549819Y-92221547D01*
X142549819Y-92221547D02*
X142549819Y-91935833D01*
X142549819Y-91935833D02*
X142502200Y-91840595D01*
X142502200Y-91840595D02*
X142454580Y-91792976D01*
X141549819Y-93269166D02*
X141549819Y-93078690D01*
X141549819Y-93078690D02*
X141597438Y-92983452D01*
X141597438Y-92983452D02*
X141645057Y-92935833D01*
X141645057Y-92935833D02*
X141787914Y-92840595D01*
X141787914Y-92840595D02*
X141978390Y-92792976D01*
X141978390Y-92792976D02*
X142359342Y-92792976D01*
X142359342Y-92792976D02*
X142454580Y-92840595D01*
X142454580Y-92840595D02*
X142502200Y-92888214D01*
X142502200Y-92888214D02*
X142549819Y-92983452D01*
X142549819Y-92983452D02*
X142549819Y-93173928D01*
X142549819Y-93173928D02*
X142502200Y-93269166D01*
X142502200Y-93269166D02*
X142454580Y-93316785D01*
X142454580Y-93316785D02*
X142359342Y-93364404D01*
X142359342Y-93364404D02*
X142121247Y-93364404D01*
X142121247Y-93364404D02*
X142026009Y-93316785D01*
X142026009Y-93316785D02*
X141978390Y-93269166D01*
X141978390Y-93269166D02*
X141930771Y-93173928D01*
X141930771Y-93173928D02*
X141930771Y-92983452D01*
X141930771Y-92983452D02*
X141978390Y-92888214D01*
X141978390Y-92888214D02*
X142026009Y-92840595D01*
X142026009Y-92840595D02*
X142121247Y-92792976D01*
X84549819Y-32325714D02*
X83549819Y-32325714D01*
X83549819Y-32325714D02*
X83549819Y-32563809D01*
X83549819Y-32563809D02*
X83597438Y-32706666D01*
X83597438Y-32706666D02*
X83692676Y-32801904D01*
X83692676Y-32801904D02*
X83787914Y-32849523D01*
X83787914Y-32849523D02*
X83978390Y-32897142D01*
X83978390Y-32897142D02*
X84121247Y-32897142D01*
X84121247Y-32897142D02*
X84311723Y-32849523D01*
X84311723Y-32849523D02*
X84406961Y-32801904D01*
X84406961Y-32801904D02*
X84502200Y-32706666D01*
X84502200Y-32706666D02*
X84549819Y-32563809D01*
X84549819Y-32563809D02*
X84549819Y-32325714D01*
X84549819Y-33849523D02*
X84549819Y-33278095D01*
X84549819Y-33563809D02*
X83549819Y-33563809D01*
X83549819Y-33563809D02*
X83692676Y-33468571D01*
X83692676Y-33468571D02*
X83787914Y-33373333D01*
X83787914Y-33373333D02*
X83835533Y-33278095D01*
X83549819Y-34182857D02*
X83549819Y-34849523D01*
X83549819Y-34849523D02*
X84549819Y-34420952D01*
X230534819Y-51825714D02*
X229534819Y-51825714D01*
X229534819Y-51825714D02*
X229534819Y-52063809D01*
X229534819Y-52063809D02*
X229582438Y-52206666D01*
X229582438Y-52206666D02*
X229677676Y-52301904D01*
X229677676Y-52301904D02*
X229772914Y-52349523D01*
X229772914Y-52349523D02*
X229963390Y-52397142D01*
X229963390Y-52397142D02*
X230106247Y-52397142D01*
X230106247Y-52397142D02*
X230296723Y-52349523D01*
X230296723Y-52349523D02*
X230391961Y-52301904D01*
X230391961Y-52301904D02*
X230487200Y-52206666D01*
X230487200Y-52206666D02*
X230534819Y-52063809D01*
X230534819Y-52063809D02*
X230534819Y-51825714D01*
X229534819Y-52730476D02*
X229534819Y-53349523D01*
X229534819Y-53349523D02*
X229915771Y-53016190D01*
X229915771Y-53016190D02*
X229915771Y-53159047D01*
X229915771Y-53159047D02*
X229963390Y-53254285D01*
X229963390Y-53254285D02*
X230011009Y-53301904D01*
X230011009Y-53301904D02*
X230106247Y-53349523D01*
X230106247Y-53349523D02*
X230344342Y-53349523D01*
X230344342Y-53349523D02*
X230439580Y-53301904D01*
X230439580Y-53301904D02*
X230487200Y-53254285D01*
X230487200Y-53254285D02*
X230534819Y-53159047D01*
X230534819Y-53159047D02*
X230534819Y-52873333D01*
X230534819Y-52873333D02*
X230487200Y-52778095D01*
X230487200Y-52778095D02*
X230439580Y-52730476D01*
X230534819Y-53825714D02*
X230534819Y-54016190D01*
X230534819Y-54016190D02*
X230487200Y-54111428D01*
X230487200Y-54111428D02*
X230439580Y-54159047D01*
X230439580Y-54159047D02*
X230296723Y-54254285D01*
X230296723Y-54254285D02*
X230106247Y-54301904D01*
X230106247Y-54301904D02*
X229725295Y-54301904D01*
X229725295Y-54301904D02*
X229630057Y-54254285D01*
X229630057Y-54254285D02*
X229582438Y-54206666D01*
X229582438Y-54206666D02*
X229534819Y-54111428D01*
X229534819Y-54111428D02*
X229534819Y-53920952D01*
X229534819Y-53920952D02*
X229582438Y-53825714D01*
X229582438Y-53825714D02*
X229630057Y-53778095D01*
X229630057Y-53778095D02*
X229725295Y-53730476D01*
X229725295Y-53730476D02*
X229963390Y-53730476D01*
X229963390Y-53730476D02*
X230058628Y-53778095D01*
X230058628Y-53778095D02*
X230106247Y-53825714D01*
X230106247Y-53825714D02*
X230153866Y-53920952D01*
X230153866Y-53920952D02*
X230153866Y-54111428D01*
X230153866Y-54111428D02*
X230106247Y-54206666D01*
X230106247Y-54206666D02*
X230058628Y-54254285D01*
X230058628Y-54254285D02*
X229963390Y-54301904D01*
X97049819Y-110325714D02*
X96049819Y-110325714D01*
X96049819Y-110325714D02*
X96049819Y-110563809D01*
X96049819Y-110563809D02*
X96097438Y-110706666D01*
X96097438Y-110706666D02*
X96192676Y-110801904D01*
X96192676Y-110801904D02*
X96287914Y-110849523D01*
X96287914Y-110849523D02*
X96478390Y-110897142D01*
X96478390Y-110897142D02*
X96621247Y-110897142D01*
X96621247Y-110897142D02*
X96811723Y-110849523D01*
X96811723Y-110849523D02*
X96906961Y-110801904D01*
X96906961Y-110801904D02*
X97002200Y-110706666D01*
X97002200Y-110706666D02*
X97049819Y-110563809D01*
X97049819Y-110563809D02*
X97049819Y-110325714D01*
X96145057Y-111278095D02*
X96097438Y-111325714D01*
X96097438Y-111325714D02*
X96049819Y-111420952D01*
X96049819Y-111420952D02*
X96049819Y-111659047D01*
X96049819Y-111659047D02*
X96097438Y-111754285D01*
X96097438Y-111754285D02*
X96145057Y-111801904D01*
X96145057Y-111801904D02*
X96240295Y-111849523D01*
X96240295Y-111849523D02*
X96335533Y-111849523D01*
X96335533Y-111849523D02*
X96478390Y-111801904D01*
X96478390Y-111801904D02*
X97049819Y-111230476D01*
X97049819Y-111230476D02*
X97049819Y-111849523D01*
X97049819Y-112801904D02*
X97049819Y-112230476D01*
X97049819Y-112516190D02*
X96049819Y-112516190D01*
X96049819Y-112516190D02*
X96192676Y-112420952D01*
X96192676Y-112420952D02*
X96287914Y-112325714D01*
X96287914Y-112325714D02*
X96335533Y-112230476D01*
X200954819Y-90723214D02*
X199954819Y-90723214D01*
X199954819Y-90723214D02*
X199954819Y-90961309D01*
X199954819Y-90961309D02*
X200002438Y-91104166D01*
X200002438Y-91104166D02*
X200097676Y-91199404D01*
X200097676Y-91199404D02*
X200192914Y-91247023D01*
X200192914Y-91247023D02*
X200383390Y-91294642D01*
X200383390Y-91294642D02*
X200526247Y-91294642D01*
X200526247Y-91294642D02*
X200716723Y-91247023D01*
X200716723Y-91247023D02*
X200811961Y-91199404D01*
X200811961Y-91199404D02*
X200907200Y-91104166D01*
X200907200Y-91104166D02*
X200954819Y-90961309D01*
X200954819Y-90961309D02*
X200954819Y-90723214D01*
X199954819Y-92151785D02*
X199954819Y-91961309D01*
X199954819Y-91961309D02*
X200002438Y-91866071D01*
X200002438Y-91866071D02*
X200050057Y-91818452D01*
X200050057Y-91818452D02*
X200192914Y-91723214D01*
X200192914Y-91723214D02*
X200383390Y-91675595D01*
X200383390Y-91675595D02*
X200764342Y-91675595D01*
X200764342Y-91675595D02*
X200859580Y-91723214D01*
X200859580Y-91723214D02*
X200907200Y-91770833D01*
X200907200Y-91770833D02*
X200954819Y-91866071D01*
X200954819Y-91866071D02*
X200954819Y-92056547D01*
X200954819Y-92056547D02*
X200907200Y-92151785D01*
X200907200Y-92151785D02*
X200859580Y-92199404D01*
X200859580Y-92199404D02*
X200764342Y-92247023D01*
X200764342Y-92247023D02*
X200526247Y-92247023D01*
X200526247Y-92247023D02*
X200431009Y-92199404D01*
X200431009Y-92199404D02*
X200383390Y-92151785D01*
X200383390Y-92151785D02*
X200335771Y-92056547D01*
X200335771Y-92056547D02*
X200335771Y-91866071D01*
X200335771Y-91866071D02*
X200383390Y-91770833D01*
X200383390Y-91770833D02*
X200431009Y-91723214D01*
X200431009Y-91723214D02*
X200526247Y-91675595D01*
X199954819Y-92866071D02*
X199954819Y-92961309D01*
X199954819Y-92961309D02*
X200002438Y-93056547D01*
X200002438Y-93056547D02*
X200050057Y-93104166D01*
X200050057Y-93104166D02*
X200145295Y-93151785D01*
X200145295Y-93151785D02*
X200335771Y-93199404D01*
X200335771Y-93199404D02*
X200573866Y-93199404D01*
X200573866Y-93199404D02*
X200764342Y-93151785D01*
X200764342Y-93151785D02*
X200859580Y-93104166D01*
X200859580Y-93104166D02*
X200907200Y-93056547D01*
X200907200Y-93056547D02*
X200954819Y-92961309D01*
X200954819Y-92961309D02*
X200954819Y-92866071D01*
X200954819Y-92866071D02*
X200907200Y-92770833D01*
X200907200Y-92770833D02*
X200859580Y-92723214D01*
X200859580Y-92723214D02*
X200764342Y-92675595D01*
X200764342Y-92675595D02*
X200573866Y-92627976D01*
X200573866Y-92627976D02*
X200335771Y-92627976D01*
X200335771Y-92627976D02*
X200145295Y-92675595D01*
X200145295Y-92675595D02*
X200050057Y-92723214D01*
X200050057Y-92723214D02*
X200002438Y-92770833D01*
X200002438Y-92770833D02*
X199954819Y-92866071D01*
X337499819Y-51082142D02*
X337023628Y-50748809D01*
X337499819Y-50510714D02*
X336499819Y-50510714D01*
X336499819Y-50510714D02*
X336499819Y-50891666D01*
X336499819Y-50891666D02*
X336547438Y-50986904D01*
X336547438Y-50986904D02*
X336595057Y-51034523D01*
X336595057Y-51034523D02*
X336690295Y-51082142D01*
X336690295Y-51082142D02*
X336833152Y-51082142D01*
X336833152Y-51082142D02*
X336928390Y-51034523D01*
X336928390Y-51034523D02*
X336976009Y-50986904D01*
X336976009Y-50986904D02*
X337023628Y-50891666D01*
X337023628Y-50891666D02*
X337023628Y-50510714D01*
X337499819Y-52034523D02*
X337499819Y-51463095D01*
X337499819Y-51748809D02*
X336499819Y-51748809D01*
X336499819Y-51748809D02*
X336642676Y-51653571D01*
X336642676Y-51653571D02*
X336737914Y-51558333D01*
X336737914Y-51558333D02*
X336785533Y-51463095D01*
X337499819Y-52510714D02*
X337499819Y-52701190D01*
X337499819Y-52701190D02*
X337452200Y-52796428D01*
X337452200Y-52796428D02*
X337404580Y-52844047D01*
X337404580Y-52844047D02*
X337261723Y-52939285D01*
X337261723Y-52939285D02*
X337071247Y-52986904D01*
X337071247Y-52986904D02*
X336690295Y-52986904D01*
X336690295Y-52986904D02*
X336595057Y-52939285D01*
X336595057Y-52939285D02*
X336547438Y-52891666D01*
X336547438Y-52891666D02*
X336499819Y-52796428D01*
X336499819Y-52796428D02*
X336499819Y-52605952D01*
X336499819Y-52605952D02*
X336547438Y-52510714D01*
X336547438Y-52510714D02*
X336595057Y-52463095D01*
X336595057Y-52463095D02*
X336690295Y-52415476D01*
X336690295Y-52415476D02*
X336928390Y-52415476D01*
X336928390Y-52415476D02*
X337023628Y-52463095D01*
X337023628Y-52463095D02*
X337071247Y-52510714D01*
X337071247Y-52510714D02*
X337118866Y-52605952D01*
X337118866Y-52605952D02*
X337118866Y-52796428D01*
X337118866Y-52796428D02*
X337071247Y-52891666D01*
X337071247Y-52891666D02*
X337023628Y-52939285D01*
X337023628Y-52939285D02*
X336928390Y-52986904D01*
X343799819Y-64450833D02*
X343323628Y-64117500D01*
X343799819Y-63879405D02*
X342799819Y-63879405D01*
X342799819Y-63879405D02*
X342799819Y-64260357D01*
X342799819Y-64260357D02*
X342847438Y-64355595D01*
X342847438Y-64355595D02*
X342895057Y-64403214D01*
X342895057Y-64403214D02*
X342990295Y-64450833D01*
X342990295Y-64450833D02*
X343133152Y-64450833D01*
X343133152Y-64450833D02*
X343228390Y-64403214D01*
X343228390Y-64403214D02*
X343276009Y-64355595D01*
X343276009Y-64355595D02*
X343323628Y-64260357D01*
X343323628Y-64260357D02*
X343323628Y-63879405D01*
X343799819Y-64927024D02*
X343799819Y-65117500D01*
X343799819Y-65117500D02*
X343752200Y-65212738D01*
X343752200Y-65212738D02*
X343704580Y-65260357D01*
X343704580Y-65260357D02*
X343561723Y-65355595D01*
X343561723Y-65355595D02*
X343371247Y-65403214D01*
X343371247Y-65403214D02*
X342990295Y-65403214D01*
X342990295Y-65403214D02*
X342895057Y-65355595D01*
X342895057Y-65355595D02*
X342847438Y-65307976D01*
X342847438Y-65307976D02*
X342799819Y-65212738D01*
X342799819Y-65212738D02*
X342799819Y-65022262D01*
X342799819Y-65022262D02*
X342847438Y-64927024D01*
X342847438Y-64927024D02*
X342895057Y-64879405D01*
X342895057Y-64879405D02*
X342990295Y-64831786D01*
X342990295Y-64831786D02*
X343228390Y-64831786D01*
X343228390Y-64831786D02*
X343323628Y-64879405D01*
X343323628Y-64879405D02*
X343371247Y-64927024D01*
X343371247Y-64927024D02*
X343418866Y-65022262D01*
X343418866Y-65022262D02*
X343418866Y-65212738D01*
X343418866Y-65212738D02*
X343371247Y-65307976D01*
X343371247Y-65307976D02*
X343323628Y-65355595D01*
X343323628Y-65355595D02*
X343228390Y-65403214D01*
X79049819Y-71325714D02*
X78049819Y-71325714D01*
X78049819Y-71325714D02*
X78049819Y-71563809D01*
X78049819Y-71563809D02*
X78097438Y-71706666D01*
X78097438Y-71706666D02*
X78192676Y-71801904D01*
X78192676Y-71801904D02*
X78287914Y-71849523D01*
X78287914Y-71849523D02*
X78478390Y-71897142D01*
X78478390Y-71897142D02*
X78621247Y-71897142D01*
X78621247Y-71897142D02*
X78811723Y-71849523D01*
X78811723Y-71849523D02*
X78906961Y-71801904D01*
X78906961Y-71801904D02*
X79002200Y-71706666D01*
X79002200Y-71706666D02*
X79049819Y-71563809D01*
X79049819Y-71563809D02*
X79049819Y-71325714D01*
X79049819Y-72849523D02*
X79049819Y-72278095D01*
X79049819Y-72563809D02*
X78049819Y-72563809D01*
X78049819Y-72563809D02*
X78192676Y-72468571D01*
X78192676Y-72468571D02*
X78287914Y-72373333D01*
X78287914Y-72373333D02*
X78335533Y-72278095D01*
X79049819Y-73801904D02*
X79049819Y-73230476D01*
X79049819Y-73516190D02*
X78049819Y-73516190D01*
X78049819Y-73516190D02*
X78192676Y-73420952D01*
X78192676Y-73420952D02*
X78287914Y-73325714D01*
X78287914Y-73325714D02*
X78335533Y-73230476D01*
X240914819Y-32295714D02*
X239914819Y-32295714D01*
X239914819Y-32295714D02*
X239914819Y-32533809D01*
X239914819Y-32533809D02*
X239962438Y-32676666D01*
X239962438Y-32676666D02*
X240057676Y-32771904D01*
X240057676Y-32771904D02*
X240152914Y-32819523D01*
X240152914Y-32819523D02*
X240343390Y-32867142D01*
X240343390Y-32867142D02*
X240486247Y-32867142D01*
X240486247Y-32867142D02*
X240676723Y-32819523D01*
X240676723Y-32819523D02*
X240771961Y-32771904D01*
X240771961Y-32771904D02*
X240867200Y-32676666D01*
X240867200Y-32676666D02*
X240914819Y-32533809D01*
X240914819Y-32533809D02*
X240914819Y-32295714D01*
X240248152Y-33724285D02*
X240914819Y-33724285D01*
X239867200Y-33486190D02*
X240581485Y-33248095D01*
X240581485Y-33248095D02*
X240581485Y-33867142D01*
X239914819Y-34676666D02*
X239914819Y-34486190D01*
X239914819Y-34486190D02*
X239962438Y-34390952D01*
X239962438Y-34390952D02*
X240010057Y-34343333D01*
X240010057Y-34343333D02*
X240152914Y-34248095D01*
X240152914Y-34248095D02*
X240343390Y-34200476D01*
X240343390Y-34200476D02*
X240724342Y-34200476D01*
X240724342Y-34200476D02*
X240819580Y-34248095D01*
X240819580Y-34248095D02*
X240867200Y-34295714D01*
X240867200Y-34295714D02*
X240914819Y-34390952D01*
X240914819Y-34390952D02*
X240914819Y-34581428D01*
X240914819Y-34581428D02*
X240867200Y-34676666D01*
X240867200Y-34676666D02*
X240819580Y-34724285D01*
X240819580Y-34724285D02*
X240724342Y-34771904D01*
X240724342Y-34771904D02*
X240486247Y-34771904D01*
X240486247Y-34771904D02*
X240391009Y-34724285D01*
X240391009Y-34724285D02*
X240343390Y-34676666D01*
X240343390Y-34676666D02*
X240295771Y-34581428D01*
X240295771Y-34581428D02*
X240295771Y-34390952D01*
X240295771Y-34390952D02*
X240343390Y-34295714D01*
X240343390Y-34295714D02*
X240391009Y-34248095D01*
X240391009Y-34248095D02*
X240486247Y-34200476D01*
X240399819Y-90825714D02*
X239399819Y-90825714D01*
X239399819Y-90825714D02*
X239399819Y-91063809D01*
X239399819Y-91063809D02*
X239447438Y-91206666D01*
X239447438Y-91206666D02*
X239542676Y-91301904D01*
X239542676Y-91301904D02*
X239637914Y-91349523D01*
X239637914Y-91349523D02*
X239828390Y-91397142D01*
X239828390Y-91397142D02*
X239971247Y-91397142D01*
X239971247Y-91397142D02*
X240161723Y-91349523D01*
X240161723Y-91349523D02*
X240256961Y-91301904D01*
X240256961Y-91301904D02*
X240352200Y-91206666D01*
X240352200Y-91206666D02*
X240399819Y-91063809D01*
X240399819Y-91063809D02*
X240399819Y-90825714D01*
X239495057Y-91778095D02*
X239447438Y-91825714D01*
X239447438Y-91825714D02*
X239399819Y-91920952D01*
X239399819Y-91920952D02*
X239399819Y-92159047D01*
X239399819Y-92159047D02*
X239447438Y-92254285D01*
X239447438Y-92254285D02*
X239495057Y-92301904D01*
X239495057Y-92301904D02*
X239590295Y-92349523D01*
X239590295Y-92349523D02*
X239685533Y-92349523D01*
X239685533Y-92349523D02*
X239828390Y-92301904D01*
X239828390Y-92301904D02*
X240399819Y-91730476D01*
X240399819Y-91730476D02*
X240399819Y-92349523D01*
X239399819Y-92682857D02*
X239399819Y-93301904D01*
X239399819Y-93301904D02*
X239780771Y-92968571D01*
X239780771Y-92968571D02*
X239780771Y-93111428D01*
X239780771Y-93111428D02*
X239828390Y-93206666D01*
X239828390Y-93206666D02*
X239876009Y-93254285D01*
X239876009Y-93254285D02*
X239971247Y-93301904D01*
X239971247Y-93301904D02*
X240209342Y-93301904D01*
X240209342Y-93301904D02*
X240304580Y-93254285D01*
X240304580Y-93254285D02*
X240352200Y-93206666D01*
X240352200Y-93206666D02*
X240399819Y-93111428D01*
X240399819Y-93111428D02*
X240399819Y-92825714D01*
X240399819Y-92825714D02*
X240352200Y-92730476D01*
X240352200Y-92730476D02*
X240304580Y-92682857D01*
X330954819Y-70825714D02*
X329954819Y-70825714D01*
X329954819Y-70825714D02*
X329954819Y-71063809D01*
X329954819Y-71063809D02*
X330002438Y-71206666D01*
X330002438Y-71206666D02*
X330097676Y-71301904D01*
X330097676Y-71301904D02*
X330192914Y-71349523D01*
X330192914Y-71349523D02*
X330383390Y-71397142D01*
X330383390Y-71397142D02*
X330526247Y-71397142D01*
X330526247Y-71397142D02*
X330716723Y-71349523D01*
X330716723Y-71349523D02*
X330811961Y-71301904D01*
X330811961Y-71301904D02*
X330907200Y-71206666D01*
X330907200Y-71206666D02*
X330954819Y-71063809D01*
X330954819Y-71063809D02*
X330954819Y-70825714D01*
X330288152Y-72254285D02*
X330954819Y-72254285D01*
X329907200Y-72016190D02*
X330621485Y-71778095D01*
X330621485Y-71778095D02*
X330621485Y-72397142D01*
X330383390Y-72920952D02*
X330335771Y-72825714D01*
X330335771Y-72825714D02*
X330288152Y-72778095D01*
X330288152Y-72778095D02*
X330192914Y-72730476D01*
X330192914Y-72730476D02*
X330145295Y-72730476D01*
X330145295Y-72730476D02*
X330050057Y-72778095D01*
X330050057Y-72778095D02*
X330002438Y-72825714D01*
X330002438Y-72825714D02*
X329954819Y-72920952D01*
X329954819Y-72920952D02*
X329954819Y-73111428D01*
X329954819Y-73111428D02*
X330002438Y-73206666D01*
X330002438Y-73206666D02*
X330050057Y-73254285D01*
X330050057Y-73254285D02*
X330145295Y-73301904D01*
X330145295Y-73301904D02*
X330192914Y-73301904D01*
X330192914Y-73301904D02*
X330288152Y-73254285D01*
X330288152Y-73254285D02*
X330335771Y-73206666D01*
X330335771Y-73206666D02*
X330383390Y-73111428D01*
X330383390Y-73111428D02*
X330383390Y-72920952D01*
X330383390Y-72920952D02*
X330431009Y-72825714D01*
X330431009Y-72825714D02*
X330478628Y-72778095D01*
X330478628Y-72778095D02*
X330573866Y-72730476D01*
X330573866Y-72730476D02*
X330764342Y-72730476D01*
X330764342Y-72730476D02*
X330859580Y-72778095D01*
X330859580Y-72778095D02*
X330907200Y-72825714D01*
X330907200Y-72825714D02*
X330954819Y-72920952D01*
X330954819Y-72920952D02*
X330954819Y-73111428D01*
X330954819Y-73111428D02*
X330907200Y-73206666D01*
X330907200Y-73206666D02*
X330859580Y-73254285D01*
X330859580Y-73254285D02*
X330764342Y-73301904D01*
X330764342Y-73301904D02*
X330573866Y-73301904D01*
X330573866Y-73301904D02*
X330478628Y-73254285D01*
X330478628Y-73254285D02*
X330431009Y-73206666D01*
X330431009Y-73206666D02*
X330383390Y-73111428D01*
X123589819Y-32263214D02*
X122589819Y-32263214D01*
X122589819Y-32263214D02*
X122589819Y-32501309D01*
X122589819Y-32501309D02*
X122637438Y-32644166D01*
X122637438Y-32644166D02*
X122732676Y-32739404D01*
X122732676Y-32739404D02*
X122827914Y-32787023D01*
X122827914Y-32787023D02*
X123018390Y-32834642D01*
X123018390Y-32834642D02*
X123161247Y-32834642D01*
X123161247Y-32834642D02*
X123351723Y-32787023D01*
X123351723Y-32787023D02*
X123446961Y-32739404D01*
X123446961Y-32739404D02*
X123542200Y-32644166D01*
X123542200Y-32644166D02*
X123589819Y-32501309D01*
X123589819Y-32501309D02*
X123589819Y-32263214D01*
X122589819Y-33167976D02*
X122589819Y-33787023D01*
X122589819Y-33787023D02*
X122970771Y-33453690D01*
X122970771Y-33453690D02*
X122970771Y-33596547D01*
X122970771Y-33596547D02*
X123018390Y-33691785D01*
X123018390Y-33691785D02*
X123066009Y-33739404D01*
X123066009Y-33739404D02*
X123161247Y-33787023D01*
X123161247Y-33787023D02*
X123399342Y-33787023D01*
X123399342Y-33787023D02*
X123494580Y-33739404D01*
X123494580Y-33739404D02*
X123542200Y-33691785D01*
X123542200Y-33691785D02*
X123589819Y-33596547D01*
X123589819Y-33596547D02*
X123589819Y-33310833D01*
X123589819Y-33310833D02*
X123542200Y-33215595D01*
X123542200Y-33215595D02*
X123494580Y-33167976D01*
X122589819Y-34120357D02*
X122589819Y-34739404D01*
X122589819Y-34739404D02*
X122970771Y-34406071D01*
X122970771Y-34406071D02*
X122970771Y-34548928D01*
X122970771Y-34548928D02*
X123018390Y-34644166D01*
X123018390Y-34644166D02*
X123066009Y-34691785D01*
X123066009Y-34691785D02*
X123161247Y-34739404D01*
X123161247Y-34739404D02*
X123399342Y-34739404D01*
X123399342Y-34739404D02*
X123494580Y-34691785D01*
X123494580Y-34691785D02*
X123542200Y-34644166D01*
X123542200Y-34644166D02*
X123589819Y-34548928D01*
X123589819Y-34548928D02*
X123589819Y-34263214D01*
X123589819Y-34263214D02*
X123542200Y-34167976D01*
X123542200Y-34167976D02*
X123494580Y-34120357D01*
X123049819Y-90825714D02*
X122049819Y-90825714D01*
X122049819Y-90825714D02*
X122049819Y-91063809D01*
X122049819Y-91063809D02*
X122097438Y-91206666D01*
X122097438Y-91206666D02*
X122192676Y-91301904D01*
X122192676Y-91301904D02*
X122287914Y-91349523D01*
X122287914Y-91349523D02*
X122478390Y-91397142D01*
X122478390Y-91397142D02*
X122621247Y-91397142D01*
X122621247Y-91397142D02*
X122811723Y-91349523D01*
X122811723Y-91349523D02*
X122906961Y-91301904D01*
X122906961Y-91301904D02*
X123002200Y-91206666D01*
X123002200Y-91206666D02*
X123049819Y-91063809D01*
X123049819Y-91063809D02*
X123049819Y-90825714D01*
X122145057Y-91778095D02*
X122097438Y-91825714D01*
X122097438Y-91825714D02*
X122049819Y-91920952D01*
X122049819Y-91920952D02*
X122049819Y-92159047D01*
X122049819Y-92159047D02*
X122097438Y-92254285D01*
X122097438Y-92254285D02*
X122145057Y-92301904D01*
X122145057Y-92301904D02*
X122240295Y-92349523D01*
X122240295Y-92349523D02*
X122335533Y-92349523D01*
X122335533Y-92349523D02*
X122478390Y-92301904D01*
X122478390Y-92301904D02*
X123049819Y-91730476D01*
X123049819Y-91730476D02*
X123049819Y-92349523D01*
X122478390Y-92920952D02*
X122430771Y-92825714D01*
X122430771Y-92825714D02*
X122383152Y-92778095D01*
X122383152Y-92778095D02*
X122287914Y-92730476D01*
X122287914Y-92730476D02*
X122240295Y-92730476D01*
X122240295Y-92730476D02*
X122145057Y-92778095D01*
X122145057Y-92778095D02*
X122097438Y-92825714D01*
X122097438Y-92825714D02*
X122049819Y-92920952D01*
X122049819Y-92920952D02*
X122049819Y-93111428D01*
X122049819Y-93111428D02*
X122097438Y-93206666D01*
X122097438Y-93206666D02*
X122145057Y-93254285D01*
X122145057Y-93254285D02*
X122240295Y-93301904D01*
X122240295Y-93301904D02*
X122287914Y-93301904D01*
X122287914Y-93301904D02*
X122383152Y-93254285D01*
X122383152Y-93254285D02*
X122430771Y-93206666D01*
X122430771Y-93206666D02*
X122478390Y-93111428D01*
X122478390Y-93111428D02*
X122478390Y-92920952D01*
X122478390Y-92920952D02*
X122526009Y-92825714D01*
X122526009Y-92825714D02*
X122573628Y-92778095D01*
X122573628Y-92778095D02*
X122668866Y-92730476D01*
X122668866Y-92730476D02*
X122859342Y-92730476D01*
X122859342Y-92730476D02*
X122954580Y-92778095D01*
X122954580Y-92778095D02*
X123002200Y-92825714D01*
X123002200Y-92825714D02*
X123049819Y-92920952D01*
X123049819Y-92920952D02*
X123049819Y-93111428D01*
X123049819Y-93111428D02*
X123002200Y-93206666D01*
X123002200Y-93206666D02*
X122954580Y-93254285D01*
X122954580Y-93254285D02*
X122859342Y-93301904D01*
X122859342Y-93301904D02*
X122668866Y-93301904D01*
X122668866Y-93301904D02*
X122573628Y-93254285D01*
X122573628Y-93254285D02*
X122526009Y-93206666D01*
X122526009Y-93206666D02*
X122478390Y-93111428D01*
X172129819Y-51723214D02*
X171129819Y-51723214D01*
X171129819Y-51723214D02*
X171129819Y-51961309D01*
X171129819Y-51961309D02*
X171177438Y-52104166D01*
X171177438Y-52104166D02*
X171272676Y-52199404D01*
X171272676Y-52199404D02*
X171367914Y-52247023D01*
X171367914Y-52247023D02*
X171558390Y-52294642D01*
X171558390Y-52294642D02*
X171701247Y-52294642D01*
X171701247Y-52294642D02*
X171891723Y-52247023D01*
X171891723Y-52247023D02*
X171986961Y-52199404D01*
X171986961Y-52199404D02*
X172082200Y-52104166D01*
X172082200Y-52104166D02*
X172129819Y-51961309D01*
X172129819Y-51961309D02*
X172129819Y-51723214D01*
X171129819Y-53199404D02*
X171129819Y-52723214D01*
X171129819Y-52723214D02*
X171606009Y-52675595D01*
X171606009Y-52675595D02*
X171558390Y-52723214D01*
X171558390Y-52723214D02*
X171510771Y-52818452D01*
X171510771Y-52818452D02*
X171510771Y-53056547D01*
X171510771Y-53056547D02*
X171558390Y-53151785D01*
X171558390Y-53151785D02*
X171606009Y-53199404D01*
X171606009Y-53199404D02*
X171701247Y-53247023D01*
X171701247Y-53247023D02*
X171939342Y-53247023D01*
X171939342Y-53247023D02*
X172034580Y-53199404D01*
X172034580Y-53199404D02*
X172082200Y-53151785D01*
X172082200Y-53151785D02*
X172129819Y-53056547D01*
X172129819Y-53056547D02*
X172129819Y-52818452D01*
X172129819Y-52818452D02*
X172082200Y-52723214D01*
X172082200Y-52723214D02*
X172034580Y-52675595D01*
X171129819Y-53866071D02*
X171129819Y-53961309D01*
X171129819Y-53961309D02*
X171177438Y-54056547D01*
X171177438Y-54056547D02*
X171225057Y-54104166D01*
X171225057Y-54104166D02*
X171320295Y-54151785D01*
X171320295Y-54151785D02*
X171510771Y-54199404D01*
X171510771Y-54199404D02*
X171748866Y-54199404D01*
X171748866Y-54199404D02*
X171939342Y-54151785D01*
X171939342Y-54151785D02*
X172034580Y-54104166D01*
X172034580Y-54104166D02*
X172082200Y-54056547D01*
X172082200Y-54056547D02*
X172129819Y-53961309D01*
X172129819Y-53961309D02*
X172129819Y-53866071D01*
X172129819Y-53866071D02*
X172082200Y-53770833D01*
X172082200Y-53770833D02*
X172034580Y-53723214D01*
X172034580Y-53723214D02*
X171939342Y-53675595D01*
X171939342Y-53675595D02*
X171748866Y-53627976D01*
X171748866Y-53627976D02*
X171510771Y-53627976D01*
X171510771Y-53627976D02*
X171320295Y-53675595D01*
X171320295Y-53675595D02*
X171225057Y-53723214D01*
X171225057Y-53723214D02*
X171177438Y-53770833D01*
X171177438Y-53770833D02*
X171129819Y-53866071D01*
X152549819Y-51723214D02*
X151549819Y-51723214D01*
X151549819Y-51723214D02*
X151549819Y-51961309D01*
X151549819Y-51961309D02*
X151597438Y-52104166D01*
X151597438Y-52104166D02*
X151692676Y-52199404D01*
X151692676Y-52199404D02*
X151787914Y-52247023D01*
X151787914Y-52247023D02*
X151978390Y-52294642D01*
X151978390Y-52294642D02*
X152121247Y-52294642D01*
X152121247Y-52294642D02*
X152311723Y-52247023D01*
X152311723Y-52247023D02*
X152406961Y-52199404D01*
X152406961Y-52199404D02*
X152502200Y-52104166D01*
X152502200Y-52104166D02*
X152549819Y-51961309D01*
X152549819Y-51961309D02*
X152549819Y-51723214D01*
X151883152Y-53151785D02*
X152549819Y-53151785D01*
X151502200Y-52913690D02*
X152216485Y-52675595D01*
X152216485Y-52675595D02*
X152216485Y-53294642D01*
X151645057Y-53627976D02*
X151597438Y-53675595D01*
X151597438Y-53675595D02*
X151549819Y-53770833D01*
X151549819Y-53770833D02*
X151549819Y-54008928D01*
X151549819Y-54008928D02*
X151597438Y-54104166D01*
X151597438Y-54104166D02*
X151645057Y-54151785D01*
X151645057Y-54151785D02*
X151740295Y-54199404D01*
X151740295Y-54199404D02*
X151835533Y-54199404D01*
X151835533Y-54199404D02*
X151978390Y-54151785D01*
X151978390Y-54151785D02*
X152549819Y-53580357D01*
X152549819Y-53580357D02*
X152549819Y-54199404D01*
X137549819Y-71325714D02*
X136549819Y-71325714D01*
X136549819Y-71325714D02*
X136549819Y-71563809D01*
X136549819Y-71563809D02*
X136597438Y-71706666D01*
X136597438Y-71706666D02*
X136692676Y-71801904D01*
X136692676Y-71801904D02*
X136787914Y-71849523D01*
X136787914Y-71849523D02*
X136978390Y-71897142D01*
X136978390Y-71897142D02*
X137121247Y-71897142D01*
X137121247Y-71897142D02*
X137311723Y-71849523D01*
X137311723Y-71849523D02*
X137406961Y-71801904D01*
X137406961Y-71801904D02*
X137502200Y-71706666D01*
X137502200Y-71706666D02*
X137549819Y-71563809D01*
X137549819Y-71563809D02*
X137549819Y-71325714D01*
X136549819Y-72230476D02*
X136549819Y-72849523D01*
X136549819Y-72849523D02*
X136930771Y-72516190D01*
X136930771Y-72516190D02*
X136930771Y-72659047D01*
X136930771Y-72659047D02*
X136978390Y-72754285D01*
X136978390Y-72754285D02*
X137026009Y-72801904D01*
X137026009Y-72801904D02*
X137121247Y-72849523D01*
X137121247Y-72849523D02*
X137359342Y-72849523D01*
X137359342Y-72849523D02*
X137454580Y-72801904D01*
X137454580Y-72801904D02*
X137502200Y-72754285D01*
X137502200Y-72754285D02*
X137549819Y-72659047D01*
X137549819Y-72659047D02*
X137549819Y-72373333D01*
X137549819Y-72373333D02*
X137502200Y-72278095D01*
X137502200Y-72278095D02*
X137454580Y-72230476D01*
X136549819Y-73754285D02*
X136549819Y-73278095D01*
X136549819Y-73278095D02*
X137026009Y-73230476D01*
X137026009Y-73230476D02*
X136978390Y-73278095D01*
X136978390Y-73278095D02*
X136930771Y-73373333D01*
X136930771Y-73373333D02*
X136930771Y-73611428D01*
X136930771Y-73611428D02*
X136978390Y-73706666D01*
X136978390Y-73706666D02*
X137026009Y-73754285D01*
X137026009Y-73754285D02*
X137121247Y-73801904D01*
X137121247Y-73801904D02*
X137359342Y-73801904D01*
X137359342Y-73801904D02*
X137454580Y-73754285D01*
X137454580Y-73754285D02*
X137502200Y-73706666D01*
X137502200Y-73706666D02*
X137549819Y-73611428D01*
X137549819Y-73611428D02*
X137549819Y-73373333D01*
X137549819Y-73373333D02*
X137502200Y-73278095D01*
X137502200Y-73278095D02*
X137454580Y-73230476D01*
X338299819Y-64363333D02*
X337823628Y-64030000D01*
X338299819Y-63791905D02*
X337299819Y-63791905D01*
X337299819Y-63791905D02*
X337299819Y-64172857D01*
X337299819Y-64172857D02*
X337347438Y-64268095D01*
X337347438Y-64268095D02*
X337395057Y-64315714D01*
X337395057Y-64315714D02*
X337490295Y-64363333D01*
X337490295Y-64363333D02*
X337633152Y-64363333D01*
X337633152Y-64363333D02*
X337728390Y-64315714D01*
X337728390Y-64315714D02*
X337776009Y-64268095D01*
X337776009Y-64268095D02*
X337823628Y-64172857D01*
X337823628Y-64172857D02*
X337823628Y-63791905D01*
X337299819Y-65220476D02*
X337299819Y-65030000D01*
X337299819Y-65030000D02*
X337347438Y-64934762D01*
X337347438Y-64934762D02*
X337395057Y-64887143D01*
X337395057Y-64887143D02*
X337537914Y-64791905D01*
X337537914Y-64791905D02*
X337728390Y-64744286D01*
X337728390Y-64744286D02*
X338109342Y-64744286D01*
X338109342Y-64744286D02*
X338204580Y-64791905D01*
X338204580Y-64791905D02*
X338252200Y-64839524D01*
X338252200Y-64839524D02*
X338299819Y-64934762D01*
X338299819Y-64934762D02*
X338299819Y-65125238D01*
X338299819Y-65125238D02*
X338252200Y-65220476D01*
X338252200Y-65220476D02*
X338204580Y-65268095D01*
X338204580Y-65268095D02*
X338109342Y-65315714D01*
X338109342Y-65315714D02*
X337871247Y-65315714D01*
X337871247Y-65315714D02*
X337776009Y-65268095D01*
X337776009Y-65268095D02*
X337728390Y-65220476D01*
X337728390Y-65220476D02*
X337680771Y-65125238D01*
X337680771Y-65125238D02*
X337680771Y-64934762D01*
X337680771Y-64934762D02*
X337728390Y-64839524D01*
X337728390Y-64839524D02*
X337776009Y-64791905D01*
X337776009Y-64791905D02*
X337871247Y-64744286D01*
X72549819Y-110325714D02*
X71549819Y-110325714D01*
X71549819Y-110325714D02*
X71549819Y-110563809D01*
X71549819Y-110563809D02*
X71597438Y-110706666D01*
X71597438Y-110706666D02*
X71692676Y-110801904D01*
X71692676Y-110801904D02*
X71787914Y-110849523D01*
X71787914Y-110849523D02*
X71978390Y-110897142D01*
X71978390Y-110897142D02*
X72121247Y-110897142D01*
X72121247Y-110897142D02*
X72311723Y-110849523D01*
X72311723Y-110849523D02*
X72406961Y-110801904D01*
X72406961Y-110801904D02*
X72502200Y-110706666D01*
X72502200Y-110706666D02*
X72549819Y-110563809D01*
X72549819Y-110563809D02*
X72549819Y-110325714D01*
X72549819Y-111849523D02*
X72549819Y-111278095D01*
X72549819Y-111563809D02*
X71549819Y-111563809D01*
X71549819Y-111563809D02*
X71692676Y-111468571D01*
X71692676Y-111468571D02*
X71787914Y-111373333D01*
X71787914Y-111373333D02*
X71835533Y-111278095D01*
X71549819Y-112182857D02*
X71549819Y-112801904D01*
X71549819Y-112801904D02*
X71930771Y-112468571D01*
X71930771Y-112468571D02*
X71930771Y-112611428D01*
X71930771Y-112611428D02*
X71978390Y-112706666D01*
X71978390Y-112706666D02*
X72026009Y-112754285D01*
X72026009Y-112754285D02*
X72121247Y-112801904D01*
X72121247Y-112801904D02*
X72359342Y-112801904D01*
X72359342Y-112801904D02*
X72454580Y-112754285D01*
X72454580Y-112754285D02*
X72502200Y-112706666D01*
X72502200Y-112706666D02*
X72549819Y-112611428D01*
X72549819Y-112611428D02*
X72549819Y-112325714D01*
X72549819Y-112325714D02*
X72502200Y-112230476D01*
X72502200Y-112230476D02*
X72454580Y-112182857D01*
X118049819Y-71325714D02*
X117049819Y-71325714D01*
X117049819Y-71325714D02*
X117049819Y-71563809D01*
X117049819Y-71563809D02*
X117097438Y-71706666D01*
X117097438Y-71706666D02*
X117192676Y-71801904D01*
X117192676Y-71801904D02*
X117287914Y-71849523D01*
X117287914Y-71849523D02*
X117478390Y-71897142D01*
X117478390Y-71897142D02*
X117621247Y-71897142D01*
X117621247Y-71897142D02*
X117811723Y-71849523D01*
X117811723Y-71849523D02*
X117906961Y-71801904D01*
X117906961Y-71801904D02*
X118002200Y-71706666D01*
X118002200Y-71706666D02*
X118049819Y-71563809D01*
X118049819Y-71563809D02*
X118049819Y-71325714D01*
X117145057Y-72278095D02*
X117097438Y-72325714D01*
X117097438Y-72325714D02*
X117049819Y-72420952D01*
X117049819Y-72420952D02*
X117049819Y-72659047D01*
X117049819Y-72659047D02*
X117097438Y-72754285D01*
X117097438Y-72754285D02*
X117145057Y-72801904D01*
X117145057Y-72801904D02*
X117240295Y-72849523D01*
X117240295Y-72849523D02*
X117335533Y-72849523D01*
X117335533Y-72849523D02*
X117478390Y-72801904D01*
X117478390Y-72801904D02*
X118049819Y-72230476D01*
X118049819Y-72230476D02*
X118049819Y-72849523D01*
X117049819Y-73182857D02*
X117049819Y-73849523D01*
X117049819Y-73849523D02*
X118049819Y-73420952D01*
X50049819Y-52301905D02*
X49049819Y-52301905D01*
X49049819Y-52301905D02*
X49049819Y-52540000D01*
X49049819Y-52540000D02*
X49097438Y-52682857D01*
X49097438Y-52682857D02*
X49192676Y-52778095D01*
X49192676Y-52778095D02*
X49287914Y-52825714D01*
X49287914Y-52825714D02*
X49478390Y-52873333D01*
X49478390Y-52873333D02*
X49621247Y-52873333D01*
X49621247Y-52873333D02*
X49811723Y-52825714D01*
X49811723Y-52825714D02*
X49906961Y-52778095D01*
X49906961Y-52778095D02*
X50002200Y-52682857D01*
X50002200Y-52682857D02*
X50049819Y-52540000D01*
X50049819Y-52540000D02*
X50049819Y-52301905D01*
X49145057Y-53254286D02*
X49097438Y-53301905D01*
X49097438Y-53301905D02*
X49049819Y-53397143D01*
X49049819Y-53397143D02*
X49049819Y-53635238D01*
X49049819Y-53635238D02*
X49097438Y-53730476D01*
X49097438Y-53730476D02*
X49145057Y-53778095D01*
X49145057Y-53778095D02*
X49240295Y-53825714D01*
X49240295Y-53825714D02*
X49335533Y-53825714D01*
X49335533Y-53825714D02*
X49478390Y-53778095D01*
X49478390Y-53778095D02*
X50049819Y-53206667D01*
X50049819Y-53206667D02*
X50049819Y-53825714D01*
X196049819Y-71388214D02*
X195049819Y-71388214D01*
X195049819Y-71388214D02*
X195049819Y-71626309D01*
X195049819Y-71626309D02*
X195097438Y-71769166D01*
X195097438Y-71769166D02*
X195192676Y-71864404D01*
X195192676Y-71864404D02*
X195287914Y-71912023D01*
X195287914Y-71912023D02*
X195478390Y-71959642D01*
X195478390Y-71959642D02*
X195621247Y-71959642D01*
X195621247Y-71959642D02*
X195811723Y-71912023D01*
X195811723Y-71912023D02*
X195906961Y-71864404D01*
X195906961Y-71864404D02*
X196002200Y-71769166D01*
X196002200Y-71769166D02*
X196049819Y-71626309D01*
X196049819Y-71626309D02*
X196049819Y-71388214D01*
X195049819Y-72864404D02*
X195049819Y-72388214D01*
X195049819Y-72388214D02*
X195526009Y-72340595D01*
X195526009Y-72340595D02*
X195478390Y-72388214D01*
X195478390Y-72388214D02*
X195430771Y-72483452D01*
X195430771Y-72483452D02*
X195430771Y-72721547D01*
X195430771Y-72721547D02*
X195478390Y-72816785D01*
X195478390Y-72816785D02*
X195526009Y-72864404D01*
X195526009Y-72864404D02*
X195621247Y-72912023D01*
X195621247Y-72912023D02*
X195859342Y-72912023D01*
X195859342Y-72912023D02*
X195954580Y-72864404D01*
X195954580Y-72864404D02*
X196002200Y-72816785D01*
X196002200Y-72816785D02*
X196049819Y-72721547D01*
X196049819Y-72721547D02*
X196049819Y-72483452D01*
X196049819Y-72483452D02*
X196002200Y-72388214D01*
X196002200Y-72388214D02*
X195954580Y-72340595D01*
X196049819Y-73388214D02*
X196049819Y-73578690D01*
X196049819Y-73578690D02*
X196002200Y-73673928D01*
X196002200Y-73673928D02*
X195954580Y-73721547D01*
X195954580Y-73721547D02*
X195811723Y-73816785D01*
X195811723Y-73816785D02*
X195621247Y-73864404D01*
X195621247Y-73864404D02*
X195240295Y-73864404D01*
X195240295Y-73864404D02*
X195145057Y-73816785D01*
X195145057Y-73816785D02*
X195097438Y-73769166D01*
X195097438Y-73769166D02*
X195049819Y-73673928D01*
X195049819Y-73673928D02*
X195049819Y-73483452D01*
X195049819Y-73483452D02*
X195097438Y-73388214D01*
X195097438Y-73388214D02*
X195145057Y-73340595D01*
X195145057Y-73340595D02*
X195240295Y-73292976D01*
X195240295Y-73292976D02*
X195478390Y-73292976D01*
X195478390Y-73292976D02*
X195573628Y-73340595D01*
X195573628Y-73340595D02*
X195621247Y-73388214D01*
X195621247Y-73388214D02*
X195668866Y-73483452D01*
X195668866Y-73483452D02*
X195668866Y-73673928D01*
X195668866Y-73673928D02*
X195621247Y-73769166D01*
X195621247Y-73769166D02*
X195573628Y-73816785D01*
X195573628Y-73816785D02*
X195478390Y-73864404D01*
X259384819Y-110223214D02*
X258384819Y-110223214D01*
X258384819Y-110223214D02*
X258384819Y-110461309D01*
X258384819Y-110461309D02*
X258432438Y-110604166D01*
X258432438Y-110604166D02*
X258527676Y-110699404D01*
X258527676Y-110699404D02*
X258622914Y-110747023D01*
X258622914Y-110747023D02*
X258813390Y-110794642D01*
X258813390Y-110794642D02*
X258956247Y-110794642D01*
X258956247Y-110794642D02*
X259146723Y-110747023D01*
X259146723Y-110747023D02*
X259241961Y-110699404D01*
X259241961Y-110699404D02*
X259337200Y-110604166D01*
X259337200Y-110604166D02*
X259384819Y-110461309D01*
X259384819Y-110461309D02*
X259384819Y-110223214D01*
X258718152Y-111651785D02*
X259384819Y-111651785D01*
X258337200Y-111413690D02*
X259051485Y-111175595D01*
X259051485Y-111175595D02*
X259051485Y-111794642D01*
X258384819Y-112651785D02*
X258384819Y-112175595D01*
X258384819Y-112175595D02*
X258861009Y-112127976D01*
X258861009Y-112127976D02*
X258813390Y-112175595D01*
X258813390Y-112175595D02*
X258765771Y-112270833D01*
X258765771Y-112270833D02*
X258765771Y-112508928D01*
X258765771Y-112508928D02*
X258813390Y-112604166D01*
X258813390Y-112604166D02*
X258861009Y-112651785D01*
X258861009Y-112651785D02*
X258956247Y-112699404D01*
X258956247Y-112699404D02*
X259194342Y-112699404D01*
X259194342Y-112699404D02*
X259289580Y-112651785D01*
X259289580Y-112651785D02*
X259337200Y-112604166D01*
X259337200Y-112604166D02*
X259384819Y-112508928D01*
X259384819Y-112508928D02*
X259384819Y-112270833D01*
X259384819Y-112270833D02*
X259337200Y-112175595D01*
X259337200Y-112175595D02*
X259289580Y-112127976D01*
X298629819Y-90763214D02*
X297629819Y-90763214D01*
X297629819Y-90763214D02*
X297629819Y-91001309D01*
X297629819Y-91001309D02*
X297677438Y-91144166D01*
X297677438Y-91144166D02*
X297772676Y-91239404D01*
X297772676Y-91239404D02*
X297867914Y-91287023D01*
X297867914Y-91287023D02*
X298058390Y-91334642D01*
X298058390Y-91334642D02*
X298201247Y-91334642D01*
X298201247Y-91334642D02*
X298391723Y-91287023D01*
X298391723Y-91287023D02*
X298486961Y-91239404D01*
X298486961Y-91239404D02*
X298582200Y-91144166D01*
X298582200Y-91144166D02*
X298629819Y-91001309D01*
X298629819Y-91001309D02*
X298629819Y-90763214D01*
X297725057Y-91715595D02*
X297677438Y-91763214D01*
X297677438Y-91763214D02*
X297629819Y-91858452D01*
X297629819Y-91858452D02*
X297629819Y-92096547D01*
X297629819Y-92096547D02*
X297677438Y-92191785D01*
X297677438Y-92191785D02*
X297725057Y-92239404D01*
X297725057Y-92239404D02*
X297820295Y-92287023D01*
X297820295Y-92287023D02*
X297915533Y-92287023D01*
X297915533Y-92287023D02*
X298058390Y-92239404D01*
X298058390Y-92239404D02*
X298629819Y-91667976D01*
X298629819Y-91667976D02*
X298629819Y-92287023D01*
X297963152Y-93144166D02*
X298629819Y-93144166D01*
X297582200Y-92906071D02*
X298296485Y-92667976D01*
X298296485Y-92667976D02*
X298296485Y-93287023D01*
X343999819Y-51169642D02*
X343523628Y-50836309D01*
X343999819Y-50598214D02*
X342999819Y-50598214D01*
X342999819Y-50598214D02*
X342999819Y-50979166D01*
X342999819Y-50979166D02*
X343047438Y-51074404D01*
X343047438Y-51074404D02*
X343095057Y-51122023D01*
X343095057Y-51122023D02*
X343190295Y-51169642D01*
X343190295Y-51169642D02*
X343333152Y-51169642D01*
X343333152Y-51169642D02*
X343428390Y-51122023D01*
X343428390Y-51122023D02*
X343476009Y-51074404D01*
X343476009Y-51074404D02*
X343523628Y-50979166D01*
X343523628Y-50979166D02*
X343523628Y-50598214D01*
X343999819Y-52122023D02*
X343999819Y-51550595D01*
X343999819Y-51836309D02*
X342999819Y-51836309D01*
X342999819Y-51836309D02*
X343142676Y-51741071D01*
X343142676Y-51741071D02*
X343237914Y-51645833D01*
X343237914Y-51645833D02*
X343285533Y-51550595D01*
X343095057Y-52502976D02*
X343047438Y-52550595D01*
X343047438Y-52550595D02*
X342999819Y-52645833D01*
X342999819Y-52645833D02*
X342999819Y-52883928D01*
X342999819Y-52883928D02*
X343047438Y-52979166D01*
X343047438Y-52979166D02*
X343095057Y-53026785D01*
X343095057Y-53026785D02*
X343190295Y-53074404D01*
X343190295Y-53074404D02*
X343285533Y-53074404D01*
X343285533Y-53074404D02*
X343428390Y-53026785D01*
X343428390Y-53026785D02*
X343999819Y-52455357D01*
X343999819Y-52455357D02*
X343999819Y-53074404D01*
X235049819Y-71388214D02*
X234049819Y-71388214D01*
X234049819Y-71388214D02*
X234049819Y-71626309D01*
X234049819Y-71626309D02*
X234097438Y-71769166D01*
X234097438Y-71769166D02*
X234192676Y-71864404D01*
X234192676Y-71864404D02*
X234287914Y-71912023D01*
X234287914Y-71912023D02*
X234478390Y-71959642D01*
X234478390Y-71959642D02*
X234621247Y-71959642D01*
X234621247Y-71959642D02*
X234811723Y-71912023D01*
X234811723Y-71912023D02*
X234906961Y-71864404D01*
X234906961Y-71864404D02*
X235002200Y-71769166D01*
X235002200Y-71769166D02*
X235049819Y-71626309D01*
X235049819Y-71626309D02*
X235049819Y-71388214D01*
X234049819Y-72292976D02*
X234049819Y-72912023D01*
X234049819Y-72912023D02*
X234430771Y-72578690D01*
X234430771Y-72578690D02*
X234430771Y-72721547D01*
X234430771Y-72721547D02*
X234478390Y-72816785D01*
X234478390Y-72816785D02*
X234526009Y-72864404D01*
X234526009Y-72864404D02*
X234621247Y-72912023D01*
X234621247Y-72912023D02*
X234859342Y-72912023D01*
X234859342Y-72912023D02*
X234954580Y-72864404D01*
X234954580Y-72864404D02*
X235002200Y-72816785D01*
X235002200Y-72816785D02*
X235049819Y-72721547D01*
X235049819Y-72721547D02*
X235049819Y-72435833D01*
X235049819Y-72435833D02*
X235002200Y-72340595D01*
X235002200Y-72340595D02*
X234954580Y-72292976D01*
X235049819Y-73864404D02*
X235049819Y-73292976D01*
X235049819Y-73578690D02*
X234049819Y-73578690D01*
X234049819Y-73578690D02*
X234192676Y-73483452D01*
X234192676Y-73483452D02*
X234287914Y-73388214D01*
X234287914Y-73388214D02*
X234335533Y-73292976D01*
X176614819Y-71183214D02*
X175614819Y-71183214D01*
X175614819Y-71183214D02*
X175614819Y-71421309D01*
X175614819Y-71421309D02*
X175662438Y-71564166D01*
X175662438Y-71564166D02*
X175757676Y-71659404D01*
X175757676Y-71659404D02*
X175852914Y-71707023D01*
X175852914Y-71707023D02*
X176043390Y-71754642D01*
X176043390Y-71754642D02*
X176186247Y-71754642D01*
X176186247Y-71754642D02*
X176376723Y-71707023D01*
X176376723Y-71707023D02*
X176471961Y-71659404D01*
X176471961Y-71659404D02*
X176567200Y-71564166D01*
X176567200Y-71564166D02*
X176614819Y-71421309D01*
X176614819Y-71421309D02*
X176614819Y-71183214D01*
X175614819Y-72659404D02*
X175614819Y-72183214D01*
X175614819Y-72183214D02*
X176091009Y-72135595D01*
X176091009Y-72135595D02*
X176043390Y-72183214D01*
X176043390Y-72183214D02*
X175995771Y-72278452D01*
X175995771Y-72278452D02*
X175995771Y-72516547D01*
X175995771Y-72516547D02*
X176043390Y-72611785D01*
X176043390Y-72611785D02*
X176091009Y-72659404D01*
X176091009Y-72659404D02*
X176186247Y-72707023D01*
X176186247Y-72707023D02*
X176424342Y-72707023D01*
X176424342Y-72707023D02*
X176519580Y-72659404D01*
X176519580Y-72659404D02*
X176567200Y-72611785D01*
X176567200Y-72611785D02*
X176614819Y-72516547D01*
X176614819Y-72516547D02*
X176614819Y-72278452D01*
X176614819Y-72278452D02*
X176567200Y-72183214D01*
X176567200Y-72183214D02*
X176519580Y-72135595D01*
X176614819Y-73659404D02*
X176614819Y-73087976D01*
X176614819Y-73373690D02*
X175614819Y-73373690D01*
X175614819Y-73373690D02*
X175757676Y-73278452D01*
X175757676Y-73278452D02*
X175852914Y-73183214D01*
X175852914Y-73183214D02*
X175900533Y-73087976D01*
X84049819Y-90825714D02*
X83049819Y-90825714D01*
X83049819Y-90825714D02*
X83049819Y-91063809D01*
X83049819Y-91063809D02*
X83097438Y-91206666D01*
X83097438Y-91206666D02*
X83192676Y-91301904D01*
X83192676Y-91301904D02*
X83287914Y-91349523D01*
X83287914Y-91349523D02*
X83478390Y-91397142D01*
X83478390Y-91397142D02*
X83621247Y-91397142D01*
X83621247Y-91397142D02*
X83811723Y-91349523D01*
X83811723Y-91349523D02*
X83906961Y-91301904D01*
X83906961Y-91301904D02*
X84002200Y-91206666D01*
X84002200Y-91206666D02*
X84049819Y-91063809D01*
X84049819Y-91063809D02*
X84049819Y-90825714D01*
X84049819Y-92349523D02*
X84049819Y-91778095D01*
X84049819Y-92063809D02*
X83049819Y-92063809D01*
X83049819Y-92063809D02*
X83192676Y-91968571D01*
X83192676Y-91968571D02*
X83287914Y-91873333D01*
X83287914Y-91873333D02*
X83335533Y-91778095D01*
X83145057Y-92730476D02*
X83097438Y-92778095D01*
X83097438Y-92778095D02*
X83049819Y-92873333D01*
X83049819Y-92873333D02*
X83049819Y-93111428D01*
X83049819Y-93111428D02*
X83097438Y-93206666D01*
X83097438Y-93206666D02*
X83145057Y-93254285D01*
X83145057Y-93254285D02*
X83240295Y-93301904D01*
X83240295Y-93301904D02*
X83335533Y-93301904D01*
X83335533Y-93301904D02*
X83478390Y-93254285D01*
X83478390Y-93254285D02*
X84049819Y-92682857D01*
X84049819Y-92682857D02*
X84049819Y-93301904D01*
X94049819Y-51825714D02*
X93049819Y-51825714D01*
X93049819Y-51825714D02*
X93049819Y-52063809D01*
X93049819Y-52063809D02*
X93097438Y-52206666D01*
X93097438Y-52206666D02*
X93192676Y-52301904D01*
X93192676Y-52301904D02*
X93287914Y-52349523D01*
X93287914Y-52349523D02*
X93478390Y-52397142D01*
X93478390Y-52397142D02*
X93621247Y-52397142D01*
X93621247Y-52397142D02*
X93811723Y-52349523D01*
X93811723Y-52349523D02*
X93906961Y-52301904D01*
X93906961Y-52301904D02*
X94002200Y-52206666D01*
X94002200Y-52206666D02*
X94049819Y-52063809D01*
X94049819Y-52063809D02*
X94049819Y-51825714D01*
X94049819Y-53349523D02*
X94049819Y-52778095D01*
X94049819Y-53063809D02*
X93049819Y-53063809D01*
X93049819Y-53063809D02*
X93192676Y-52968571D01*
X93192676Y-52968571D02*
X93287914Y-52873333D01*
X93287914Y-52873333D02*
X93335533Y-52778095D01*
X93478390Y-53920952D02*
X93430771Y-53825714D01*
X93430771Y-53825714D02*
X93383152Y-53778095D01*
X93383152Y-53778095D02*
X93287914Y-53730476D01*
X93287914Y-53730476D02*
X93240295Y-53730476D01*
X93240295Y-53730476D02*
X93145057Y-53778095D01*
X93145057Y-53778095D02*
X93097438Y-53825714D01*
X93097438Y-53825714D02*
X93049819Y-53920952D01*
X93049819Y-53920952D02*
X93049819Y-54111428D01*
X93049819Y-54111428D02*
X93097438Y-54206666D01*
X93097438Y-54206666D02*
X93145057Y-54254285D01*
X93145057Y-54254285D02*
X93240295Y-54301904D01*
X93240295Y-54301904D02*
X93287914Y-54301904D01*
X93287914Y-54301904D02*
X93383152Y-54254285D01*
X93383152Y-54254285D02*
X93430771Y-54206666D01*
X93430771Y-54206666D02*
X93478390Y-54111428D01*
X93478390Y-54111428D02*
X93478390Y-53920952D01*
X93478390Y-53920952D02*
X93526009Y-53825714D01*
X93526009Y-53825714D02*
X93573628Y-53778095D01*
X93573628Y-53778095D02*
X93668866Y-53730476D01*
X93668866Y-53730476D02*
X93859342Y-53730476D01*
X93859342Y-53730476D02*
X93954580Y-53778095D01*
X93954580Y-53778095D02*
X94002200Y-53825714D01*
X94002200Y-53825714D02*
X94049819Y-53920952D01*
X94049819Y-53920952D02*
X94049819Y-54111428D01*
X94049819Y-54111428D02*
X94002200Y-54206666D01*
X94002200Y-54206666D02*
X93954580Y-54254285D01*
X93954580Y-54254285D02*
X93859342Y-54301904D01*
X93859342Y-54301904D02*
X93668866Y-54301904D01*
X93668866Y-54301904D02*
X93573628Y-54254285D01*
X93573628Y-54254285D02*
X93526009Y-54206666D01*
X93526009Y-54206666D02*
X93478390Y-54111428D01*
X297549819Y-64263214D02*
X296549819Y-64263214D01*
X296549819Y-64263214D02*
X296549819Y-64501309D01*
X296549819Y-64501309D02*
X296597438Y-64644166D01*
X296597438Y-64644166D02*
X296692676Y-64739404D01*
X296692676Y-64739404D02*
X296787914Y-64787023D01*
X296787914Y-64787023D02*
X296978390Y-64834642D01*
X296978390Y-64834642D02*
X297121247Y-64834642D01*
X297121247Y-64834642D02*
X297311723Y-64787023D01*
X297311723Y-64787023D02*
X297406961Y-64739404D01*
X297406961Y-64739404D02*
X297502200Y-64644166D01*
X297502200Y-64644166D02*
X297549819Y-64501309D01*
X297549819Y-64501309D02*
X297549819Y-64263214D01*
X296549819Y-65691785D02*
X296549819Y-65501309D01*
X296549819Y-65501309D02*
X296597438Y-65406071D01*
X296597438Y-65406071D02*
X296645057Y-65358452D01*
X296645057Y-65358452D02*
X296787914Y-65263214D01*
X296787914Y-65263214D02*
X296978390Y-65215595D01*
X296978390Y-65215595D02*
X297359342Y-65215595D01*
X297359342Y-65215595D02*
X297454580Y-65263214D01*
X297454580Y-65263214D02*
X297502200Y-65310833D01*
X297502200Y-65310833D02*
X297549819Y-65406071D01*
X297549819Y-65406071D02*
X297549819Y-65596547D01*
X297549819Y-65596547D02*
X297502200Y-65691785D01*
X297502200Y-65691785D02*
X297454580Y-65739404D01*
X297454580Y-65739404D02*
X297359342Y-65787023D01*
X297359342Y-65787023D02*
X297121247Y-65787023D01*
X297121247Y-65787023D02*
X297026009Y-65739404D01*
X297026009Y-65739404D02*
X296978390Y-65691785D01*
X296978390Y-65691785D02*
X296930771Y-65596547D01*
X296930771Y-65596547D02*
X296930771Y-65406071D01*
X296930771Y-65406071D02*
X296978390Y-65310833D01*
X296978390Y-65310833D02*
X297026009Y-65263214D01*
X297026009Y-65263214D02*
X297121247Y-65215595D01*
X296549819Y-66120357D02*
X296549819Y-66739404D01*
X296549819Y-66739404D02*
X296930771Y-66406071D01*
X296930771Y-66406071D02*
X296930771Y-66548928D01*
X296930771Y-66548928D02*
X296978390Y-66644166D01*
X296978390Y-66644166D02*
X297026009Y-66691785D01*
X297026009Y-66691785D02*
X297121247Y-66739404D01*
X297121247Y-66739404D02*
X297359342Y-66739404D01*
X297359342Y-66739404D02*
X297454580Y-66691785D01*
X297454580Y-66691785D02*
X297502200Y-66644166D01*
X297502200Y-66644166D02*
X297549819Y-66548928D01*
X297549819Y-66548928D02*
X297549819Y-66263214D01*
X297549819Y-66263214D02*
X297502200Y-66167976D01*
X297502200Y-66167976D02*
X297454580Y-66120357D01*
X191399819Y-51888214D02*
X190399819Y-51888214D01*
X190399819Y-51888214D02*
X190399819Y-52126309D01*
X190399819Y-52126309D02*
X190447438Y-52269166D01*
X190447438Y-52269166D02*
X190542676Y-52364404D01*
X190542676Y-52364404D02*
X190637914Y-52412023D01*
X190637914Y-52412023D02*
X190828390Y-52459642D01*
X190828390Y-52459642D02*
X190971247Y-52459642D01*
X190971247Y-52459642D02*
X191161723Y-52412023D01*
X191161723Y-52412023D02*
X191256961Y-52364404D01*
X191256961Y-52364404D02*
X191352200Y-52269166D01*
X191352200Y-52269166D02*
X191399819Y-52126309D01*
X191399819Y-52126309D02*
X191399819Y-51888214D01*
X190399819Y-53364404D02*
X190399819Y-52888214D01*
X190399819Y-52888214D02*
X190876009Y-52840595D01*
X190876009Y-52840595D02*
X190828390Y-52888214D01*
X190828390Y-52888214D02*
X190780771Y-52983452D01*
X190780771Y-52983452D02*
X190780771Y-53221547D01*
X190780771Y-53221547D02*
X190828390Y-53316785D01*
X190828390Y-53316785D02*
X190876009Y-53364404D01*
X190876009Y-53364404D02*
X190971247Y-53412023D01*
X190971247Y-53412023D02*
X191209342Y-53412023D01*
X191209342Y-53412023D02*
X191304580Y-53364404D01*
X191304580Y-53364404D02*
X191352200Y-53316785D01*
X191352200Y-53316785D02*
X191399819Y-53221547D01*
X191399819Y-53221547D02*
X191399819Y-52983452D01*
X191399819Y-52983452D02*
X191352200Y-52888214D01*
X191352200Y-52888214D02*
X191304580Y-52840595D01*
X190828390Y-53983452D02*
X190780771Y-53888214D01*
X190780771Y-53888214D02*
X190733152Y-53840595D01*
X190733152Y-53840595D02*
X190637914Y-53792976D01*
X190637914Y-53792976D02*
X190590295Y-53792976D01*
X190590295Y-53792976D02*
X190495057Y-53840595D01*
X190495057Y-53840595D02*
X190447438Y-53888214D01*
X190447438Y-53888214D02*
X190399819Y-53983452D01*
X190399819Y-53983452D02*
X190399819Y-54173928D01*
X190399819Y-54173928D02*
X190447438Y-54269166D01*
X190447438Y-54269166D02*
X190495057Y-54316785D01*
X190495057Y-54316785D02*
X190590295Y-54364404D01*
X190590295Y-54364404D02*
X190637914Y-54364404D01*
X190637914Y-54364404D02*
X190733152Y-54316785D01*
X190733152Y-54316785D02*
X190780771Y-54269166D01*
X190780771Y-54269166D02*
X190828390Y-54173928D01*
X190828390Y-54173928D02*
X190828390Y-53983452D01*
X190828390Y-53983452D02*
X190876009Y-53888214D01*
X190876009Y-53888214D02*
X190923628Y-53840595D01*
X190923628Y-53840595D02*
X191018866Y-53792976D01*
X191018866Y-53792976D02*
X191209342Y-53792976D01*
X191209342Y-53792976D02*
X191304580Y-53840595D01*
X191304580Y-53840595D02*
X191352200Y-53888214D01*
X191352200Y-53888214D02*
X191399819Y-53983452D01*
X191399819Y-53983452D02*
X191399819Y-54173928D01*
X191399819Y-54173928D02*
X191352200Y-54269166D01*
X191352200Y-54269166D02*
X191304580Y-54316785D01*
X191304580Y-54316785D02*
X191209342Y-54364404D01*
X191209342Y-54364404D02*
X191018866Y-54364404D01*
X191018866Y-54364404D02*
X190923628Y-54316785D01*
X190923628Y-54316785D02*
X190876009Y-54269166D01*
X190876009Y-54269166D02*
X190828390Y-54173928D01*
X289614819Y-32255714D02*
X288614819Y-32255714D01*
X288614819Y-32255714D02*
X288614819Y-32493809D01*
X288614819Y-32493809D02*
X288662438Y-32636666D01*
X288662438Y-32636666D02*
X288757676Y-32731904D01*
X288757676Y-32731904D02*
X288852914Y-32779523D01*
X288852914Y-32779523D02*
X289043390Y-32827142D01*
X289043390Y-32827142D02*
X289186247Y-32827142D01*
X289186247Y-32827142D02*
X289376723Y-32779523D01*
X289376723Y-32779523D02*
X289471961Y-32731904D01*
X289471961Y-32731904D02*
X289567200Y-32636666D01*
X289567200Y-32636666D02*
X289614819Y-32493809D01*
X289614819Y-32493809D02*
X289614819Y-32255714D01*
X288614819Y-33684285D02*
X288614819Y-33493809D01*
X288614819Y-33493809D02*
X288662438Y-33398571D01*
X288662438Y-33398571D02*
X288710057Y-33350952D01*
X288710057Y-33350952D02*
X288852914Y-33255714D01*
X288852914Y-33255714D02*
X289043390Y-33208095D01*
X289043390Y-33208095D02*
X289424342Y-33208095D01*
X289424342Y-33208095D02*
X289519580Y-33255714D01*
X289519580Y-33255714D02*
X289567200Y-33303333D01*
X289567200Y-33303333D02*
X289614819Y-33398571D01*
X289614819Y-33398571D02*
X289614819Y-33589047D01*
X289614819Y-33589047D02*
X289567200Y-33684285D01*
X289567200Y-33684285D02*
X289519580Y-33731904D01*
X289519580Y-33731904D02*
X289424342Y-33779523D01*
X289424342Y-33779523D02*
X289186247Y-33779523D01*
X289186247Y-33779523D02*
X289091009Y-33731904D01*
X289091009Y-33731904D02*
X289043390Y-33684285D01*
X289043390Y-33684285D02*
X288995771Y-33589047D01*
X288995771Y-33589047D02*
X288995771Y-33398571D01*
X288995771Y-33398571D02*
X289043390Y-33303333D01*
X289043390Y-33303333D02*
X289091009Y-33255714D01*
X289091009Y-33255714D02*
X289186247Y-33208095D01*
X288710057Y-34160476D02*
X288662438Y-34208095D01*
X288662438Y-34208095D02*
X288614819Y-34303333D01*
X288614819Y-34303333D02*
X288614819Y-34541428D01*
X288614819Y-34541428D02*
X288662438Y-34636666D01*
X288662438Y-34636666D02*
X288710057Y-34684285D01*
X288710057Y-34684285D02*
X288805295Y-34731904D01*
X288805295Y-34731904D02*
X288900533Y-34731904D01*
X288900533Y-34731904D02*
X289043390Y-34684285D01*
X289043390Y-34684285D02*
X289614819Y-34112857D01*
X289614819Y-34112857D02*
X289614819Y-34731904D01*
X331034819Y-51263214D02*
X330034819Y-51263214D01*
X330034819Y-51263214D02*
X330034819Y-51501309D01*
X330034819Y-51501309D02*
X330082438Y-51644166D01*
X330082438Y-51644166D02*
X330177676Y-51739404D01*
X330177676Y-51739404D02*
X330272914Y-51787023D01*
X330272914Y-51787023D02*
X330463390Y-51834642D01*
X330463390Y-51834642D02*
X330606247Y-51834642D01*
X330606247Y-51834642D02*
X330796723Y-51787023D01*
X330796723Y-51787023D02*
X330891961Y-51739404D01*
X330891961Y-51739404D02*
X330987200Y-51644166D01*
X330987200Y-51644166D02*
X331034819Y-51501309D01*
X331034819Y-51501309D02*
X331034819Y-51263214D01*
X330034819Y-52739404D02*
X330034819Y-52263214D01*
X330034819Y-52263214D02*
X330511009Y-52215595D01*
X330511009Y-52215595D02*
X330463390Y-52263214D01*
X330463390Y-52263214D02*
X330415771Y-52358452D01*
X330415771Y-52358452D02*
X330415771Y-52596547D01*
X330415771Y-52596547D02*
X330463390Y-52691785D01*
X330463390Y-52691785D02*
X330511009Y-52739404D01*
X330511009Y-52739404D02*
X330606247Y-52787023D01*
X330606247Y-52787023D02*
X330844342Y-52787023D01*
X330844342Y-52787023D02*
X330939580Y-52739404D01*
X330939580Y-52739404D02*
X330987200Y-52691785D01*
X330987200Y-52691785D02*
X331034819Y-52596547D01*
X331034819Y-52596547D02*
X331034819Y-52358452D01*
X331034819Y-52358452D02*
X330987200Y-52263214D01*
X330987200Y-52263214D02*
X330939580Y-52215595D01*
X330034819Y-53644166D02*
X330034819Y-53453690D01*
X330034819Y-53453690D02*
X330082438Y-53358452D01*
X330082438Y-53358452D02*
X330130057Y-53310833D01*
X330130057Y-53310833D02*
X330272914Y-53215595D01*
X330272914Y-53215595D02*
X330463390Y-53167976D01*
X330463390Y-53167976D02*
X330844342Y-53167976D01*
X330844342Y-53167976D02*
X330939580Y-53215595D01*
X330939580Y-53215595D02*
X330987200Y-53263214D01*
X330987200Y-53263214D02*
X331034819Y-53358452D01*
X331034819Y-53358452D02*
X331034819Y-53548928D01*
X331034819Y-53548928D02*
X330987200Y-53644166D01*
X330987200Y-53644166D02*
X330939580Y-53691785D01*
X330939580Y-53691785D02*
X330844342Y-53739404D01*
X330844342Y-53739404D02*
X330606247Y-53739404D01*
X330606247Y-53739404D02*
X330511009Y-53691785D01*
X330511009Y-53691785D02*
X330463390Y-53644166D01*
X330463390Y-53644166D02*
X330415771Y-53548928D01*
X330415771Y-53548928D02*
X330415771Y-53358452D01*
X330415771Y-53358452D02*
X330463390Y-53263214D01*
X330463390Y-53263214D02*
X330511009Y-53215595D01*
X330511009Y-53215595D02*
X330606247Y-53167976D01*
X162549819Y-32263214D02*
X161549819Y-32263214D01*
X161549819Y-32263214D02*
X161549819Y-32501309D01*
X161549819Y-32501309D02*
X161597438Y-32644166D01*
X161597438Y-32644166D02*
X161692676Y-32739404D01*
X161692676Y-32739404D02*
X161787914Y-32787023D01*
X161787914Y-32787023D02*
X161978390Y-32834642D01*
X161978390Y-32834642D02*
X162121247Y-32834642D01*
X162121247Y-32834642D02*
X162311723Y-32787023D01*
X162311723Y-32787023D02*
X162406961Y-32739404D01*
X162406961Y-32739404D02*
X162502200Y-32644166D01*
X162502200Y-32644166D02*
X162549819Y-32501309D01*
X162549819Y-32501309D02*
X162549819Y-32263214D01*
X161883152Y-33691785D02*
X162549819Y-33691785D01*
X161502200Y-33453690D02*
X162216485Y-33215595D01*
X162216485Y-33215595D02*
X162216485Y-33834642D01*
X162549819Y-34263214D02*
X162549819Y-34453690D01*
X162549819Y-34453690D02*
X162502200Y-34548928D01*
X162502200Y-34548928D02*
X162454580Y-34596547D01*
X162454580Y-34596547D02*
X162311723Y-34691785D01*
X162311723Y-34691785D02*
X162121247Y-34739404D01*
X162121247Y-34739404D02*
X161740295Y-34739404D01*
X161740295Y-34739404D02*
X161645057Y-34691785D01*
X161645057Y-34691785D02*
X161597438Y-34644166D01*
X161597438Y-34644166D02*
X161549819Y-34548928D01*
X161549819Y-34548928D02*
X161549819Y-34358452D01*
X161549819Y-34358452D02*
X161597438Y-34263214D01*
X161597438Y-34263214D02*
X161645057Y-34215595D01*
X161645057Y-34215595D02*
X161740295Y-34167976D01*
X161740295Y-34167976D02*
X161978390Y-34167976D01*
X161978390Y-34167976D02*
X162073628Y-34215595D01*
X162073628Y-34215595D02*
X162121247Y-34263214D01*
X162121247Y-34263214D02*
X162168866Y-34358452D01*
X162168866Y-34358452D02*
X162168866Y-34548928D01*
X162168866Y-34548928D02*
X162121247Y-34644166D01*
X162121247Y-34644166D02*
X162073628Y-34691785D01*
X162073628Y-34691785D02*
X161978390Y-34739404D01*
X331034819Y-110325714D02*
X330034819Y-110325714D01*
X330034819Y-110325714D02*
X330034819Y-110563809D01*
X330034819Y-110563809D02*
X330082438Y-110706666D01*
X330082438Y-110706666D02*
X330177676Y-110801904D01*
X330177676Y-110801904D02*
X330272914Y-110849523D01*
X330272914Y-110849523D02*
X330463390Y-110897142D01*
X330463390Y-110897142D02*
X330606247Y-110897142D01*
X330606247Y-110897142D02*
X330796723Y-110849523D01*
X330796723Y-110849523D02*
X330891961Y-110801904D01*
X330891961Y-110801904D02*
X330987200Y-110706666D01*
X330987200Y-110706666D02*
X331034819Y-110563809D01*
X331034819Y-110563809D02*
X331034819Y-110325714D01*
X330034819Y-111230476D02*
X330034819Y-111849523D01*
X330034819Y-111849523D02*
X330415771Y-111516190D01*
X330415771Y-111516190D02*
X330415771Y-111659047D01*
X330415771Y-111659047D02*
X330463390Y-111754285D01*
X330463390Y-111754285D02*
X330511009Y-111801904D01*
X330511009Y-111801904D02*
X330606247Y-111849523D01*
X330606247Y-111849523D02*
X330844342Y-111849523D01*
X330844342Y-111849523D02*
X330939580Y-111801904D01*
X330939580Y-111801904D02*
X330987200Y-111754285D01*
X330987200Y-111754285D02*
X331034819Y-111659047D01*
X331034819Y-111659047D02*
X331034819Y-111373333D01*
X331034819Y-111373333D02*
X330987200Y-111278095D01*
X330987200Y-111278095D02*
X330939580Y-111230476D01*
X330130057Y-112230476D02*
X330082438Y-112278095D01*
X330082438Y-112278095D02*
X330034819Y-112373333D01*
X330034819Y-112373333D02*
X330034819Y-112611428D01*
X330034819Y-112611428D02*
X330082438Y-112706666D01*
X330082438Y-112706666D02*
X330130057Y-112754285D01*
X330130057Y-112754285D02*
X330225295Y-112801904D01*
X330225295Y-112801904D02*
X330320533Y-112801904D01*
X330320533Y-112801904D02*
X330463390Y-112754285D01*
X330463390Y-112754285D02*
X331034819Y-112182857D01*
X331034819Y-112182857D02*
X331034819Y-112801904D01*
X338799819Y-36082142D02*
X338323628Y-35748809D01*
X338799819Y-35510714D02*
X337799819Y-35510714D01*
X337799819Y-35510714D02*
X337799819Y-35891666D01*
X337799819Y-35891666D02*
X337847438Y-35986904D01*
X337847438Y-35986904D02*
X337895057Y-36034523D01*
X337895057Y-36034523D02*
X337990295Y-36082142D01*
X337990295Y-36082142D02*
X338133152Y-36082142D01*
X338133152Y-36082142D02*
X338228390Y-36034523D01*
X338228390Y-36034523D02*
X338276009Y-35986904D01*
X338276009Y-35986904D02*
X338323628Y-35891666D01*
X338323628Y-35891666D02*
X338323628Y-35510714D01*
X338799819Y-37034523D02*
X338799819Y-36463095D01*
X338799819Y-36748809D02*
X337799819Y-36748809D01*
X337799819Y-36748809D02*
X337942676Y-36653571D01*
X337942676Y-36653571D02*
X338037914Y-36558333D01*
X338037914Y-36558333D02*
X338085533Y-36463095D01*
X337799819Y-37367857D02*
X337799819Y-38034523D01*
X337799819Y-38034523D02*
X338799819Y-37605952D01*
X340399819Y-79299642D02*
X339923628Y-78966309D01*
X340399819Y-78728214D02*
X339399819Y-78728214D01*
X339399819Y-78728214D02*
X339399819Y-79109166D01*
X339399819Y-79109166D02*
X339447438Y-79204404D01*
X339447438Y-79204404D02*
X339495057Y-79252023D01*
X339495057Y-79252023D02*
X339590295Y-79299642D01*
X339590295Y-79299642D02*
X339733152Y-79299642D01*
X339733152Y-79299642D02*
X339828390Y-79252023D01*
X339828390Y-79252023D02*
X339876009Y-79204404D01*
X339876009Y-79204404D02*
X339923628Y-79109166D01*
X339923628Y-79109166D02*
X339923628Y-78728214D01*
X340399819Y-80252023D02*
X340399819Y-79680595D01*
X340399819Y-79966309D02*
X339399819Y-79966309D01*
X339399819Y-79966309D02*
X339542676Y-79871071D01*
X339542676Y-79871071D02*
X339637914Y-79775833D01*
X339637914Y-79775833D02*
X339685533Y-79680595D01*
X339399819Y-80871071D02*
X339399819Y-80966309D01*
X339399819Y-80966309D02*
X339447438Y-81061547D01*
X339447438Y-81061547D02*
X339495057Y-81109166D01*
X339495057Y-81109166D02*
X339590295Y-81156785D01*
X339590295Y-81156785D02*
X339780771Y-81204404D01*
X339780771Y-81204404D02*
X340018866Y-81204404D01*
X340018866Y-81204404D02*
X340209342Y-81156785D01*
X340209342Y-81156785D02*
X340304580Y-81109166D01*
X340304580Y-81109166D02*
X340352200Y-81061547D01*
X340352200Y-81061547D02*
X340399819Y-80966309D01*
X340399819Y-80966309D02*
X340399819Y-80871071D01*
X340399819Y-80871071D02*
X340352200Y-80775833D01*
X340352200Y-80775833D02*
X340304580Y-80728214D01*
X340304580Y-80728214D02*
X340209342Y-80680595D01*
X340209342Y-80680595D02*
X340018866Y-80632976D01*
X340018866Y-80632976D02*
X339780771Y-80632976D01*
X339780771Y-80632976D02*
X339590295Y-80680595D01*
X339590295Y-80680595D02*
X339495057Y-80728214D01*
X339495057Y-80728214D02*
X339447438Y-80775833D01*
X339447438Y-80775833D02*
X339399819Y-80871071D01*
X98549819Y-71325714D02*
X97549819Y-71325714D01*
X97549819Y-71325714D02*
X97549819Y-71563809D01*
X97549819Y-71563809D02*
X97597438Y-71706666D01*
X97597438Y-71706666D02*
X97692676Y-71801904D01*
X97692676Y-71801904D02*
X97787914Y-71849523D01*
X97787914Y-71849523D02*
X97978390Y-71897142D01*
X97978390Y-71897142D02*
X98121247Y-71897142D01*
X98121247Y-71897142D02*
X98311723Y-71849523D01*
X98311723Y-71849523D02*
X98406961Y-71801904D01*
X98406961Y-71801904D02*
X98502200Y-71706666D01*
X98502200Y-71706666D02*
X98549819Y-71563809D01*
X98549819Y-71563809D02*
X98549819Y-71325714D01*
X98549819Y-72849523D02*
X98549819Y-72278095D01*
X98549819Y-72563809D02*
X97549819Y-72563809D01*
X97549819Y-72563809D02*
X97692676Y-72468571D01*
X97692676Y-72468571D02*
X97787914Y-72373333D01*
X97787914Y-72373333D02*
X97835533Y-72278095D01*
X98549819Y-73325714D02*
X98549819Y-73516190D01*
X98549819Y-73516190D02*
X98502200Y-73611428D01*
X98502200Y-73611428D02*
X98454580Y-73659047D01*
X98454580Y-73659047D02*
X98311723Y-73754285D01*
X98311723Y-73754285D02*
X98121247Y-73801904D01*
X98121247Y-73801904D02*
X97740295Y-73801904D01*
X97740295Y-73801904D02*
X97645057Y-73754285D01*
X97645057Y-73754285D02*
X97597438Y-73706666D01*
X97597438Y-73706666D02*
X97549819Y-73611428D01*
X97549819Y-73611428D02*
X97549819Y-73420952D01*
X97549819Y-73420952D02*
X97597438Y-73325714D01*
X97597438Y-73325714D02*
X97645057Y-73278095D01*
X97645057Y-73278095D02*
X97740295Y-73230476D01*
X97740295Y-73230476D02*
X97978390Y-73230476D01*
X97978390Y-73230476D02*
X98073628Y-73278095D01*
X98073628Y-73278095D02*
X98121247Y-73325714D01*
X98121247Y-73325714D02*
X98168866Y-73420952D01*
X98168866Y-73420952D02*
X98168866Y-73611428D01*
X98168866Y-73611428D02*
X98121247Y-73706666D01*
X98121247Y-73706666D02*
X98073628Y-73754285D01*
X98073628Y-73754285D02*
X97978390Y-73801904D01*
X162049819Y-90888214D02*
X161049819Y-90888214D01*
X161049819Y-90888214D02*
X161049819Y-91126309D01*
X161049819Y-91126309D02*
X161097438Y-91269166D01*
X161097438Y-91269166D02*
X161192676Y-91364404D01*
X161192676Y-91364404D02*
X161287914Y-91412023D01*
X161287914Y-91412023D02*
X161478390Y-91459642D01*
X161478390Y-91459642D02*
X161621247Y-91459642D01*
X161621247Y-91459642D02*
X161811723Y-91412023D01*
X161811723Y-91412023D02*
X161906961Y-91364404D01*
X161906961Y-91364404D02*
X162002200Y-91269166D01*
X162002200Y-91269166D02*
X162049819Y-91126309D01*
X162049819Y-91126309D02*
X162049819Y-90888214D01*
X161383152Y-92316785D02*
X162049819Y-92316785D01*
X161002200Y-92078690D02*
X161716485Y-91840595D01*
X161716485Y-91840595D02*
X161716485Y-92459642D01*
X161383152Y-93269166D02*
X162049819Y-93269166D01*
X161002200Y-93031071D02*
X161716485Y-92792976D01*
X161716485Y-92792976D02*
X161716485Y-93412023D01*
X279019819Y-90825714D02*
X278019819Y-90825714D01*
X278019819Y-90825714D02*
X278019819Y-91063809D01*
X278019819Y-91063809D02*
X278067438Y-91206666D01*
X278067438Y-91206666D02*
X278162676Y-91301904D01*
X278162676Y-91301904D02*
X278257914Y-91349523D01*
X278257914Y-91349523D02*
X278448390Y-91397142D01*
X278448390Y-91397142D02*
X278591247Y-91397142D01*
X278591247Y-91397142D02*
X278781723Y-91349523D01*
X278781723Y-91349523D02*
X278876961Y-91301904D01*
X278876961Y-91301904D02*
X278972200Y-91206666D01*
X278972200Y-91206666D02*
X279019819Y-91063809D01*
X279019819Y-91063809D02*
X279019819Y-90825714D01*
X279019819Y-92349523D02*
X279019819Y-91778095D01*
X279019819Y-92063809D02*
X278019819Y-92063809D01*
X278019819Y-92063809D02*
X278162676Y-91968571D01*
X278162676Y-91968571D02*
X278257914Y-91873333D01*
X278257914Y-91873333D02*
X278305533Y-91778095D01*
X278019819Y-93206666D02*
X278019819Y-93016190D01*
X278019819Y-93016190D02*
X278067438Y-92920952D01*
X278067438Y-92920952D02*
X278115057Y-92873333D01*
X278115057Y-92873333D02*
X278257914Y-92778095D01*
X278257914Y-92778095D02*
X278448390Y-92730476D01*
X278448390Y-92730476D02*
X278829342Y-92730476D01*
X278829342Y-92730476D02*
X278924580Y-92778095D01*
X278924580Y-92778095D02*
X278972200Y-92825714D01*
X278972200Y-92825714D02*
X279019819Y-92920952D01*
X279019819Y-92920952D02*
X279019819Y-93111428D01*
X279019819Y-93111428D02*
X278972200Y-93206666D01*
X278972200Y-93206666D02*
X278924580Y-93254285D01*
X278924580Y-93254285D02*
X278829342Y-93301904D01*
X278829342Y-93301904D02*
X278591247Y-93301904D01*
X278591247Y-93301904D02*
X278496009Y-93254285D01*
X278496009Y-93254285D02*
X278448390Y-93206666D01*
X278448390Y-93206666D02*
X278400771Y-93111428D01*
X278400771Y-93111428D02*
X278400771Y-92920952D01*
X278400771Y-92920952D02*
X278448390Y-92825714D01*
X278448390Y-92825714D02*
X278496009Y-92778095D01*
X278496009Y-92778095D02*
X278591247Y-92730476D01*
X345999819Y-79775833D02*
X345523628Y-79442500D01*
X345999819Y-79204405D02*
X344999819Y-79204405D01*
X344999819Y-79204405D02*
X344999819Y-79585357D01*
X344999819Y-79585357D02*
X345047438Y-79680595D01*
X345047438Y-79680595D02*
X345095057Y-79728214D01*
X345095057Y-79728214D02*
X345190295Y-79775833D01*
X345190295Y-79775833D02*
X345333152Y-79775833D01*
X345333152Y-79775833D02*
X345428390Y-79728214D01*
X345428390Y-79728214D02*
X345476009Y-79680595D01*
X345476009Y-79680595D02*
X345523628Y-79585357D01*
X345523628Y-79585357D02*
X345523628Y-79204405D01*
X344999819Y-80109167D02*
X344999819Y-80775833D01*
X344999819Y-80775833D02*
X345999819Y-80347262D01*
X333559819Y-43778095D02*
X334369342Y-43778095D01*
X334369342Y-43778095D02*
X334464580Y-43825714D01*
X334464580Y-43825714D02*
X334512200Y-43873333D01*
X334512200Y-43873333D02*
X334559819Y-43968571D01*
X334559819Y-43968571D02*
X334559819Y-44159047D01*
X334559819Y-44159047D02*
X334512200Y-44254285D01*
X334512200Y-44254285D02*
X334464580Y-44301904D01*
X334464580Y-44301904D02*
X334369342Y-44349523D01*
X334369342Y-44349523D02*
X333559819Y-44349523D01*
X333559819Y-44730476D02*
X333559819Y-45349523D01*
X333559819Y-45349523D02*
X333940771Y-45016190D01*
X333940771Y-45016190D02*
X333940771Y-45159047D01*
X333940771Y-45159047D02*
X333988390Y-45254285D01*
X333988390Y-45254285D02*
X334036009Y-45301904D01*
X334036009Y-45301904D02*
X334131247Y-45349523D01*
X334131247Y-45349523D02*
X334369342Y-45349523D01*
X334369342Y-45349523D02*
X334464580Y-45301904D01*
X334464580Y-45301904D02*
X334512200Y-45254285D01*
X334512200Y-45254285D02*
X334559819Y-45159047D01*
X334559819Y-45159047D02*
X334559819Y-44873333D01*
X334559819Y-44873333D02*
X334512200Y-44778095D01*
X334512200Y-44778095D02*
X334464580Y-44730476D01*
X215589819Y-71415714D02*
X214589819Y-71415714D01*
X214589819Y-71415714D02*
X214589819Y-71653809D01*
X214589819Y-71653809D02*
X214637438Y-71796666D01*
X214637438Y-71796666D02*
X214732676Y-71891904D01*
X214732676Y-71891904D02*
X214827914Y-71939523D01*
X214827914Y-71939523D02*
X215018390Y-71987142D01*
X215018390Y-71987142D02*
X215161247Y-71987142D01*
X215161247Y-71987142D02*
X215351723Y-71939523D01*
X215351723Y-71939523D02*
X215446961Y-71891904D01*
X215446961Y-71891904D02*
X215542200Y-71796666D01*
X215542200Y-71796666D02*
X215589819Y-71653809D01*
X215589819Y-71653809D02*
X215589819Y-71415714D01*
X215589819Y-72939523D02*
X215589819Y-72368095D01*
X215589819Y-72653809D02*
X214589819Y-72653809D01*
X214589819Y-72653809D02*
X214732676Y-72558571D01*
X214732676Y-72558571D02*
X214827914Y-72463333D01*
X214827914Y-72463333D02*
X214875533Y-72368095D01*
X214923152Y-73796666D02*
X215589819Y-73796666D01*
X214542200Y-73558571D02*
X215256485Y-73320476D01*
X215256485Y-73320476D02*
X215256485Y-73939523D01*
X181549819Y-90763214D02*
X180549819Y-90763214D01*
X180549819Y-90763214D02*
X180549819Y-91001309D01*
X180549819Y-91001309D02*
X180597438Y-91144166D01*
X180597438Y-91144166D02*
X180692676Y-91239404D01*
X180692676Y-91239404D02*
X180787914Y-91287023D01*
X180787914Y-91287023D02*
X180978390Y-91334642D01*
X180978390Y-91334642D02*
X181121247Y-91334642D01*
X181121247Y-91334642D02*
X181311723Y-91287023D01*
X181311723Y-91287023D02*
X181406961Y-91239404D01*
X181406961Y-91239404D02*
X181502200Y-91144166D01*
X181502200Y-91144166D02*
X181549819Y-91001309D01*
X181549819Y-91001309D02*
X181549819Y-90763214D01*
X180549819Y-92239404D02*
X180549819Y-91763214D01*
X180549819Y-91763214D02*
X181026009Y-91715595D01*
X181026009Y-91715595D02*
X180978390Y-91763214D01*
X180978390Y-91763214D02*
X180930771Y-91858452D01*
X180930771Y-91858452D02*
X180930771Y-92096547D01*
X180930771Y-92096547D02*
X180978390Y-92191785D01*
X180978390Y-92191785D02*
X181026009Y-92239404D01*
X181026009Y-92239404D02*
X181121247Y-92287023D01*
X181121247Y-92287023D02*
X181359342Y-92287023D01*
X181359342Y-92287023D02*
X181454580Y-92239404D01*
X181454580Y-92239404D02*
X181502200Y-92191785D01*
X181502200Y-92191785D02*
X181549819Y-92096547D01*
X181549819Y-92096547D02*
X181549819Y-91858452D01*
X181549819Y-91858452D02*
X181502200Y-91763214D01*
X181502200Y-91763214D02*
X181454580Y-91715595D01*
X180645057Y-92667976D02*
X180597438Y-92715595D01*
X180597438Y-92715595D02*
X180549819Y-92810833D01*
X180549819Y-92810833D02*
X180549819Y-93048928D01*
X180549819Y-93048928D02*
X180597438Y-93144166D01*
X180597438Y-93144166D02*
X180645057Y-93191785D01*
X180645057Y-93191785D02*
X180740295Y-93239404D01*
X180740295Y-93239404D02*
X180835533Y-93239404D01*
X180835533Y-93239404D02*
X180978390Y-93191785D01*
X180978390Y-93191785D02*
X181549819Y-92620357D01*
X181549819Y-92620357D02*
X181549819Y-93239404D01*
X52774819Y-71811905D02*
X51774819Y-71811905D01*
X51774819Y-71811905D02*
X51774819Y-72050000D01*
X51774819Y-72050000D02*
X51822438Y-72192857D01*
X51822438Y-72192857D02*
X51917676Y-72288095D01*
X51917676Y-72288095D02*
X52012914Y-72335714D01*
X52012914Y-72335714D02*
X52203390Y-72383333D01*
X52203390Y-72383333D02*
X52346247Y-72383333D01*
X52346247Y-72383333D02*
X52536723Y-72335714D01*
X52536723Y-72335714D02*
X52631961Y-72288095D01*
X52631961Y-72288095D02*
X52727200Y-72192857D01*
X52727200Y-72192857D02*
X52774819Y-72050000D01*
X52774819Y-72050000D02*
X52774819Y-71811905D01*
X51774819Y-72716667D02*
X51774819Y-73335714D01*
X51774819Y-73335714D02*
X52155771Y-73002381D01*
X52155771Y-73002381D02*
X52155771Y-73145238D01*
X52155771Y-73145238D02*
X52203390Y-73240476D01*
X52203390Y-73240476D02*
X52251009Y-73288095D01*
X52251009Y-73288095D02*
X52346247Y-73335714D01*
X52346247Y-73335714D02*
X52584342Y-73335714D01*
X52584342Y-73335714D02*
X52679580Y-73288095D01*
X52679580Y-73288095D02*
X52727200Y-73240476D01*
X52727200Y-73240476D02*
X52774819Y-73145238D01*
X52774819Y-73145238D02*
X52774819Y-72859524D01*
X52774819Y-72859524D02*
X52727200Y-72764286D01*
X52727200Y-72764286D02*
X52679580Y-72716667D01*
X254684819Y-71674405D02*
X253684819Y-71674405D01*
X253684819Y-71674405D02*
X253684819Y-71912500D01*
X253684819Y-71912500D02*
X253732438Y-72055357D01*
X253732438Y-72055357D02*
X253827676Y-72150595D01*
X253827676Y-72150595D02*
X253922914Y-72198214D01*
X253922914Y-72198214D02*
X254113390Y-72245833D01*
X254113390Y-72245833D02*
X254256247Y-72245833D01*
X254256247Y-72245833D02*
X254446723Y-72198214D01*
X254446723Y-72198214D02*
X254541961Y-72150595D01*
X254541961Y-72150595D02*
X254637200Y-72055357D01*
X254637200Y-72055357D02*
X254684819Y-71912500D01*
X254684819Y-71912500D02*
X254684819Y-71674405D01*
X253684819Y-72579167D02*
X253684819Y-73245833D01*
X253684819Y-73245833D02*
X254684819Y-72817262D01*
X340999819Y-50994642D02*
X340523628Y-50661309D01*
X340999819Y-50423214D02*
X339999819Y-50423214D01*
X339999819Y-50423214D02*
X339999819Y-50804166D01*
X339999819Y-50804166D02*
X340047438Y-50899404D01*
X340047438Y-50899404D02*
X340095057Y-50947023D01*
X340095057Y-50947023D02*
X340190295Y-50994642D01*
X340190295Y-50994642D02*
X340333152Y-50994642D01*
X340333152Y-50994642D02*
X340428390Y-50947023D01*
X340428390Y-50947023D02*
X340476009Y-50899404D01*
X340476009Y-50899404D02*
X340523628Y-50804166D01*
X340523628Y-50804166D02*
X340523628Y-50423214D01*
X340095057Y-51375595D02*
X340047438Y-51423214D01*
X340047438Y-51423214D02*
X339999819Y-51518452D01*
X339999819Y-51518452D02*
X339999819Y-51756547D01*
X339999819Y-51756547D02*
X340047438Y-51851785D01*
X340047438Y-51851785D02*
X340095057Y-51899404D01*
X340095057Y-51899404D02*
X340190295Y-51947023D01*
X340190295Y-51947023D02*
X340285533Y-51947023D01*
X340285533Y-51947023D02*
X340428390Y-51899404D01*
X340428390Y-51899404D02*
X340999819Y-51327976D01*
X340999819Y-51327976D02*
X340999819Y-51947023D01*
X339999819Y-52566071D02*
X339999819Y-52661309D01*
X339999819Y-52661309D02*
X340047438Y-52756547D01*
X340047438Y-52756547D02*
X340095057Y-52804166D01*
X340095057Y-52804166D02*
X340190295Y-52851785D01*
X340190295Y-52851785D02*
X340380771Y-52899404D01*
X340380771Y-52899404D02*
X340618866Y-52899404D01*
X340618866Y-52899404D02*
X340809342Y-52851785D01*
X340809342Y-52851785D02*
X340904580Y-52804166D01*
X340904580Y-52804166D02*
X340952200Y-52756547D01*
X340952200Y-52756547D02*
X340999819Y-52661309D01*
X340999819Y-52661309D02*
X340999819Y-52566071D01*
X340999819Y-52566071D02*
X340952200Y-52470833D01*
X340952200Y-52470833D02*
X340904580Y-52423214D01*
X340904580Y-52423214D02*
X340809342Y-52375595D01*
X340809342Y-52375595D02*
X340618866Y-52327976D01*
X340618866Y-52327976D02*
X340380771Y-52327976D01*
X340380771Y-52327976D02*
X340190295Y-52375595D01*
X340190295Y-52375595D02*
X340095057Y-52423214D01*
X340095057Y-52423214D02*
X340047438Y-52470833D01*
X340047438Y-52470833D02*
X339999819Y-52566071D01*
X346799819Y-36082142D02*
X346323628Y-35748809D01*
X346799819Y-35510714D02*
X345799819Y-35510714D01*
X345799819Y-35510714D02*
X345799819Y-35891666D01*
X345799819Y-35891666D02*
X345847438Y-35986904D01*
X345847438Y-35986904D02*
X345895057Y-36034523D01*
X345895057Y-36034523D02*
X345990295Y-36082142D01*
X345990295Y-36082142D02*
X346133152Y-36082142D01*
X346133152Y-36082142D02*
X346228390Y-36034523D01*
X346228390Y-36034523D02*
X346276009Y-35986904D01*
X346276009Y-35986904D02*
X346323628Y-35891666D01*
X346323628Y-35891666D02*
X346323628Y-35510714D01*
X346799819Y-37034523D02*
X346799819Y-36463095D01*
X346799819Y-36748809D02*
X345799819Y-36748809D01*
X345799819Y-36748809D02*
X345942676Y-36653571D01*
X345942676Y-36653571D02*
X346037914Y-36558333D01*
X346037914Y-36558333D02*
X346085533Y-36463095D01*
X345799819Y-37891666D02*
X345799819Y-37701190D01*
X345799819Y-37701190D02*
X345847438Y-37605952D01*
X345847438Y-37605952D02*
X345895057Y-37558333D01*
X345895057Y-37558333D02*
X346037914Y-37463095D01*
X346037914Y-37463095D02*
X346228390Y-37415476D01*
X346228390Y-37415476D02*
X346609342Y-37415476D01*
X346609342Y-37415476D02*
X346704580Y-37463095D01*
X346704580Y-37463095D02*
X346752200Y-37510714D01*
X346752200Y-37510714D02*
X346799819Y-37605952D01*
X346799819Y-37605952D02*
X346799819Y-37796428D01*
X346799819Y-37796428D02*
X346752200Y-37891666D01*
X346752200Y-37891666D02*
X346704580Y-37939285D01*
X346704580Y-37939285D02*
X346609342Y-37986904D01*
X346609342Y-37986904D02*
X346371247Y-37986904D01*
X346371247Y-37986904D02*
X346276009Y-37939285D01*
X346276009Y-37939285D02*
X346228390Y-37891666D01*
X346228390Y-37891666D02*
X346180771Y-37796428D01*
X346180771Y-37796428D02*
X346180771Y-37605952D01*
X346180771Y-37605952D02*
X346228390Y-37510714D01*
X346228390Y-37510714D02*
X346276009Y-37463095D01*
X346276009Y-37463095D02*
X346371247Y-37415476D01*
X119074819Y-110223214D02*
X118074819Y-110223214D01*
X118074819Y-110223214D02*
X118074819Y-110461309D01*
X118074819Y-110461309D02*
X118122438Y-110604166D01*
X118122438Y-110604166D02*
X118217676Y-110699404D01*
X118217676Y-110699404D02*
X118312914Y-110747023D01*
X118312914Y-110747023D02*
X118503390Y-110794642D01*
X118503390Y-110794642D02*
X118646247Y-110794642D01*
X118646247Y-110794642D02*
X118836723Y-110747023D01*
X118836723Y-110747023D02*
X118931961Y-110699404D01*
X118931961Y-110699404D02*
X119027200Y-110604166D01*
X119027200Y-110604166D02*
X119074819Y-110461309D01*
X119074819Y-110461309D02*
X119074819Y-110223214D01*
X118170057Y-111175595D02*
X118122438Y-111223214D01*
X118122438Y-111223214D02*
X118074819Y-111318452D01*
X118074819Y-111318452D02*
X118074819Y-111556547D01*
X118074819Y-111556547D02*
X118122438Y-111651785D01*
X118122438Y-111651785D02*
X118170057Y-111699404D01*
X118170057Y-111699404D02*
X118265295Y-111747023D01*
X118265295Y-111747023D02*
X118360533Y-111747023D01*
X118360533Y-111747023D02*
X118503390Y-111699404D01*
X118503390Y-111699404D02*
X119074819Y-111127976D01*
X119074819Y-111127976D02*
X119074819Y-111747023D01*
X119074819Y-112223214D02*
X119074819Y-112413690D01*
X119074819Y-112413690D02*
X119027200Y-112508928D01*
X119027200Y-112508928D02*
X118979580Y-112556547D01*
X118979580Y-112556547D02*
X118836723Y-112651785D01*
X118836723Y-112651785D02*
X118646247Y-112699404D01*
X118646247Y-112699404D02*
X118265295Y-112699404D01*
X118265295Y-112699404D02*
X118170057Y-112651785D01*
X118170057Y-112651785D02*
X118122438Y-112604166D01*
X118122438Y-112604166D02*
X118074819Y-112508928D01*
X118074819Y-112508928D02*
X118074819Y-112318452D01*
X118074819Y-112318452D02*
X118122438Y-112223214D01*
X118122438Y-112223214D02*
X118170057Y-112175595D01*
X118170057Y-112175595D02*
X118265295Y-112127976D01*
X118265295Y-112127976D02*
X118503390Y-112127976D01*
X118503390Y-112127976D02*
X118598628Y-112175595D01*
X118598628Y-112175595D02*
X118646247Y-112223214D01*
X118646247Y-112223214D02*
X118693866Y-112318452D01*
X118693866Y-112318452D02*
X118693866Y-112508928D01*
X118693866Y-112508928D02*
X118646247Y-112604166D01*
X118646247Y-112604166D02*
X118598628Y-112651785D01*
X118598628Y-112651785D02*
X118503390Y-112699404D01*
X55049819Y-91301905D02*
X54049819Y-91301905D01*
X54049819Y-91301905D02*
X54049819Y-91540000D01*
X54049819Y-91540000D02*
X54097438Y-91682857D01*
X54097438Y-91682857D02*
X54192676Y-91778095D01*
X54192676Y-91778095D02*
X54287914Y-91825714D01*
X54287914Y-91825714D02*
X54478390Y-91873333D01*
X54478390Y-91873333D02*
X54621247Y-91873333D01*
X54621247Y-91873333D02*
X54811723Y-91825714D01*
X54811723Y-91825714D02*
X54906961Y-91778095D01*
X54906961Y-91778095D02*
X55002200Y-91682857D01*
X55002200Y-91682857D02*
X55049819Y-91540000D01*
X55049819Y-91540000D02*
X55049819Y-91301905D01*
X54383152Y-92730476D02*
X55049819Y-92730476D01*
X54002200Y-92492381D02*
X54716485Y-92254286D01*
X54716485Y-92254286D02*
X54716485Y-92873333D01*
X45549819Y-32801905D02*
X44549819Y-32801905D01*
X44549819Y-32801905D02*
X44549819Y-33040000D01*
X44549819Y-33040000D02*
X44597438Y-33182857D01*
X44597438Y-33182857D02*
X44692676Y-33278095D01*
X44692676Y-33278095D02*
X44787914Y-33325714D01*
X44787914Y-33325714D02*
X44978390Y-33373333D01*
X44978390Y-33373333D02*
X45121247Y-33373333D01*
X45121247Y-33373333D02*
X45311723Y-33325714D01*
X45311723Y-33325714D02*
X45406961Y-33278095D01*
X45406961Y-33278095D02*
X45502200Y-33182857D01*
X45502200Y-33182857D02*
X45549819Y-33040000D01*
X45549819Y-33040000D02*
X45549819Y-32801905D01*
X45549819Y-34325714D02*
X45549819Y-33754286D01*
X45549819Y-34040000D02*
X44549819Y-34040000D01*
X44549819Y-34040000D02*
X44692676Y-33944762D01*
X44692676Y-33944762D02*
X44787914Y-33849524D01*
X44787914Y-33849524D02*
X44835533Y-33754286D01*
X220604819Y-91224405D02*
X219604819Y-91224405D01*
X219604819Y-91224405D02*
X219604819Y-91462500D01*
X219604819Y-91462500D02*
X219652438Y-91605357D01*
X219652438Y-91605357D02*
X219747676Y-91700595D01*
X219747676Y-91700595D02*
X219842914Y-91748214D01*
X219842914Y-91748214D02*
X220033390Y-91795833D01*
X220033390Y-91795833D02*
X220176247Y-91795833D01*
X220176247Y-91795833D02*
X220366723Y-91748214D01*
X220366723Y-91748214D02*
X220461961Y-91700595D01*
X220461961Y-91700595D02*
X220557200Y-91605357D01*
X220557200Y-91605357D02*
X220604819Y-91462500D01*
X220604819Y-91462500D02*
X220604819Y-91224405D01*
X219604819Y-92652976D02*
X219604819Y-92462500D01*
X219604819Y-92462500D02*
X219652438Y-92367262D01*
X219652438Y-92367262D02*
X219700057Y-92319643D01*
X219700057Y-92319643D02*
X219842914Y-92224405D01*
X219842914Y-92224405D02*
X220033390Y-92176786D01*
X220033390Y-92176786D02*
X220414342Y-92176786D01*
X220414342Y-92176786D02*
X220509580Y-92224405D01*
X220509580Y-92224405D02*
X220557200Y-92272024D01*
X220557200Y-92272024D02*
X220604819Y-92367262D01*
X220604819Y-92367262D02*
X220604819Y-92557738D01*
X220604819Y-92557738D02*
X220557200Y-92652976D01*
X220557200Y-92652976D02*
X220509580Y-92700595D01*
X220509580Y-92700595D02*
X220414342Y-92748214D01*
X220414342Y-92748214D02*
X220176247Y-92748214D01*
X220176247Y-92748214D02*
X220081009Y-92700595D01*
X220081009Y-92700595D02*
X220033390Y-92652976D01*
X220033390Y-92652976D02*
X219985771Y-92557738D01*
X219985771Y-92557738D02*
X219985771Y-92367262D01*
X219985771Y-92367262D02*
X220033390Y-92272024D01*
X220033390Y-92272024D02*
X220081009Y-92224405D01*
X220081009Y-92224405D02*
X220176247Y-92176786D01*
X103549819Y-90825714D02*
X102549819Y-90825714D01*
X102549819Y-90825714D02*
X102549819Y-91063809D01*
X102549819Y-91063809D02*
X102597438Y-91206666D01*
X102597438Y-91206666D02*
X102692676Y-91301904D01*
X102692676Y-91301904D02*
X102787914Y-91349523D01*
X102787914Y-91349523D02*
X102978390Y-91397142D01*
X102978390Y-91397142D02*
X103121247Y-91397142D01*
X103121247Y-91397142D02*
X103311723Y-91349523D01*
X103311723Y-91349523D02*
X103406961Y-91301904D01*
X103406961Y-91301904D02*
X103502200Y-91206666D01*
X103502200Y-91206666D02*
X103549819Y-91063809D01*
X103549819Y-91063809D02*
X103549819Y-90825714D01*
X102645057Y-91778095D02*
X102597438Y-91825714D01*
X102597438Y-91825714D02*
X102549819Y-91920952D01*
X102549819Y-91920952D02*
X102549819Y-92159047D01*
X102549819Y-92159047D02*
X102597438Y-92254285D01*
X102597438Y-92254285D02*
X102645057Y-92301904D01*
X102645057Y-92301904D02*
X102740295Y-92349523D01*
X102740295Y-92349523D02*
X102835533Y-92349523D01*
X102835533Y-92349523D02*
X102978390Y-92301904D01*
X102978390Y-92301904D02*
X103549819Y-91730476D01*
X103549819Y-91730476D02*
X103549819Y-92349523D01*
X102549819Y-92968571D02*
X102549819Y-93063809D01*
X102549819Y-93063809D02*
X102597438Y-93159047D01*
X102597438Y-93159047D02*
X102645057Y-93206666D01*
X102645057Y-93206666D02*
X102740295Y-93254285D01*
X102740295Y-93254285D02*
X102930771Y-93301904D01*
X102930771Y-93301904D02*
X103168866Y-93301904D01*
X103168866Y-93301904D02*
X103359342Y-93254285D01*
X103359342Y-93254285D02*
X103454580Y-93206666D01*
X103454580Y-93206666D02*
X103502200Y-93159047D01*
X103502200Y-93159047D02*
X103549819Y-93063809D01*
X103549819Y-93063809D02*
X103549819Y-92968571D01*
X103549819Y-92968571D02*
X103502200Y-92873333D01*
X103502200Y-92873333D02*
X103454580Y-92825714D01*
X103454580Y-92825714D02*
X103359342Y-92778095D01*
X103359342Y-92778095D02*
X103168866Y-92730476D01*
X103168866Y-92730476D02*
X102930771Y-92730476D01*
X102930771Y-92730476D02*
X102740295Y-92778095D01*
X102740295Y-92778095D02*
X102645057Y-92825714D01*
X102645057Y-92825714D02*
X102597438Y-92873333D01*
X102597438Y-92873333D02*
X102549819Y-92968571D01*
X191134285Y-109604819D02*
X191134285Y-108604819D01*
X191134285Y-108604819D02*
X190896190Y-108604819D01*
X190896190Y-108604819D02*
X190753333Y-108652438D01*
X190753333Y-108652438D02*
X190658095Y-108747676D01*
X190658095Y-108747676D02*
X190610476Y-108842914D01*
X190610476Y-108842914D02*
X190562857Y-109033390D01*
X190562857Y-109033390D02*
X190562857Y-109176247D01*
X190562857Y-109176247D02*
X190610476Y-109366723D01*
X190610476Y-109366723D02*
X190658095Y-109461961D01*
X190658095Y-109461961D02*
X190753333Y-109557200D01*
X190753333Y-109557200D02*
X190896190Y-109604819D01*
X190896190Y-109604819D02*
X191134285Y-109604819D01*
X190229523Y-108604819D02*
X189610476Y-108604819D01*
X189610476Y-108604819D02*
X189943809Y-108985771D01*
X189943809Y-108985771D02*
X189800952Y-108985771D01*
X189800952Y-108985771D02*
X189705714Y-109033390D01*
X189705714Y-109033390D02*
X189658095Y-109081009D01*
X189658095Y-109081009D02*
X189610476Y-109176247D01*
X189610476Y-109176247D02*
X189610476Y-109414342D01*
X189610476Y-109414342D02*
X189658095Y-109509580D01*
X189658095Y-109509580D02*
X189705714Y-109557200D01*
X189705714Y-109557200D02*
X189800952Y-109604819D01*
X189800952Y-109604819D02*
X190086666Y-109604819D01*
X190086666Y-109604819D02*
X190181904Y-109557200D01*
X190181904Y-109557200D02*
X190229523Y-109509580D01*
X189277142Y-108604819D02*
X188610476Y-108604819D01*
X188610476Y-108604819D02*
X189039047Y-109604819D01*
X269414819Y-51825714D02*
X268414819Y-51825714D01*
X268414819Y-51825714D02*
X268414819Y-52063809D01*
X268414819Y-52063809D02*
X268462438Y-52206666D01*
X268462438Y-52206666D02*
X268557676Y-52301904D01*
X268557676Y-52301904D02*
X268652914Y-52349523D01*
X268652914Y-52349523D02*
X268843390Y-52397142D01*
X268843390Y-52397142D02*
X268986247Y-52397142D01*
X268986247Y-52397142D02*
X269176723Y-52349523D01*
X269176723Y-52349523D02*
X269271961Y-52301904D01*
X269271961Y-52301904D02*
X269367200Y-52206666D01*
X269367200Y-52206666D02*
X269414819Y-52063809D01*
X269414819Y-52063809D02*
X269414819Y-51825714D01*
X268414819Y-53301904D02*
X268414819Y-52825714D01*
X268414819Y-52825714D02*
X268891009Y-52778095D01*
X268891009Y-52778095D02*
X268843390Y-52825714D01*
X268843390Y-52825714D02*
X268795771Y-52920952D01*
X268795771Y-52920952D02*
X268795771Y-53159047D01*
X268795771Y-53159047D02*
X268843390Y-53254285D01*
X268843390Y-53254285D02*
X268891009Y-53301904D01*
X268891009Y-53301904D02*
X268986247Y-53349523D01*
X268986247Y-53349523D02*
X269224342Y-53349523D01*
X269224342Y-53349523D02*
X269319580Y-53301904D01*
X269319580Y-53301904D02*
X269367200Y-53254285D01*
X269367200Y-53254285D02*
X269414819Y-53159047D01*
X269414819Y-53159047D02*
X269414819Y-52920952D01*
X269414819Y-52920952D02*
X269367200Y-52825714D01*
X269367200Y-52825714D02*
X269319580Y-52778095D01*
X268414819Y-54254285D02*
X268414819Y-53778095D01*
X268414819Y-53778095D02*
X268891009Y-53730476D01*
X268891009Y-53730476D02*
X268843390Y-53778095D01*
X268843390Y-53778095D02*
X268795771Y-53873333D01*
X268795771Y-53873333D02*
X268795771Y-54111428D01*
X268795771Y-54111428D02*
X268843390Y-54206666D01*
X268843390Y-54206666D02*
X268891009Y-54254285D01*
X268891009Y-54254285D02*
X268986247Y-54301904D01*
X268986247Y-54301904D02*
X269224342Y-54301904D01*
X269224342Y-54301904D02*
X269319580Y-54254285D01*
X269319580Y-54254285D02*
X269367200Y-54206666D01*
X269367200Y-54206666D02*
X269414819Y-54111428D01*
X269414819Y-54111428D02*
X269414819Y-53873333D01*
X269414819Y-53873333D02*
X269367200Y-53778095D01*
X269367200Y-53778095D02*
X269319580Y-53730476D01*
X259669819Y-90825714D02*
X258669819Y-90825714D01*
X258669819Y-90825714D02*
X258669819Y-91063809D01*
X258669819Y-91063809D02*
X258717438Y-91206666D01*
X258717438Y-91206666D02*
X258812676Y-91301904D01*
X258812676Y-91301904D02*
X258907914Y-91349523D01*
X258907914Y-91349523D02*
X259098390Y-91397142D01*
X259098390Y-91397142D02*
X259241247Y-91397142D01*
X259241247Y-91397142D02*
X259431723Y-91349523D01*
X259431723Y-91349523D02*
X259526961Y-91301904D01*
X259526961Y-91301904D02*
X259622200Y-91206666D01*
X259622200Y-91206666D02*
X259669819Y-91063809D01*
X259669819Y-91063809D02*
X259669819Y-90825714D01*
X259669819Y-92349523D02*
X259669819Y-91778095D01*
X259669819Y-92063809D02*
X258669819Y-92063809D01*
X258669819Y-92063809D02*
X258812676Y-91968571D01*
X258812676Y-91968571D02*
X258907914Y-91873333D01*
X258907914Y-91873333D02*
X258955533Y-91778095D01*
X258669819Y-93254285D02*
X258669819Y-92778095D01*
X258669819Y-92778095D02*
X259146009Y-92730476D01*
X259146009Y-92730476D02*
X259098390Y-92778095D01*
X259098390Y-92778095D02*
X259050771Y-92873333D01*
X259050771Y-92873333D02*
X259050771Y-93111428D01*
X259050771Y-93111428D02*
X259098390Y-93206666D01*
X259098390Y-93206666D02*
X259146009Y-93254285D01*
X259146009Y-93254285D02*
X259241247Y-93301904D01*
X259241247Y-93301904D02*
X259479342Y-93301904D01*
X259479342Y-93301904D02*
X259574580Y-93254285D01*
X259574580Y-93254285D02*
X259622200Y-93206666D01*
X259622200Y-93206666D02*
X259669819Y-93111428D01*
X259669819Y-93111428D02*
X259669819Y-92873333D01*
X259669819Y-92873333D02*
X259622200Y-92778095D01*
X259622200Y-92778095D02*
X259574580Y-92730476D01*
X333559819Y-71778095D02*
X334369342Y-71778095D01*
X334369342Y-71778095D02*
X334464580Y-71825714D01*
X334464580Y-71825714D02*
X334512200Y-71873333D01*
X334512200Y-71873333D02*
X334559819Y-71968571D01*
X334559819Y-71968571D02*
X334559819Y-72159047D01*
X334559819Y-72159047D02*
X334512200Y-72254285D01*
X334512200Y-72254285D02*
X334464580Y-72301904D01*
X334464580Y-72301904D02*
X334369342Y-72349523D01*
X334369342Y-72349523D02*
X333559819Y-72349523D01*
X333893152Y-73254285D02*
X334559819Y-73254285D01*
X333512200Y-73016190D02*
X334226485Y-72778095D01*
X334226485Y-72778095D02*
X334226485Y-73397142D01*
X113549819Y-51825714D02*
X112549819Y-51825714D01*
X112549819Y-51825714D02*
X112549819Y-52063809D01*
X112549819Y-52063809D02*
X112597438Y-52206666D01*
X112597438Y-52206666D02*
X112692676Y-52301904D01*
X112692676Y-52301904D02*
X112787914Y-52349523D01*
X112787914Y-52349523D02*
X112978390Y-52397142D01*
X112978390Y-52397142D02*
X113121247Y-52397142D01*
X113121247Y-52397142D02*
X113311723Y-52349523D01*
X113311723Y-52349523D02*
X113406961Y-52301904D01*
X113406961Y-52301904D02*
X113502200Y-52206666D01*
X113502200Y-52206666D02*
X113549819Y-52063809D01*
X113549819Y-52063809D02*
X113549819Y-51825714D01*
X112645057Y-52778095D02*
X112597438Y-52825714D01*
X112597438Y-52825714D02*
X112549819Y-52920952D01*
X112549819Y-52920952D02*
X112549819Y-53159047D01*
X112549819Y-53159047D02*
X112597438Y-53254285D01*
X112597438Y-53254285D02*
X112645057Y-53301904D01*
X112645057Y-53301904D02*
X112740295Y-53349523D01*
X112740295Y-53349523D02*
X112835533Y-53349523D01*
X112835533Y-53349523D02*
X112978390Y-53301904D01*
X112978390Y-53301904D02*
X113549819Y-52730476D01*
X113549819Y-52730476D02*
X113549819Y-53349523D01*
X112549819Y-54206666D02*
X112549819Y-54016190D01*
X112549819Y-54016190D02*
X112597438Y-53920952D01*
X112597438Y-53920952D02*
X112645057Y-53873333D01*
X112645057Y-53873333D02*
X112787914Y-53778095D01*
X112787914Y-53778095D02*
X112978390Y-53730476D01*
X112978390Y-53730476D02*
X113359342Y-53730476D01*
X113359342Y-53730476D02*
X113454580Y-53778095D01*
X113454580Y-53778095D02*
X113502200Y-53825714D01*
X113502200Y-53825714D02*
X113549819Y-53920952D01*
X113549819Y-53920952D02*
X113549819Y-54111428D01*
X113549819Y-54111428D02*
X113502200Y-54206666D01*
X113502200Y-54206666D02*
X113454580Y-54254285D01*
X113454580Y-54254285D02*
X113359342Y-54301904D01*
X113359342Y-54301904D02*
X113121247Y-54301904D01*
X113121247Y-54301904D02*
X113026009Y-54254285D01*
X113026009Y-54254285D02*
X112978390Y-54206666D01*
X112978390Y-54206666D02*
X112930771Y-54111428D01*
X112930771Y-54111428D02*
X112930771Y-53920952D01*
X112930771Y-53920952D02*
X112978390Y-53825714D01*
X112978390Y-53825714D02*
X113026009Y-53778095D01*
X113026009Y-53778095D02*
X113121247Y-53730476D01*
X182049819Y-32325714D02*
X181049819Y-32325714D01*
X181049819Y-32325714D02*
X181049819Y-32563809D01*
X181049819Y-32563809D02*
X181097438Y-32706666D01*
X181097438Y-32706666D02*
X181192676Y-32801904D01*
X181192676Y-32801904D02*
X181287914Y-32849523D01*
X181287914Y-32849523D02*
X181478390Y-32897142D01*
X181478390Y-32897142D02*
X181621247Y-32897142D01*
X181621247Y-32897142D02*
X181811723Y-32849523D01*
X181811723Y-32849523D02*
X181906961Y-32801904D01*
X181906961Y-32801904D02*
X182002200Y-32706666D01*
X182002200Y-32706666D02*
X182049819Y-32563809D01*
X182049819Y-32563809D02*
X182049819Y-32325714D01*
X181049819Y-33801904D02*
X181049819Y-33325714D01*
X181049819Y-33325714D02*
X181526009Y-33278095D01*
X181526009Y-33278095D02*
X181478390Y-33325714D01*
X181478390Y-33325714D02*
X181430771Y-33420952D01*
X181430771Y-33420952D02*
X181430771Y-33659047D01*
X181430771Y-33659047D02*
X181478390Y-33754285D01*
X181478390Y-33754285D02*
X181526009Y-33801904D01*
X181526009Y-33801904D02*
X181621247Y-33849523D01*
X181621247Y-33849523D02*
X181859342Y-33849523D01*
X181859342Y-33849523D02*
X181954580Y-33801904D01*
X181954580Y-33801904D02*
X182002200Y-33754285D01*
X182002200Y-33754285D02*
X182049819Y-33659047D01*
X182049819Y-33659047D02*
X182049819Y-33420952D01*
X182049819Y-33420952D02*
X182002200Y-33325714D01*
X182002200Y-33325714D02*
X181954580Y-33278095D01*
X181049819Y-34182857D02*
X181049819Y-34849523D01*
X181049819Y-34849523D02*
X182049819Y-34420952D01*
X65049819Y-32801905D02*
X64049819Y-32801905D01*
X64049819Y-32801905D02*
X64049819Y-33040000D01*
X64049819Y-33040000D02*
X64097438Y-33182857D01*
X64097438Y-33182857D02*
X64192676Y-33278095D01*
X64192676Y-33278095D02*
X64287914Y-33325714D01*
X64287914Y-33325714D02*
X64478390Y-33373333D01*
X64478390Y-33373333D02*
X64621247Y-33373333D01*
X64621247Y-33373333D02*
X64811723Y-33325714D01*
X64811723Y-33325714D02*
X64906961Y-33278095D01*
X64906961Y-33278095D02*
X65002200Y-33182857D01*
X65002200Y-33182857D02*
X65049819Y-33040000D01*
X65049819Y-33040000D02*
X65049819Y-32801905D01*
X65049819Y-33849524D02*
X65049819Y-34040000D01*
X65049819Y-34040000D02*
X65002200Y-34135238D01*
X65002200Y-34135238D02*
X64954580Y-34182857D01*
X64954580Y-34182857D02*
X64811723Y-34278095D01*
X64811723Y-34278095D02*
X64621247Y-34325714D01*
X64621247Y-34325714D02*
X64240295Y-34325714D01*
X64240295Y-34325714D02*
X64145057Y-34278095D01*
X64145057Y-34278095D02*
X64097438Y-34230476D01*
X64097438Y-34230476D02*
X64049819Y-34135238D01*
X64049819Y-34135238D02*
X64049819Y-33944762D01*
X64049819Y-33944762D02*
X64097438Y-33849524D01*
X64097438Y-33849524D02*
X64145057Y-33801905D01*
X64145057Y-33801905D02*
X64240295Y-33754286D01*
X64240295Y-33754286D02*
X64478390Y-33754286D01*
X64478390Y-33754286D02*
X64573628Y-33801905D01*
X64573628Y-33801905D02*
X64621247Y-33849524D01*
X64621247Y-33849524D02*
X64668866Y-33944762D01*
X64668866Y-33944762D02*
X64668866Y-34135238D01*
X64668866Y-34135238D02*
X64621247Y-34230476D01*
X64621247Y-34230476D02*
X64573628Y-34278095D01*
X64573628Y-34278095D02*
X64478390Y-34325714D01*
X74549819Y-51825714D02*
X73549819Y-51825714D01*
X73549819Y-51825714D02*
X73549819Y-52063809D01*
X73549819Y-52063809D02*
X73597438Y-52206666D01*
X73597438Y-52206666D02*
X73692676Y-52301904D01*
X73692676Y-52301904D02*
X73787914Y-52349523D01*
X73787914Y-52349523D02*
X73978390Y-52397142D01*
X73978390Y-52397142D02*
X74121247Y-52397142D01*
X74121247Y-52397142D02*
X74311723Y-52349523D01*
X74311723Y-52349523D02*
X74406961Y-52301904D01*
X74406961Y-52301904D02*
X74502200Y-52206666D01*
X74502200Y-52206666D02*
X74549819Y-52063809D01*
X74549819Y-52063809D02*
X74549819Y-51825714D01*
X74549819Y-53349523D02*
X74549819Y-52778095D01*
X74549819Y-53063809D02*
X73549819Y-53063809D01*
X73549819Y-53063809D02*
X73692676Y-52968571D01*
X73692676Y-52968571D02*
X73787914Y-52873333D01*
X73787914Y-52873333D02*
X73835533Y-52778095D01*
X73549819Y-53968571D02*
X73549819Y-54063809D01*
X73549819Y-54063809D02*
X73597438Y-54159047D01*
X73597438Y-54159047D02*
X73645057Y-54206666D01*
X73645057Y-54206666D02*
X73740295Y-54254285D01*
X73740295Y-54254285D02*
X73930771Y-54301904D01*
X73930771Y-54301904D02*
X74168866Y-54301904D01*
X74168866Y-54301904D02*
X74359342Y-54254285D01*
X74359342Y-54254285D02*
X74454580Y-54206666D01*
X74454580Y-54206666D02*
X74502200Y-54159047D01*
X74502200Y-54159047D02*
X74549819Y-54063809D01*
X74549819Y-54063809D02*
X74549819Y-53968571D01*
X74549819Y-53968571D02*
X74502200Y-53873333D01*
X74502200Y-53873333D02*
X74454580Y-53825714D01*
X74454580Y-53825714D02*
X74359342Y-53778095D01*
X74359342Y-53778095D02*
X74168866Y-53730476D01*
X74168866Y-53730476D02*
X73930771Y-53730476D01*
X73930771Y-53730476D02*
X73740295Y-53778095D01*
X73740295Y-53778095D02*
X73645057Y-53825714D01*
X73645057Y-53825714D02*
X73597438Y-53873333D01*
X73597438Y-53873333D02*
X73549819Y-53968571D01*
X298944819Y-110365714D02*
X297944819Y-110365714D01*
X297944819Y-110365714D02*
X297944819Y-110603809D01*
X297944819Y-110603809D02*
X297992438Y-110746666D01*
X297992438Y-110746666D02*
X298087676Y-110841904D01*
X298087676Y-110841904D02*
X298182914Y-110889523D01*
X298182914Y-110889523D02*
X298373390Y-110937142D01*
X298373390Y-110937142D02*
X298516247Y-110937142D01*
X298516247Y-110937142D02*
X298706723Y-110889523D01*
X298706723Y-110889523D02*
X298801961Y-110841904D01*
X298801961Y-110841904D02*
X298897200Y-110746666D01*
X298897200Y-110746666D02*
X298944819Y-110603809D01*
X298944819Y-110603809D02*
X298944819Y-110365714D01*
X297944819Y-111794285D02*
X297944819Y-111603809D01*
X297944819Y-111603809D02*
X297992438Y-111508571D01*
X297992438Y-111508571D02*
X298040057Y-111460952D01*
X298040057Y-111460952D02*
X298182914Y-111365714D01*
X298182914Y-111365714D02*
X298373390Y-111318095D01*
X298373390Y-111318095D02*
X298754342Y-111318095D01*
X298754342Y-111318095D02*
X298849580Y-111365714D01*
X298849580Y-111365714D02*
X298897200Y-111413333D01*
X298897200Y-111413333D02*
X298944819Y-111508571D01*
X298944819Y-111508571D02*
X298944819Y-111699047D01*
X298944819Y-111699047D02*
X298897200Y-111794285D01*
X298897200Y-111794285D02*
X298849580Y-111841904D01*
X298849580Y-111841904D02*
X298754342Y-111889523D01*
X298754342Y-111889523D02*
X298516247Y-111889523D01*
X298516247Y-111889523D02*
X298421009Y-111841904D01*
X298421009Y-111841904D02*
X298373390Y-111794285D01*
X298373390Y-111794285D02*
X298325771Y-111699047D01*
X298325771Y-111699047D02*
X298325771Y-111508571D01*
X298325771Y-111508571D02*
X298373390Y-111413333D01*
X298373390Y-111413333D02*
X298421009Y-111365714D01*
X298421009Y-111365714D02*
X298516247Y-111318095D01*
X298944819Y-112841904D02*
X298944819Y-112270476D01*
X298944819Y-112556190D02*
X297944819Y-112556190D01*
X297944819Y-112556190D02*
X298087676Y-112460952D01*
X298087676Y-112460952D02*
X298182914Y-112365714D01*
X298182914Y-112365714D02*
X298230533Y-112270476D01*
X221454819Y-32233214D02*
X220454819Y-32233214D01*
X220454819Y-32233214D02*
X220454819Y-32471309D01*
X220454819Y-32471309D02*
X220502438Y-32614166D01*
X220502438Y-32614166D02*
X220597676Y-32709404D01*
X220597676Y-32709404D02*
X220692914Y-32757023D01*
X220692914Y-32757023D02*
X220883390Y-32804642D01*
X220883390Y-32804642D02*
X221026247Y-32804642D01*
X221026247Y-32804642D02*
X221216723Y-32757023D01*
X221216723Y-32757023D02*
X221311961Y-32709404D01*
X221311961Y-32709404D02*
X221407200Y-32614166D01*
X221407200Y-32614166D02*
X221454819Y-32471309D01*
X221454819Y-32471309D02*
X221454819Y-32233214D01*
X220454819Y-33137976D02*
X220454819Y-33757023D01*
X220454819Y-33757023D02*
X220835771Y-33423690D01*
X220835771Y-33423690D02*
X220835771Y-33566547D01*
X220835771Y-33566547D02*
X220883390Y-33661785D01*
X220883390Y-33661785D02*
X220931009Y-33709404D01*
X220931009Y-33709404D02*
X221026247Y-33757023D01*
X221026247Y-33757023D02*
X221264342Y-33757023D01*
X221264342Y-33757023D02*
X221359580Y-33709404D01*
X221359580Y-33709404D02*
X221407200Y-33661785D01*
X221407200Y-33661785D02*
X221454819Y-33566547D01*
X221454819Y-33566547D02*
X221454819Y-33280833D01*
X221454819Y-33280833D02*
X221407200Y-33185595D01*
X221407200Y-33185595D02*
X221359580Y-33137976D01*
X220883390Y-34328452D02*
X220835771Y-34233214D01*
X220835771Y-34233214D02*
X220788152Y-34185595D01*
X220788152Y-34185595D02*
X220692914Y-34137976D01*
X220692914Y-34137976D02*
X220645295Y-34137976D01*
X220645295Y-34137976D02*
X220550057Y-34185595D01*
X220550057Y-34185595D02*
X220502438Y-34233214D01*
X220502438Y-34233214D02*
X220454819Y-34328452D01*
X220454819Y-34328452D02*
X220454819Y-34518928D01*
X220454819Y-34518928D02*
X220502438Y-34614166D01*
X220502438Y-34614166D02*
X220550057Y-34661785D01*
X220550057Y-34661785D02*
X220645295Y-34709404D01*
X220645295Y-34709404D02*
X220692914Y-34709404D01*
X220692914Y-34709404D02*
X220788152Y-34661785D01*
X220788152Y-34661785D02*
X220835771Y-34614166D01*
X220835771Y-34614166D02*
X220883390Y-34518928D01*
X220883390Y-34518928D02*
X220883390Y-34328452D01*
X220883390Y-34328452D02*
X220931009Y-34233214D01*
X220931009Y-34233214D02*
X220978628Y-34185595D01*
X220978628Y-34185595D02*
X221073866Y-34137976D01*
X221073866Y-34137976D02*
X221264342Y-34137976D01*
X221264342Y-34137976D02*
X221359580Y-34185595D01*
X221359580Y-34185595D02*
X221407200Y-34233214D01*
X221407200Y-34233214D02*
X221454819Y-34328452D01*
X221454819Y-34328452D02*
X221454819Y-34518928D01*
X221454819Y-34518928D02*
X221407200Y-34614166D01*
X221407200Y-34614166D02*
X221359580Y-34661785D01*
X221359580Y-34661785D02*
X221264342Y-34709404D01*
X221264342Y-34709404D02*
X221073866Y-34709404D01*
X221073866Y-34709404D02*
X220978628Y-34661785D01*
X220978628Y-34661785D02*
X220931009Y-34614166D01*
X220931009Y-34614166D02*
X220883390Y-34518928D01*
X331074819Y-90825714D02*
X330074819Y-90825714D01*
X330074819Y-90825714D02*
X330074819Y-91063809D01*
X330074819Y-91063809D02*
X330122438Y-91206666D01*
X330122438Y-91206666D02*
X330217676Y-91301904D01*
X330217676Y-91301904D02*
X330312914Y-91349523D01*
X330312914Y-91349523D02*
X330503390Y-91397142D01*
X330503390Y-91397142D02*
X330646247Y-91397142D01*
X330646247Y-91397142D02*
X330836723Y-91349523D01*
X330836723Y-91349523D02*
X330931961Y-91301904D01*
X330931961Y-91301904D02*
X331027200Y-91206666D01*
X331027200Y-91206666D02*
X331074819Y-91063809D01*
X331074819Y-91063809D02*
X331074819Y-90825714D01*
X330408152Y-92254285D02*
X331074819Y-92254285D01*
X330027200Y-92016190D02*
X330741485Y-91778095D01*
X330741485Y-91778095D02*
X330741485Y-92397142D01*
X330074819Y-92968571D02*
X330074819Y-93063809D01*
X330074819Y-93063809D02*
X330122438Y-93159047D01*
X330122438Y-93159047D02*
X330170057Y-93206666D01*
X330170057Y-93206666D02*
X330265295Y-93254285D01*
X330265295Y-93254285D02*
X330455771Y-93301904D01*
X330455771Y-93301904D02*
X330693866Y-93301904D01*
X330693866Y-93301904D02*
X330884342Y-93254285D01*
X330884342Y-93254285D02*
X330979580Y-93206666D01*
X330979580Y-93206666D02*
X331027200Y-93159047D01*
X331027200Y-93159047D02*
X331074819Y-93063809D01*
X331074819Y-93063809D02*
X331074819Y-92968571D01*
X331074819Y-92968571D02*
X331027200Y-92873333D01*
X331027200Y-92873333D02*
X330979580Y-92825714D01*
X330979580Y-92825714D02*
X330884342Y-92778095D01*
X330884342Y-92778095D02*
X330693866Y-92730476D01*
X330693866Y-92730476D02*
X330455771Y-92730476D01*
X330455771Y-92730476D02*
X330265295Y-92778095D01*
X330265295Y-92778095D02*
X330170057Y-92825714D01*
X330170057Y-92825714D02*
X330122438Y-92873333D01*
X330122438Y-92873333D02*
X330074819Y-92968571D01*
X201804819Y-32273214D02*
X200804819Y-32273214D01*
X200804819Y-32273214D02*
X200804819Y-32511309D01*
X200804819Y-32511309D02*
X200852438Y-32654166D01*
X200852438Y-32654166D02*
X200947676Y-32749404D01*
X200947676Y-32749404D02*
X201042914Y-32797023D01*
X201042914Y-32797023D02*
X201233390Y-32844642D01*
X201233390Y-32844642D02*
X201376247Y-32844642D01*
X201376247Y-32844642D02*
X201566723Y-32797023D01*
X201566723Y-32797023D02*
X201661961Y-32749404D01*
X201661961Y-32749404D02*
X201757200Y-32654166D01*
X201757200Y-32654166D02*
X201804819Y-32511309D01*
X201804819Y-32511309D02*
X201804819Y-32273214D01*
X200804819Y-33177976D02*
X200804819Y-33797023D01*
X200804819Y-33797023D02*
X201185771Y-33463690D01*
X201185771Y-33463690D02*
X201185771Y-33606547D01*
X201185771Y-33606547D02*
X201233390Y-33701785D01*
X201233390Y-33701785D02*
X201281009Y-33749404D01*
X201281009Y-33749404D02*
X201376247Y-33797023D01*
X201376247Y-33797023D02*
X201614342Y-33797023D01*
X201614342Y-33797023D02*
X201709580Y-33749404D01*
X201709580Y-33749404D02*
X201757200Y-33701785D01*
X201757200Y-33701785D02*
X201804819Y-33606547D01*
X201804819Y-33606547D02*
X201804819Y-33320833D01*
X201804819Y-33320833D02*
X201757200Y-33225595D01*
X201757200Y-33225595D02*
X201709580Y-33177976D01*
X200804819Y-34416071D02*
X200804819Y-34511309D01*
X200804819Y-34511309D02*
X200852438Y-34606547D01*
X200852438Y-34606547D02*
X200900057Y-34654166D01*
X200900057Y-34654166D02*
X200995295Y-34701785D01*
X200995295Y-34701785D02*
X201185771Y-34749404D01*
X201185771Y-34749404D02*
X201423866Y-34749404D01*
X201423866Y-34749404D02*
X201614342Y-34701785D01*
X201614342Y-34701785D02*
X201709580Y-34654166D01*
X201709580Y-34654166D02*
X201757200Y-34606547D01*
X201757200Y-34606547D02*
X201804819Y-34511309D01*
X201804819Y-34511309D02*
X201804819Y-34416071D01*
X201804819Y-34416071D02*
X201757200Y-34320833D01*
X201757200Y-34320833D02*
X201709580Y-34273214D01*
X201709580Y-34273214D02*
X201614342Y-34225595D01*
X201614342Y-34225595D02*
X201423866Y-34177976D01*
X201423866Y-34177976D02*
X201185771Y-34177976D01*
X201185771Y-34177976D02*
X200995295Y-34225595D01*
X200995295Y-34225595D02*
X200900057Y-34273214D01*
X200900057Y-34273214D02*
X200852438Y-34320833D01*
X200852438Y-34320833D02*
X200804819Y-34416071D01*
X133009819Y-51785714D02*
X132009819Y-51785714D01*
X132009819Y-51785714D02*
X132009819Y-52023809D01*
X132009819Y-52023809D02*
X132057438Y-52166666D01*
X132057438Y-52166666D02*
X132152676Y-52261904D01*
X132152676Y-52261904D02*
X132247914Y-52309523D01*
X132247914Y-52309523D02*
X132438390Y-52357142D01*
X132438390Y-52357142D02*
X132581247Y-52357142D01*
X132581247Y-52357142D02*
X132771723Y-52309523D01*
X132771723Y-52309523D02*
X132866961Y-52261904D01*
X132866961Y-52261904D02*
X132962200Y-52166666D01*
X132962200Y-52166666D02*
X133009819Y-52023809D01*
X133009819Y-52023809D02*
X133009819Y-51785714D01*
X132009819Y-52690476D02*
X132009819Y-53309523D01*
X132009819Y-53309523D02*
X132390771Y-52976190D01*
X132390771Y-52976190D02*
X132390771Y-53119047D01*
X132390771Y-53119047D02*
X132438390Y-53214285D01*
X132438390Y-53214285D02*
X132486009Y-53261904D01*
X132486009Y-53261904D02*
X132581247Y-53309523D01*
X132581247Y-53309523D02*
X132819342Y-53309523D01*
X132819342Y-53309523D02*
X132914580Y-53261904D01*
X132914580Y-53261904D02*
X132962200Y-53214285D01*
X132962200Y-53214285D02*
X133009819Y-53119047D01*
X133009819Y-53119047D02*
X133009819Y-52833333D01*
X133009819Y-52833333D02*
X132962200Y-52738095D01*
X132962200Y-52738095D02*
X132914580Y-52690476D01*
X132343152Y-54166666D02*
X133009819Y-54166666D01*
X131962200Y-53928571D02*
X132676485Y-53690476D01*
X132676485Y-53690476D02*
X132676485Y-54309523D01*
X346749819Y-63974642D02*
X346273628Y-63641309D01*
X346749819Y-63403214D02*
X345749819Y-63403214D01*
X345749819Y-63403214D02*
X345749819Y-63784166D01*
X345749819Y-63784166D02*
X345797438Y-63879404D01*
X345797438Y-63879404D02*
X345845057Y-63927023D01*
X345845057Y-63927023D02*
X345940295Y-63974642D01*
X345940295Y-63974642D02*
X346083152Y-63974642D01*
X346083152Y-63974642D02*
X346178390Y-63927023D01*
X346178390Y-63927023D02*
X346226009Y-63879404D01*
X346226009Y-63879404D02*
X346273628Y-63784166D01*
X346273628Y-63784166D02*
X346273628Y-63403214D01*
X346749819Y-64927023D02*
X346749819Y-64355595D01*
X346749819Y-64641309D02*
X345749819Y-64641309D01*
X345749819Y-64641309D02*
X345892676Y-64546071D01*
X345892676Y-64546071D02*
X345987914Y-64450833D01*
X345987914Y-64450833D02*
X346035533Y-64355595D01*
X346749819Y-65879404D02*
X346749819Y-65307976D01*
X346749819Y-65593690D02*
X345749819Y-65593690D01*
X345749819Y-65593690D02*
X345892676Y-65498452D01*
X345892676Y-65498452D02*
X345987914Y-65403214D01*
X345987914Y-65403214D02*
X346035533Y-65307976D01*
D11*
%TO.C,SW65*%
X316385000Y-27140000D02*
X321485000Y-27140000D01*
X320285000Y-31340000D02*
X325385000Y-31340000D01*
X314385000Y-29140000D02*
G75*
G02*
X316385000Y-27140000I1999999J1D01*
G01*
X318285000Y-33340000D02*
G75*
G02*
X320285000Y-31340000I1999999J1D01*
G01*
%TO.C,SW21*%
X88845000Y-86140000D02*
X93945000Y-86140000D01*
X92745000Y-90340000D02*
X97845000Y-90340000D01*
X86845000Y-88140000D02*
G75*
G02*
X88845000Y-86140000I1999999J1D01*
G01*
X90745000Y-92340000D02*
G75*
G02*
X92745000Y-90340000I1999999J1D01*
G01*
%TO.C,SW8*%
X239845000Y-66640000D02*
X244945000Y-66640000D01*
X243745000Y-70840000D02*
X248845000Y-70840000D01*
X237845000Y-68640000D02*
G75*
G02*
X239845000Y-66640000I1999999J1D01*
G01*
X241745000Y-72840000D02*
G75*
G02*
X243745000Y-70840000I1999999J1D01*
G01*
%TO.C,SW58*%
X167425000Y-27640000D02*
X172525000Y-27640000D01*
X171325000Y-31840000D02*
X176425000Y-31840000D01*
X165425000Y-29640000D02*
G75*
G02*
X167425000Y-27640000I1999999J1D01*
G01*
X169325000Y-33840000D02*
G75*
G02*
X171325000Y-31840000I1999999J1D01*
G01*
%TO.C,SW12*%
X64425000Y-66640000D02*
X69525000Y-66640000D01*
X68325000Y-70840000D02*
X73425000Y-70840000D01*
X62425000Y-68640000D02*
G75*
G02*
X64425000Y-66640000I1999999J1D01*
G01*
X66325000Y-72840000D02*
G75*
G02*
X68325000Y-70840000I1999999J1D01*
G01*
%TO.C,SW18*%
X69765000Y-27640000D02*
X74865000Y-27640000D01*
X73665000Y-31840000D02*
X78765000Y-31840000D01*
X67765000Y-29640000D02*
G75*
G02*
X69765000Y-27640000I1999999J1D01*
G01*
X71665000Y-33840000D02*
G75*
G02*
X73665000Y-31840000I1999999J1D01*
G01*
%TO.C,SW22*%
X82180000Y-105640000D02*
X87280000Y-105640000D01*
X86080000Y-109840000D02*
X91180000Y-109840000D01*
X80180000Y-107640000D02*
G75*
G02*
X82180000Y-105640000I1999999J1D01*
G01*
X84080000Y-111840000D02*
G75*
G02*
X86080000Y-109840000I1999999J1D01*
G01*
%TO.C,SW64*%
X281400000Y-56600000D02*
X286500000Y-56600000D01*
X285300000Y-60800000D02*
X290400000Y-60800000D01*
X279400000Y-58600000D02*
G75*
G02*
X281400000Y-56600000I1999999J1D01*
G01*
X283300000Y-62800000D02*
G75*
G02*
X285300000Y-60800000I1999999J1D01*
G01*
%TO.C,SW39*%
X206765000Y-27640000D02*
X211865000Y-27640000D01*
X210665000Y-31840000D02*
X215765000Y-31840000D01*
X204765000Y-29640000D02*
G75*
G02*
X206765000Y-27640000I1999999J1D01*
G01*
X208665000Y-33840000D02*
G75*
G02*
X210665000Y-31840000I1999999J1D01*
G01*
%TO.C,SW40*%
X215845000Y-47140000D02*
X220945000Y-47140000D01*
X219745000Y-51340000D02*
X224845000Y-51340000D01*
X213845000Y-49140000D02*
G75*
G02*
X215845000Y-47140000I1999999J1D01*
G01*
X217745000Y-53340000D02*
G75*
G02*
X219745000Y-51340000I1999999J1D01*
G01*
%TO.C,SW32*%
X220400000Y-66702500D02*
X225500000Y-66702500D01*
X224300000Y-70902500D02*
X229400000Y-70902500D01*
X218400000Y-68702500D02*
G75*
G02*
X220400000Y-66702500I1999999J1D01*
G01*
X222300000Y-72902500D02*
G75*
G02*
X224300000Y-70902500I1999999J1D01*
G01*
%TO.C,SW9*%
X259430000Y-66680000D02*
X264530000Y-66680000D01*
X263330000Y-70880000D02*
X268430000Y-70880000D01*
X257430000Y-68680000D02*
G75*
G02*
X259430000Y-66680000I1999999J1D01*
G01*
X261330000Y-72880000D02*
G75*
G02*
X263330000Y-70880000I1999999J1D01*
G01*
%TO.C,SW19*%
X79345000Y-47140000D02*
X84445000Y-47140000D01*
X83245000Y-51340000D02*
X88345000Y-51340000D01*
X77345000Y-49140000D02*
G75*
G02*
X79345000Y-47140000I1999999J1D01*
G01*
X81245000Y-53340000D02*
G75*
G02*
X83245000Y-51340000I1999999J1D01*
G01*
%TO.C,SW49*%
X316305000Y-66140000D02*
X321405000Y-66140000D01*
X320205000Y-70340000D02*
X325305000Y-70340000D01*
X314305000Y-68140000D02*
G75*
G02*
X316305000Y-66140000I1999999J1D01*
G01*
X318205000Y-72340000D02*
G75*
G02*
X320205000Y-70340000I1999999J1D01*
G01*
%TO.C,SW13*%
X69345000Y-86140000D02*
X74445000Y-86140000D01*
X73245000Y-90340000D02*
X78345000Y-90340000D01*
X67345000Y-88140000D02*
G75*
G02*
X69345000Y-86140000I1999999J1D01*
G01*
X71245000Y-92340000D02*
G75*
G02*
X73245000Y-90340000I1999999J1D01*
G01*
%TO.C,SW11*%
X59765000Y-47140000D02*
X64865000Y-47140000D01*
X63665000Y-51340000D02*
X68765000Y-51340000D01*
X57765000Y-49140000D02*
G75*
G02*
X59765000Y-47140000I1999999J1D01*
G01*
X61665000Y-53340000D02*
G75*
G02*
X63665000Y-51340000I1999999J1D01*
G01*
%TO.C,SW54*%
X264655000Y-105640000D02*
X269755000Y-105640000D01*
X268555000Y-109840000D02*
X273655000Y-109840000D01*
X262655000Y-107640000D02*
G75*
G02*
X264655000Y-105640000I1999999J1D01*
G01*
X266555000Y-111840000D02*
G75*
G02*
X268555000Y-109840000I1999999J1D01*
G01*
%TO.C,SW29*%
X108345000Y-86140000D02*
X113445000Y-86140000D01*
X112245000Y-90340000D02*
X117345000Y-90340000D01*
X106345000Y-88140000D02*
G75*
G02*
X108345000Y-86140000I1999999J1D01*
G01*
X110245000Y-92340000D02*
G75*
G02*
X112245000Y-90340000I1999999J1D01*
G01*
%TO.C,SW59*%
X176925000Y-47140000D02*
X182025000Y-47140000D01*
X180825000Y-51340000D02*
X185925000Y-51340000D01*
X174925000Y-49140000D02*
G75*
G02*
X176925000Y-47140000I1999999J1D01*
G01*
X178825000Y-53340000D02*
G75*
G02*
X180825000Y-51340000I1999999J1D01*
G01*
%TO.C,SW53*%
X166925000Y-86140000D02*
X172025000Y-86140000D01*
X170825000Y-90340000D02*
X175925000Y-90340000D01*
X164925000Y-88140000D02*
G75*
G02*
X166925000Y-86140000I1999999J1D01*
G01*
X168825000Y-92340000D02*
G75*
G02*
X170825000Y-90340000I1999999J1D01*
G01*
%TO.C,SW17*%
X264425000Y-86140000D02*
X269525000Y-86140000D01*
X268325000Y-90340000D02*
X273425000Y-90340000D01*
X262425000Y-88140000D02*
G75*
G02*
X264425000Y-86140000I1999999J1D01*
G01*
X266325000Y-92340000D02*
G75*
G02*
X268325000Y-90340000I1999999J1D01*
G01*
%TO.C,SW25*%
X283925000Y-86140000D02*
X289025000Y-86140000D01*
X287825000Y-90340000D02*
X292925000Y-90340000D01*
X281925000Y-88140000D02*
G75*
G02*
X283925000Y-86140000I1999999J1D01*
G01*
X285825000Y-92340000D02*
G75*
G02*
X287825000Y-90340000I1999999J1D01*
G01*
%TO.C,SW63*%
X274820000Y-27600000D02*
X279920000Y-27600000D01*
X278720000Y-31800000D02*
X283820000Y-31800000D01*
X272820000Y-29600000D02*
G75*
G02*
X274820000Y-27600000I1999999J1D01*
G01*
X276720000Y-33800000D02*
G75*
G02*
X278720000Y-31800000I1999999J1D01*
G01*
%TO.C,SW34*%
X108845000Y-27640000D02*
X113945000Y-27640000D01*
X112745000Y-31840000D02*
X117845000Y-31840000D01*
X106845000Y-29640000D02*
G75*
G02*
X108845000Y-27640000I1999999J1D01*
G01*
X110745000Y-33840000D02*
G75*
G02*
X112745000Y-31840000I1999999J1D01*
G01*
%TO.C,SW2*%
X30710000Y-27640000D02*
X35810000Y-27640000D01*
X34610000Y-31840000D02*
X39710000Y-31840000D01*
X28710000Y-29640000D02*
G75*
G02*
X30710000Y-27640000I1999999J1D01*
G01*
X32610000Y-33840000D02*
G75*
G02*
X34610000Y-31840000I1999999J1D01*
G01*
%TO.C,SW52*%
X161925000Y-66640000D02*
X167025000Y-66640000D01*
X165825000Y-70840000D02*
X170925000Y-70840000D01*
X159925000Y-68640000D02*
G75*
G02*
X161925000Y-66640000I1999999J1D01*
G01*
X163825000Y-72840000D02*
G75*
G02*
X165825000Y-70840000I1999999J1D01*
G01*
%TO.C,SW7*%
X205765000Y-86140000D02*
X210865000Y-86140000D01*
X209665000Y-90340000D02*
X214765000Y-90340000D01*
X203765000Y-88140000D02*
G75*
G02*
X205765000Y-86140000I1999999J1D01*
G01*
X207665000Y-92340000D02*
G75*
G02*
X209665000Y-90340000I1999999J1D01*
G01*
%TO.C,SW42*%
X128265000Y-27640000D02*
X133365000Y-27640000D01*
X132165000Y-31840000D02*
X137265000Y-31840000D01*
X126265000Y-29640000D02*
G75*
G02*
X128265000Y-27640000I1999999J1D01*
G01*
X130165000Y-33840000D02*
G75*
G02*
X132165000Y-31840000I1999999J1D01*
G01*
%TO.C,SW24*%
X225345000Y-86140000D02*
X230445000Y-86140000D01*
X229245000Y-90340000D02*
X234345000Y-90340000D01*
X223345000Y-88140000D02*
G75*
G02*
X225345000Y-86140000I1999999J1D01*
G01*
X227245000Y-92340000D02*
G75*
G02*
X229245000Y-90340000I1999999J1D01*
G01*
%TO.C,SW43*%
X137845000Y-47140000D02*
X142945000Y-47140000D01*
X141745000Y-51340000D02*
X146845000Y-51340000D01*
X135845000Y-49140000D02*
G75*
G02*
X137845000Y-47140000I1999999J1D01*
G01*
X139745000Y-53340000D02*
G75*
G02*
X141745000Y-51340000I1999999J1D01*
G01*
%TO.C,SW61*%
X186265000Y-86140000D02*
X191365000Y-86140000D01*
X190165000Y-90340000D02*
X195265000Y-90340000D01*
X184265000Y-88140000D02*
G75*
G02*
X186265000Y-86140000I1999999J1D01*
G01*
X188165000Y-92340000D02*
G75*
G02*
X190165000Y-90340000I1999999J1D01*
G01*
%TO.C,SW6*%
X33345000Y-105640000D02*
X38445000Y-105640000D01*
X37245000Y-109840000D02*
X42345000Y-109840000D01*
X31345000Y-107640000D02*
G75*
G02*
X33345000Y-105640000I1999999J1D01*
G01*
X35245000Y-111840000D02*
G75*
G02*
X37245000Y-109840000I1999999J1D01*
G01*
%TO.C,SW20*%
X83845000Y-66640000D02*
X88945000Y-66640000D01*
X87745000Y-70840000D02*
X92845000Y-70840000D01*
X81845000Y-68640000D02*
G75*
G02*
X83845000Y-66640000I1999999J1D01*
G01*
X85745000Y-72840000D02*
G75*
G02*
X87745000Y-70840000I1999999J1D01*
G01*
%TO.C,SW44*%
X142345000Y-66640000D02*
X147445000Y-66640000D01*
X146245000Y-70840000D02*
X151345000Y-70840000D01*
X140345000Y-68640000D02*
G75*
G02*
X142345000Y-66640000I1999999J1D01*
G01*
X144245000Y-72840000D02*
G75*
G02*
X146245000Y-70840000I1999999J1D01*
G01*
%TO.C,SW3*%
X35425000Y-47140000D02*
X40525000Y-47140000D01*
X39325000Y-51340000D02*
X44425000Y-51340000D01*
X33425000Y-49140000D02*
G75*
G02*
X35425000Y-47140000I1999999J1D01*
G01*
X37325000Y-53340000D02*
G75*
G02*
X39325000Y-51340000I1999999J1D01*
G01*
%TO.C,SW50*%
X147845000Y-27640000D02*
X152945000Y-27640000D01*
X151745000Y-31840000D02*
X156845000Y-31840000D01*
X145845000Y-29640000D02*
G75*
G02*
X147845000Y-27640000I1999999J1D01*
G01*
X149745000Y-33840000D02*
G75*
G02*
X151745000Y-31840000I1999999J1D01*
G01*
%TO.C,SW23*%
X196425000Y-47140000D02*
X201525000Y-47140000D01*
X200325000Y-51340000D02*
X205425000Y-51340000D01*
X194425000Y-49140000D02*
G75*
G02*
X196425000Y-47140000I1999999J1D01*
G01*
X198325000Y-53340000D02*
G75*
G02*
X200325000Y-51340000I1999999J1D01*
G01*
%TO.C,SW55*%
X245765000Y-27640000D02*
X250865000Y-27640000D01*
X249665000Y-31840000D02*
X254765000Y-31840000D01*
X243765000Y-29640000D02*
G75*
G02*
X245765000Y-27640000I1999999J1D01*
G01*
X247665000Y-33840000D02*
G75*
G02*
X249665000Y-31840000I1999999J1D01*
G01*
%TO.C,SW47*%
X226265000Y-27640000D02*
X231365000Y-27640000D01*
X230165000Y-31840000D02*
X235265000Y-31840000D01*
X224265000Y-29640000D02*
G75*
G02*
X226265000Y-27640000I1999999J1D01*
G01*
X228165000Y-33840000D02*
G75*
G02*
X230165000Y-31840000I1999999J1D01*
G01*
%TO.C,SW38*%
X173985000Y-105640000D02*
X179085000Y-105640000D01*
X177885000Y-109840000D02*
X182985000Y-109840000D01*
X171985000Y-107640000D02*
G75*
G02*
X173985000Y-105640000I1999999J1D01*
G01*
X175885000Y-111840000D02*
G75*
G02*
X177885000Y-109840000I1999999J1D01*
G01*
%TO.C,SW36*%
X122845000Y-66640000D02*
X127945000Y-66640000D01*
X126745000Y-70840000D02*
X131845000Y-70840000D01*
X120845000Y-68640000D02*
G75*
G02*
X122845000Y-66640000I1999999J1D01*
G01*
X124745000Y-72840000D02*
G75*
G02*
X126745000Y-70840000I1999999J1D01*
G01*
%TO.C,SW30*%
X104425000Y-105640000D02*
X109525000Y-105640000D01*
X108325000Y-109840000D02*
X113425000Y-109840000D01*
X102425000Y-107640000D02*
G75*
G02*
X104425000Y-105640000I1999999J1D01*
G01*
X106325000Y-111840000D02*
G75*
G02*
X108325000Y-109840000I1999999J1D01*
G01*
%TO.C,SW26*%
X89345000Y-27640000D02*
X94445000Y-27640000D01*
X93245000Y-31840000D02*
X98345000Y-31840000D01*
X87345000Y-29640000D02*
G75*
G02*
X89345000Y-27640000I1999999J1D01*
G01*
X91245000Y-33840000D02*
G75*
G02*
X93245000Y-31840000I1999999J1D01*
G01*
%TO.C,SW10*%
X50265000Y-27640000D02*
X55365000Y-27640000D01*
X54165000Y-31840000D02*
X59265000Y-31840000D01*
X48265000Y-29640000D02*
G75*
G02*
X50265000Y-27640000I1999999J1D01*
G01*
X52165000Y-33840000D02*
G75*
G02*
X54165000Y-31840000I1999999J1D01*
G01*
%TO.C,SW60*%
X181425000Y-66640000D02*
X186525000Y-66640000D01*
X185325000Y-70840000D02*
X190425000Y-70840000D01*
X179425000Y-68640000D02*
G75*
G02*
X181425000Y-66640000I1999999J1D01*
G01*
X183325000Y-72840000D02*
G75*
G02*
X185325000Y-70840000I1999999J1D01*
G01*
%TO.C,SW35*%
X118265000Y-47140000D02*
X123365000Y-47140000D01*
X122165000Y-51340000D02*
X127265000Y-51340000D01*
X116265000Y-49140000D02*
G75*
G02*
X118265000Y-47140000I1999999J1D01*
G01*
X120165000Y-53340000D02*
G75*
G02*
X122165000Y-51340000I1999999J1D01*
G01*
%TO.C,SW27*%
X98765000Y-47140000D02*
X103865000Y-47140000D01*
X102665000Y-51340000D02*
X107765000Y-51340000D01*
X96765000Y-49140000D02*
G75*
G02*
X98765000Y-47140000I1999999J1D01*
G01*
X100665000Y-53340000D02*
G75*
G02*
X102665000Y-51340000I1999999J1D01*
G01*
%TO.C,SW51*%
X157425000Y-47140000D02*
X162525000Y-47140000D01*
X161325000Y-51340000D02*
X166425000Y-51340000D01*
X155425000Y-49140000D02*
G75*
G02*
X157425000Y-47140000I1999999J1D01*
G01*
X159325000Y-53340000D02*
G75*
G02*
X161325000Y-51340000I1999999J1D01*
G01*
%TO.C,SW16*%
X244925000Y-86140000D02*
X250025000Y-86140000D01*
X248825000Y-90340000D02*
X253925000Y-90340000D01*
X242925000Y-88140000D02*
G75*
G02*
X244925000Y-86140000I1999999J1D01*
G01*
X246825000Y-92340000D02*
G75*
G02*
X248825000Y-90340000I1999999J1D01*
G01*
%TO.C,SW14*%
X57765000Y-105640000D02*
X62865000Y-105640000D01*
X61665000Y-109840000D02*
X66765000Y-109840000D01*
X55765000Y-107640000D02*
G75*
G02*
X57765000Y-105640000I1999999J1D01*
G01*
X59665000Y-111840000D02*
G75*
G02*
X61665000Y-109840000I1999999J1D01*
G01*
%TO.C,SW41*%
X316385000Y-86140000D02*
X321485000Y-86140000D01*
X320285000Y-90340000D02*
X325385000Y-90340000D01*
X314385000Y-88140000D02*
G75*
G02*
X316385000Y-86140000I1999999J1D01*
G01*
X318285000Y-92340000D02*
G75*
G02*
X320285000Y-90340000I1999999J1D01*
G01*
%TO.C,SW33*%
X316385000Y-105640000D02*
X321485000Y-105640000D01*
X320285000Y-109840000D02*
X325385000Y-109840000D01*
X314385000Y-107640000D02*
G75*
G02*
X316385000Y-105640000I1999999J1D01*
G01*
X318285000Y-111840000D02*
G75*
G02*
X320285000Y-109840000I1999999J1D01*
G01*
%TO.C,SW56*%
X254765000Y-47140000D02*
X259865000Y-47140000D01*
X258665000Y-51340000D02*
X263765000Y-51340000D01*
X252765000Y-49140000D02*
G75*
G02*
X254765000Y-47140000I1999999J1D01*
G01*
X256665000Y-53340000D02*
G75*
G02*
X258665000Y-51340000I1999999J1D01*
G01*
%TO.C,SW48*%
X235265000Y-47140000D02*
X240365000Y-47140000D01*
X239165000Y-51340000D02*
X244265000Y-51340000D01*
X233265000Y-49140000D02*
G75*
G02*
X235265000Y-47140000I1999999J1D01*
G01*
X237165000Y-53340000D02*
G75*
G02*
X239165000Y-51340000I1999999J1D01*
G01*
%TO.C,SW5*%
X40320000Y-86100000D02*
X45420000Y-86100000D01*
X44220000Y-90300000D02*
X49320000Y-90300000D01*
X38320000Y-88100000D02*
G75*
G02*
X40320000Y-86100000I1999999J1D01*
G01*
X42220000Y-92300000D02*
G75*
G02*
X44220000Y-90300000I1999999J1D01*
G01*
%TO.C,SW57*%
X316385000Y-46640000D02*
X321485000Y-46640000D01*
X320285000Y-50840000D02*
X325385000Y-50840000D01*
X314385000Y-48640000D02*
G75*
G02*
X316385000Y-46640000I1999999J1D01*
G01*
X318285000Y-52840000D02*
G75*
G02*
X320285000Y-50840000I1999999J1D01*
G01*
%TO.C,SW31*%
X187155000Y-27680000D02*
X192255000Y-27680000D01*
X191055000Y-31880000D02*
X196155000Y-31880000D01*
X185155000Y-29680000D02*
G75*
G02*
X187155000Y-27680000I1999999J1D01*
G01*
X189055000Y-33880000D02*
G75*
G02*
X191055000Y-31880000I1999999J1D01*
G01*
%TO.C,SW45*%
X147425000Y-86140000D02*
X152525000Y-86140000D01*
X151325000Y-90340000D02*
X156425000Y-90340000D01*
X145425000Y-88140000D02*
G75*
G02*
X147425000Y-86140000I1999999J1D01*
G01*
X149325000Y-92340000D02*
G75*
G02*
X151325000Y-90340000I1999999J1D01*
G01*
%TO.C,SW15*%
X200845000Y-66680000D02*
X205945000Y-66680000D01*
X204745000Y-70880000D02*
X209845000Y-70880000D01*
X198845000Y-68680000D02*
G75*
G02*
X200845000Y-66680000I1999999J1D01*
G01*
X202745000Y-72880000D02*
G75*
G02*
X204745000Y-70880000I1999999J1D01*
G01*
%TO.C,SW28*%
X103345000Y-66640000D02*
X108445000Y-66640000D01*
X107245000Y-70840000D02*
X112345000Y-70840000D01*
X101345000Y-68640000D02*
G75*
G02*
X103345000Y-66640000I1999999J1D01*
G01*
X105245000Y-72840000D02*
G75*
G02*
X107245000Y-70840000I1999999J1D01*
G01*
%TO.C,SW46*%
X244735000Y-105640000D02*
X249835000Y-105640000D01*
X248635000Y-109840000D02*
X253735000Y-109840000D01*
X242735000Y-107640000D02*
G75*
G02*
X244735000Y-105640000I1999999J1D01*
G01*
X246635000Y-111840000D02*
G75*
G02*
X248635000Y-109840000I1999999J1D01*
G01*
%TO.C,SW4*%
X37845000Y-66640000D02*
X42945000Y-66640000D01*
X41745000Y-70840000D02*
X46845000Y-70840000D01*
X35845000Y-68640000D02*
G75*
G02*
X37845000Y-66640000I1999999J1D01*
G01*
X39745000Y-72840000D02*
G75*
G02*
X41745000Y-70840000I1999999J1D01*
G01*
%TO.C,SW62*%
X284240000Y-105680000D02*
X289340000Y-105680000D01*
X288140000Y-109880000D02*
X293240000Y-109880000D01*
X282240000Y-107680000D02*
G75*
G02*
X284240000Y-105680000I1999999J1D01*
G01*
X286140000Y-111880000D02*
G75*
G02*
X288140000Y-109880000I1999999J1D01*
G01*
%TO.C,SW37*%
X127765000Y-86140000D02*
X132865000Y-86140000D01*
X131665000Y-90340000D02*
X136765000Y-90340000D01*
X125765000Y-88140000D02*
G75*
G02*
X127765000Y-86140000I1999999J1D01*
G01*
X129665000Y-92340000D02*
G75*
G02*
X131665000Y-90340000I1999999J1D01*
G01*
%TO.C,D41*%
X139905000Y-35162500D02*
X139905000Y-32477500D01*
X141825000Y-32477500D02*
X141825000Y-35162500D01*
X141825000Y-35162500D02*
X139905000Y-35162500D01*
%TO.C,D25*%
X100985000Y-35225000D02*
X100985000Y-32540000D01*
X102905000Y-32540000D02*
X102905000Y-35225000D01*
X102905000Y-35225000D02*
X100985000Y-35225000D01*
%TO.C,R13*%
X338460000Y-64757064D02*
X338460000Y-64302936D01*
X339930000Y-64757064D02*
X339930000Y-64302936D01*
%TO.C,D22*%
X208065000Y-54695000D02*
X208065000Y-52010000D01*
X209985000Y-52010000D02*
X209985000Y-54695000D01*
X209985000Y-54695000D02*
X208065000Y-54695000D01*
%TO.C,D53*%
X276240000Y-113185000D02*
X276240000Y-110500000D01*
X278160000Y-110500000D02*
X278160000Y-113185000D01*
X278160000Y-113185000D02*
X276240000Y-113185000D01*
%TO.C,R5*%
X343510000Y-79715436D02*
X343510000Y-80169564D01*
X344980000Y-79715436D02*
X344980000Y-80169564D01*
%TO.C,R15*%
X340960000Y-36952064D02*
X340960000Y-36497936D01*
X342430000Y-36952064D02*
X342430000Y-36497936D01*
%TO.C,D5*%
X45200000Y-113197500D02*
X45200000Y-110512500D01*
X47120000Y-110512500D02*
X47120000Y-113197500D01*
X47120000Y-113197500D02*
X45200000Y-113197500D01*
%TO.C,R8*%
X337910000Y-79715436D02*
X337910000Y-80169564D01*
X339380000Y-79715436D02*
X339380000Y-80169564D01*
%TO.C,R18*%
X335960000Y-51497936D02*
X335960000Y-51952064D01*
X337430000Y-51497936D02*
X337430000Y-51952064D01*
%TO.C,D54*%
X257405000Y-35225000D02*
X257405000Y-32540000D01*
X259325000Y-32540000D02*
X259325000Y-35225000D01*
X259325000Y-35225000D02*
X257405000Y-35225000D01*
%TO.C,D47*%
X246850000Y-54662500D02*
X246850000Y-51977500D01*
X248770000Y-51977500D02*
X248770000Y-54662500D01*
X248770000Y-54662500D02*
X246850000Y-54662500D01*
%TO.C,D64*%
X328010000Y-35122500D02*
X328010000Y-32437500D01*
X329930000Y-32437500D02*
X329930000Y-35122500D01*
X329930000Y-35122500D02*
X328010000Y-35122500D01*
%TO.C,D43*%
X153970000Y-74145000D02*
X153970000Y-71460000D01*
X155890000Y-71460000D02*
X155890000Y-74145000D01*
X155890000Y-74145000D02*
X153970000Y-74145000D01*
%TO.C,D8*%
X271205000Y-74087500D02*
X271205000Y-71402500D01*
X273125000Y-71402500D02*
X273125000Y-74087500D01*
X273125000Y-74087500D02*
X271205000Y-74087500D01*
%TO.C,R14*%
X338460000Y-36952064D02*
X338460000Y-36497936D01*
X339930000Y-36952064D02*
X339930000Y-36497936D01*
%TO.C,D36*%
X139485000Y-93787500D02*
X139485000Y-91102500D01*
X141405000Y-91102500D02*
X141405000Y-93787500D01*
X141405000Y-93787500D02*
X139485000Y-93787500D01*
%TO.C,D17*%
X81485000Y-35225000D02*
X81485000Y-32540000D01*
X83405000Y-32540000D02*
X83405000Y-35225000D01*
X83405000Y-35225000D02*
X81485000Y-35225000D01*
%TO.C,D39*%
X227470000Y-54725000D02*
X227470000Y-52040000D01*
X229390000Y-52040000D02*
X229390000Y-54725000D01*
X229390000Y-54725000D02*
X227470000Y-54725000D01*
%TO.C,D21*%
X93985000Y-113225000D02*
X93985000Y-110540000D01*
X95905000Y-110540000D02*
X95905000Y-113225000D01*
X95905000Y-113225000D02*
X93985000Y-113225000D01*
%TO.C,D60*%
X197890000Y-93622500D02*
X197890000Y-90937500D01*
X199810000Y-90937500D02*
X199810000Y-93622500D01*
X199810000Y-93622500D02*
X197890000Y-93622500D01*
%TO.C,R19*%
X337960000Y-51497936D02*
X337960000Y-51952064D01*
X339430000Y-51497936D02*
X339430000Y-51952064D01*
%TO.C,R9*%
X340960000Y-64844564D02*
X340960000Y-64390436D01*
X342430000Y-64844564D02*
X342430000Y-64390436D01*
%TO.C,D11*%
X75985000Y-74225000D02*
X75985000Y-71540000D01*
X77905000Y-71540000D02*
X77905000Y-74225000D01*
X77905000Y-74225000D02*
X75985000Y-74225000D01*
%TO.C,D46*%
X237850000Y-35195000D02*
X237850000Y-32510000D01*
X239770000Y-32510000D02*
X239770000Y-35195000D01*
X239770000Y-35195000D02*
X237850000Y-35195000D01*
%TO.C,D23*%
X236985000Y-93725000D02*
X236985000Y-91040000D01*
X238905000Y-91040000D02*
X238905000Y-93725000D01*
X238905000Y-93725000D02*
X236985000Y-93725000D01*
%TO.C,D48*%
X327890000Y-73725000D02*
X327890000Y-71040000D01*
X329810000Y-71040000D02*
X329810000Y-73725000D01*
X329810000Y-73725000D02*
X327890000Y-73725000D01*
%TO.C,D33*%
X120525000Y-35162500D02*
X120525000Y-32477500D01*
X122445000Y-32477500D02*
X122445000Y-35162500D01*
X122445000Y-35162500D02*
X120525000Y-35162500D01*
%TO.C,D28*%
X119985000Y-93725000D02*
X119985000Y-91040000D01*
X121905000Y-91040000D02*
X121905000Y-93725000D01*
X121905000Y-93725000D02*
X119985000Y-93725000D01*
%TO.C,D50*%
X169065000Y-54622500D02*
X169065000Y-51937500D01*
X170985000Y-51937500D02*
X170985000Y-54622500D01*
X170985000Y-54622500D02*
X169065000Y-54622500D01*
%TO.C,D42*%
X149485000Y-54622500D02*
X149485000Y-51937500D01*
X151405000Y-51937500D02*
X151405000Y-54622500D01*
X151405000Y-54622500D02*
X149485000Y-54622500D01*
%TO.C,D35*%
X134485000Y-74225000D02*
X134485000Y-71540000D01*
X136405000Y-71540000D02*
X136405000Y-74225000D01*
X136405000Y-74225000D02*
X134485000Y-74225000D01*
%TO.C,R6*%
X335460000Y-64757064D02*
X335460000Y-64302936D01*
X336930000Y-64757064D02*
X336930000Y-64302936D01*
%TO.C,D13*%
X69485000Y-113225000D02*
X69485000Y-110540000D01*
X71405000Y-110540000D02*
X71405000Y-113225000D01*
X71405000Y-113225000D02*
X69485000Y-113225000D01*
%TO.C,D27*%
X114985000Y-74225000D02*
X114985000Y-71540000D01*
X116905000Y-71540000D02*
X116905000Y-74225000D01*
X116905000Y-74225000D02*
X114985000Y-74225000D01*
%TO.C,D2*%
X46985000Y-54725000D02*
X46985000Y-52040000D01*
X48905000Y-52040000D02*
X48905000Y-54725000D01*
X48905000Y-54725000D02*
X46985000Y-54725000D01*
%TO.C,D59*%
X192985000Y-74287500D02*
X192985000Y-71602500D01*
X194905000Y-71602500D02*
X194905000Y-74287500D01*
X194905000Y-74287500D02*
X192985000Y-74287500D01*
%TO.C,D45*%
X256320000Y-113122500D02*
X256320000Y-110437500D01*
X258240000Y-110437500D02*
X258240000Y-113122500D01*
X258240000Y-113122500D02*
X256320000Y-113122500D01*
%TO.C,D24*%
X295565000Y-93662500D02*
X295565000Y-90977500D01*
X297485000Y-90977500D02*
X297485000Y-93662500D01*
X297485000Y-93662500D02*
X295565000Y-93662500D01*
%TO.C,R12*%
X344460000Y-51585436D02*
X344460000Y-52039564D01*
X345930000Y-51585436D02*
X345930000Y-52039564D01*
%TO.C,D31*%
X231985000Y-74287500D02*
X231985000Y-71602500D01*
X233905000Y-71602500D02*
X233905000Y-74287500D01*
X233905000Y-74287500D02*
X231985000Y-74287500D01*
%TO.C,D51*%
X173550000Y-74082500D02*
X173550000Y-71397500D01*
X175470000Y-71397500D02*
X175470000Y-74082500D01*
X175470000Y-74082500D02*
X173550000Y-74082500D01*
%TO.C,D12*%
X80985000Y-93725000D02*
X80985000Y-91040000D01*
X82905000Y-91040000D02*
X82905000Y-93725000D01*
X82905000Y-93725000D02*
X80985000Y-93725000D01*
%TO.C,D18*%
X90985000Y-54725000D02*
X90985000Y-52040000D01*
X92905000Y-52040000D02*
X92905000Y-54725000D01*
X92905000Y-54725000D02*
X90985000Y-54725000D01*
%TO.C,D63*%
X294485000Y-67162500D02*
X294485000Y-64477500D01*
X296405000Y-64477500D02*
X296405000Y-67162500D01*
X296405000Y-67162500D02*
X294485000Y-67162500D01*
%TO.C,D58*%
X188485000Y-54725000D02*
X188485000Y-52040000D01*
X190405000Y-52040000D02*
X190405000Y-54725000D01*
X190405000Y-54725000D02*
X188485000Y-54725000D01*
%TO.C,D62*%
X286550000Y-35155000D02*
X286550000Y-32470000D01*
X288470000Y-32470000D02*
X288470000Y-35155000D01*
X288470000Y-35155000D02*
X286550000Y-35155000D01*
%TO.C,D56*%
X327970000Y-54162500D02*
X327970000Y-51477500D01*
X329890000Y-51477500D02*
X329890000Y-54162500D01*
X329890000Y-54162500D02*
X327970000Y-54162500D01*
%TO.C,D49*%
X159485000Y-35162500D02*
X159485000Y-32477500D01*
X161405000Y-32477500D02*
X161405000Y-35162500D01*
X161405000Y-35162500D02*
X159485000Y-35162500D01*
%TO.C,D32*%
X327970000Y-113225000D02*
X327970000Y-110540000D01*
X329890000Y-110540000D02*
X329890000Y-113225000D01*
X329890000Y-113225000D02*
X327970000Y-113225000D01*
%TO.C,R17*%
X335960000Y-36952064D02*
X335960000Y-36497936D01*
X337430000Y-36952064D02*
X337430000Y-36497936D01*
%TO.C,R10*%
X340860000Y-79715436D02*
X340860000Y-80169564D01*
X342330000Y-79715436D02*
X342330000Y-80169564D01*
%TO.C,D19*%
X95485000Y-74225000D02*
X95485000Y-71540000D01*
X97405000Y-71540000D02*
X97405000Y-74225000D01*
X97405000Y-74225000D02*
X95485000Y-74225000D01*
%TO.C,D44*%
X158985000Y-93787500D02*
X158985000Y-91102500D01*
X160905000Y-91102500D02*
X160905000Y-93787500D01*
X160905000Y-93787500D02*
X158985000Y-93787500D01*
%TO.C,D16*%
X276105000Y-93725000D02*
X276105000Y-91040000D01*
X278025000Y-91040000D02*
X278025000Y-93725000D01*
X278025000Y-93725000D02*
X276105000Y-93725000D01*
%TO.C,R7*%
X334960000Y-79715436D02*
X334960000Y-80169564D01*
X336430000Y-79715436D02*
X336430000Y-80169564D01*
%TO.C,U3*%
X334945000Y-44540000D02*
X334945000Y-42590000D01*
X334945000Y-44540000D02*
X334945000Y-46490000D01*
X345065000Y-44540000D02*
X345065000Y-42590000D01*
X345065000Y-44540000D02*
X345065000Y-46490000D01*
X335000000Y-41840000D02*
X334670000Y-42080000D01*
X334670000Y-41600000D01*
X335000000Y-41840000D01*
G36*
X335000000Y-41840000D02*
G01*
X334670000Y-42080000D01*
X334670000Y-41600000D01*
X335000000Y-41840000D01*
G37*
%TO.C,D14*%
X212525000Y-74315000D02*
X212525000Y-71630000D01*
X214445000Y-71630000D02*
X214445000Y-74315000D01*
X214445000Y-74315000D02*
X212525000Y-74315000D01*
%TO.C,D52*%
X178485000Y-93662500D02*
X178485000Y-90977500D01*
X180405000Y-90977500D02*
X180405000Y-93662500D01*
X180405000Y-93662500D02*
X178485000Y-93662500D01*
%TO.C,D3*%
X49620000Y-74235000D02*
X49620000Y-71550000D01*
X51540000Y-71550000D02*
X51540000Y-74235000D01*
X51540000Y-74235000D02*
X49620000Y-74235000D01*
%TO.C,D7*%
X251620000Y-74097500D02*
X251620000Y-71412500D01*
X253540000Y-71412500D02*
X253540000Y-74097500D01*
X253540000Y-74097500D02*
X251620000Y-74097500D01*
%TO.C,R20*%
X341460000Y-51410436D02*
X341460000Y-51864564D01*
X342930000Y-51410436D02*
X342930000Y-51864564D01*
%TO.C,R16*%
X343960000Y-36952064D02*
X343960000Y-36497936D01*
X345430000Y-36952064D02*
X345430000Y-36497936D01*
%TO.C,D29*%
X116010000Y-113122500D02*
X116010000Y-110437500D01*
X117930000Y-110437500D02*
X117930000Y-113122500D01*
X117930000Y-113122500D02*
X116010000Y-113122500D01*
%TO.C,D4*%
X51985000Y-93725000D02*
X51985000Y-91040000D01*
X53905000Y-91040000D02*
X53905000Y-93725000D01*
X53905000Y-93725000D02*
X51985000Y-93725000D01*
%TO.C,D1*%
X42485000Y-35225000D02*
X42485000Y-32540000D01*
X44405000Y-32540000D02*
X44405000Y-35225000D01*
X44405000Y-35225000D02*
X42485000Y-35225000D01*
%TO.C,D6*%
X217540000Y-93647500D02*
X217540000Y-90962500D01*
X219460000Y-90962500D02*
X219460000Y-93647500D01*
X219460000Y-93647500D02*
X217540000Y-93647500D01*
%TO.C,D20*%
X100485000Y-93725000D02*
X100485000Y-91040000D01*
X102405000Y-91040000D02*
X102405000Y-93725000D01*
X102405000Y-93725000D02*
X100485000Y-93725000D01*
%TO.C,D37*%
X188235000Y-106540000D02*
X190920000Y-106540000D01*
X188235000Y-108460000D02*
X188235000Y-106540000D01*
X190920000Y-108460000D02*
X188235000Y-108460000D01*
%TO.C,D55*%
X266350000Y-54725000D02*
X266350000Y-52040000D01*
X268270000Y-52040000D02*
X268270000Y-54725000D01*
X268270000Y-54725000D02*
X266350000Y-54725000D01*
%TO.C,D15*%
X256605000Y-93725000D02*
X256605000Y-91040000D01*
X258525000Y-91040000D02*
X258525000Y-93725000D01*
X258525000Y-93725000D02*
X256605000Y-93725000D01*
%TO.C,U4*%
X334945000Y-72540000D02*
X334945000Y-70590000D01*
X334945000Y-72540000D02*
X334945000Y-74490000D01*
X345065000Y-72540000D02*
X345065000Y-70590000D01*
X345065000Y-72540000D02*
X345065000Y-74490000D01*
X335000000Y-69840000D02*
X334670000Y-70080000D01*
X334670000Y-69600000D01*
X335000000Y-69840000D01*
G36*
X335000000Y-69840000D02*
G01*
X334670000Y-70080000D01*
X334670000Y-69600000D01*
X335000000Y-69840000D01*
G37*
%TO.C,D26*%
X110485000Y-54725000D02*
X110485000Y-52040000D01*
X112405000Y-52040000D02*
X112405000Y-54725000D01*
X112405000Y-54725000D02*
X110485000Y-54725000D01*
%TO.C,D57*%
X178985000Y-35225000D02*
X178985000Y-32540000D01*
X180905000Y-32540000D02*
X180905000Y-35225000D01*
X180905000Y-35225000D02*
X178985000Y-35225000D01*
%TO.C,D9*%
X61985000Y-35225000D02*
X61985000Y-32540000D01*
X63905000Y-32540000D02*
X63905000Y-35225000D01*
X63905000Y-35225000D02*
X61985000Y-35225000D01*
%TO.C,D10*%
X71485000Y-54725000D02*
X71485000Y-52040000D01*
X73405000Y-52040000D02*
X73405000Y-54725000D01*
X73405000Y-54725000D02*
X71485000Y-54725000D01*
%TO.C,D61*%
X295880000Y-113265000D02*
X295880000Y-110580000D01*
X297800000Y-110580000D02*
X297800000Y-113265000D01*
X297800000Y-113265000D02*
X295880000Y-113265000D01*
%TO.C,D38*%
X218390000Y-35132500D02*
X218390000Y-32447500D01*
X220310000Y-32447500D02*
X220310000Y-35132500D01*
X220310000Y-35132500D02*
X218390000Y-35132500D01*
%TO.C,D40*%
X328010000Y-93725000D02*
X328010000Y-91040000D01*
X329930000Y-91040000D02*
X329930000Y-93725000D01*
X329930000Y-93725000D02*
X328010000Y-93725000D01*
%TO.C,D30*%
X198740000Y-35172500D02*
X198740000Y-32487500D01*
X200660000Y-32487500D02*
X200660000Y-35172500D01*
X200660000Y-35172500D02*
X198740000Y-35172500D01*
%TO.C,D34*%
X129945000Y-54685000D02*
X129945000Y-52000000D01*
X131865000Y-52000000D02*
X131865000Y-54685000D01*
X131865000Y-54685000D02*
X129945000Y-54685000D01*
%TO.C,R11*%
X343910000Y-64844564D02*
X343910000Y-64390436D01*
X345380000Y-64844564D02*
X345380000Y-64390436D01*
%TD*%
M02*
