%TF.GenerationSoftware,KiCad,Pcbnew,9.0.3*%
%TF.CreationDate,2025-09-09T09:23:43+09:00*%
%TF.ProjectId,Frekeys,4672656b-6579-4732-9e6b-696361645f70,rev?*%
%TF.SameCoordinates,Original*%
%TF.FileFunction,Copper,L2,Bot*%
%TF.FilePolarity,Positive*%
%FSLAX46Y46*%
G04 Gerber Fmt 4.6, Leading zero omitted, Abs format (unit mm)*
G04 Created by KiCad (PCBNEW 9.0.3) date 2025-09-09 09:23:43*
%MOMM*%
%LPD*%
G01*
G04 APERTURE LIST*
G04 Aperture macros list*
%AMRoundRect*
0 Rectangle with rounded corners*
0 $1 Rounding radius*
0 $2 $3 $4 $5 $6 $7 $8 $9 X,Y pos of 4 corners*
0 Add a 4 corners polygon primitive as box body*
4,1,4,$2,$3,$4,$5,$6,$7,$8,$9,$2,$3,0*
0 Add four circle primitives for the rounded corners*
1,1,$1+$1,$2,$3*
1,1,$1+$1,$4,$5*
1,1,$1+$1,$6,$7*
1,1,$1+$1,$8,$9*
0 Add four rect primitives between the rounded corners*
20,1,$1+$1,$2,$3,$4,$5,0*
20,1,$1+$1,$4,$5,$6,$7,0*
20,1,$1+$1,$6,$7,$8,$9,0*
20,1,$1+$1,$8,$9,$2,$3,0*%
G04 Aperture macros list end*
%TA.AperFunction,ComponentPad*%
%ADD10O,2.200000X1.200000*%
%TD*%
%TA.AperFunction,ComponentPad*%
%ADD11O,1.200000X2.200000*%
%TD*%
%TA.AperFunction,SMDPad,CuDef*%
%ADD12RoundRect,0.250000X-1.025000X-1.000000X1.025000X-1.000000X1.025000X1.000000X-1.025000X1.000000X0*%
%TD*%
%TA.AperFunction,ComponentPad*%
%ADD13C,4.000000*%
%TD*%
%TA.AperFunction,ComponentPad*%
%ADD14R,1.500000X1.500000*%
%TD*%
%TA.AperFunction,ComponentPad*%
%ADD15C,1.500000*%
%TD*%
%TA.AperFunction,ComponentPad*%
%ADD16RoundRect,0.250000X-0.550000X-0.550000X0.550000X-0.550000X0.550000X0.550000X-0.550000X0.550000X0*%
%TD*%
%TA.AperFunction,ComponentPad*%
%ADD17C,1.600000*%
%TD*%
%TA.AperFunction,ComponentPad*%
%ADD18O,4.100000X3.000000*%
%TD*%
%TA.AperFunction,ComponentPad*%
%ADD19R,2.000000X1.200000*%
%TD*%
%TA.AperFunction,ComponentPad*%
%ADD20O,2.000000X1.200000*%
%TD*%
%TA.AperFunction,SMDPad,CuDef*%
%ADD21RoundRect,0.243750X0.456250X-0.243750X0.456250X0.243750X-0.456250X0.243750X-0.456250X-0.243750X0*%
%TD*%
%TA.AperFunction,SMDPad,CuDef*%
%ADD22RoundRect,0.250000X0.450000X-0.262500X0.450000X0.262500X-0.450000X0.262500X-0.450000X-0.262500X0*%
%TD*%
%TA.AperFunction,SMDPad,CuDef*%
%ADD23RoundRect,0.250000X-0.450000X0.262500X-0.450000X-0.262500X0.450000X-0.262500X0.450000X0.262500X0*%
%TD*%
%TA.AperFunction,SMDPad,CuDef*%
%ADD24RoundRect,0.150000X-0.150000X0.825000X-0.150000X-0.825000X0.150000X-0.825000X0.150000X0.825000X0*%
%TD*%
%TA.AperFunction,SMDPad,CuDef*%
%ADD25RoundRect,0.243750X-0.243750X-0.456250X0.243750X-0.456250X0.243750X0.456250X-0.243750X0.456250X0*%
%TD*%
%TA.AperFunction,ViaPad*%
%ADD26C,0.600000*%
%TD*%
%TA.AperFunction,Conductor*%
%ADD27C,0.200000*%
%TD*%
G04 APERTURE END LIST*
D10*
%TO.P,J1,T*%
%TO.N,Net-(C2-Pad1)*%
X413000000Y-102000000D03*
D11*
%TO.P,J1,S*%
%TO.N,GND*%
X418000000Y-107000000D03*
D10*
%TO.P,J1,R*%
%TO.N,Net-(C1-Pad1)*%
X413000000Y-112000000D03*
%TD*%
D12*
%TO.P,SW65,1,1*%
%TO.N,/Keyboard/C7*%
X313400000Y-31500000D03*
%TO.P,SW65,2,2*%
%TO.N,Net-(D64-A)*%
X326327000Y-28960000D03*
%TD*%
%TO.P,SW21,1,1*%
%TO.N,/Keyboard/C2*%
X85860000Y-90500000D03*
%TO.P,SW21,2,2*%
%TO.N,Net-(D20-A)*%
X98787000Y-87960000D03*
%TD*%
%TO.P,SW8,1,1*%
%TO.N,/Keyboard/C*%
X236860000Y-71000000D03*
%TO.P,SW8,2,2*%
%TO.N,Net-(D7-A)*%
X249787000Y-68460000D03*
%TD*%
%TO.P,SW58,1,1*%
%TO.N,/Keyboard/C7*%
X164440000Y-32000000D03*
%TO.P,SW58,2,2*%
%TO.N,Net-(D57-A)*%
X177367000Y-29460000D03*
%TD*%
%TO.P,SW12,1,1*%
%TO.N,/Keyboard/C1*%
X61440000Y-71000000D03*
%TO.P,SW12,2,2*%
%TO.N,Net-(D11-A)*%
X74367000Y-68460000D03*
%TD*%
%TO.P,SW18,1,1*%
%TO.N,/Keyboard/C2*%
X66780000Y-32000000D03*
%TO.P,SW18,2,2*%
%TO.N,Net-(D17-A)*%
X79707000Y-29460000D03*
%TD*%
D13*
%TO.P,U1,*%
%TO.N,*%
X385380000Y-91405420D03*
X419480000Y-91405420D03*
X385380000Y-30205420D03*
X419480000Y-30205420D03*
D14*
%TO.P,U1,1,VCC*%
%TO.N,Net-(U1-VCC)*%
X392270000Y-92905420D03*
D15*
%TO.P,U1,2,GND*%
%TO.N,GND*%
X394810000Y-92905420D03*
%TO.P,U1,3,~{CS}*%
%TO.N,Net-(U1-~{CS})*%
X397350000Y-92905420D03*
%TO.P,U1,4,RESET*%
%TO.N,Net-(U1-RESET)*%
X399890000Y-92905420D03*
%TO.P,U1,5,D/~{C}*%
%TO.N,Net-(U1-D{slash}~{C})*%
X402430000Y-92905420D03*
%TO.P,U1,6,MOSI*%
%TO.N,Net-(U1-MOSI)*%
X404970000Y-92905420D03*
%TO.P,U1,7,SCK*%
%TO.N,Net-(U1-SCK)*%
X407510000Y-92905420D03*
%TO.P,U1,8,LED*%
%TO.N,Net-(U1-LED)*%
X410050000Y-92905420D03*
%TO.P,U1,9,MISO*%
%TO.N,Net-(U1-MISO)*%
X412590000Y-92905420D03*
%TO.P,U1,10,SD_CS*%
%TO.N,Net-(U1-SD_CS)*%
X397350000Y-29385420D03*
%TO.P,U1,11,SD_MOSI*%
%TO.N,Net-(U1-SD_MOSI)*%
X399890000Y-29385420D03*
%TO.P,U1,12,SD_MISO*%
%TO.N,Net-(U1-SD_MISO)*%
X402430000Y-29385420D03*
%TO.P,U1,13,SD_SCK*%
%TO.N,Net-(U1-SD_SCK)*%
X404970000Y-29385420D03*
%TO.P,U1,14,FLASH_CD*%
%TO.N,Net-(U1-FLASH_CD)*%
X407510000Y-29385420D03*
%TD*%
D12*
%TO.P,SW22,1,1*%
%TO.N,/Keyboard/C2*%
X79195000Y-110000000D03*
%TO.P,SW22,2,2*%
%TO.N,Net-(D21-A)*%
X92122000Y-107460000D03*
%TD*%
%TO.P,SW64,1,1*%
%TO.N,/Keyboard/C7*%
X278415000Y-60960000D03*
%TO.P,SW64,2,2*%
%TO.N,Net-(D63-A)*%
X291342000Y-58420000D03*
%TD*%
%TO.P,SW39,1,1*%
%TO.N,/Keyboard/C4*%
X203780000Y-32000000D03*
%TO.P,SW39,2,2*%
%TO.N,Net-(D38-A)*%
X216707000Y-29460000D03*
%TD*%
%TO.P,SW40,1,1*%
%TO.N,/Keyboard/C4*%
X212860000Y-51500000D03*
%TO.P,SW40,2,2*%
%TO.N,Net-(D39-A)*%
X225787000Y-48960000D03*
%TD*%
%TO.P,SW32,1,1*%
%TO.N,/Keyboard/C3*%
X217415000Y-71062500D03*
%TO.P,SW32,2,2*%
%TO.N,Net-(D31-A)*%
X230342000Y-68522500D03*
%TD*%
%TO.P,SW9,1,1*%
%TO.N,/Keyboard/C*%
X256445000Y-71040000D03*
%TO.P,SW9,2,2*%
%TO.N,Net-(D8-A)*%
X269372000Y-68500000D03*
%TD*%
%TO.P,SW19,1,1*%
%TO.N,/Keyboard/C2*%
X76360000Y-51500000D03*
%TO.P,SW19,2,2*%
%TO.N,Net-(D18-A)*%
X89287000Y-48960000D03*
%TD*%
%TO.P,SW49,1,1*%
%TO.N,/Keyboard/C5*%
X313320000Y-70500000D03*
%TO.P,SW49,2,2*%
%TO.N,Net-(D48-A)*%
X326247000Y-67960000D03*
%TD*%
%TO.P,SW13,1,1*%
%TO.N,/Keyboard/C1*%
X66360000Y-90500000D03*
%TO.P,SW13,2,2*%
%TO.N,Net-(D12-A)*%
X79287000Y-87960000D03*
%TD*%
%TO.P,SW11,1,1*%
%TO.N,/Keyboard/C1*%
X56780000Y-51500000D03*
%TO.P,SW11,2,2*%
%TO.N,Net-(D10-A)*%
X69707000Y-48960000D03*
%TD*%
%TO.P,SW54,1,1*%
%TO.N,/Keyboard/C6*%
X261670000Y-110000000D03*
%TO.P,SW54,2,2*%
%TO.N,Net-(D53-A)*%
X274597000Y-107460000D03*
%TD*%
%TO.P,SW29,1,1*%
%TO.N,/Keyboard/C3*%
X105360000Y-90500000D03*
%TO.P,SW29,2,2*%
%TO.N,Net-(D28-A)*%
X118287000Y-87960000D03*
%TD*%
%TO.P,SW59,1,1*%
%TO.N,/Keyboard/C7*%
X173940000Y-51500000D03*
%TO.P,SW59,2,2*%
%TO.N,Net-(D58-A)*%
X186867000Y-48960000D03*
%TD*%
%TO.P,SW53,1,1*%
%TO.N,/Keyboard/C6*%
X163940000Y-90500000D03*
%TO.P,SW53,2,2*%
%TO.N,Net-(D52-A)*%
X176867000Y-87960000D03*
%TD*%
%TO.P,SW17,1,1*%
%TO.N,/Keyboard/C1*%
X261440000Y-90500000D03*
%TO.P,SW17,2,2*%
%TO.N,Net-(D16-A)*%
X274367000Y-87960000D03*
%TD*%
%TO.P,SW25,1,1*%
%TO.N,/Keyboard/C2*%
X280940000Y-90500000D03*
%TO.P,SW25,2,2*%
%TO.N,Net-(D24-A)*%
X293867000Y-87960000D03*
%TD*%
%TO.P,SW63,1,1*%
%TO.N,/Keyboard/C7*%
X271835000Y-31960000D03*
%TO.P,SW63,2,2*%
%TO.N,Net-(D62-A)*%
X284762000Y-29420000D03*
%TD*%
%TO.P,SW34,1,1*%
%TO.N,/Keyboard/C4*%
X105860000Y-32000000D03*
%TO.P,SW34,2,2*%
%TO.N,Net-(D33-A)*%
X118787000Y-29460000D03*
%TD*%
%TO.P,SW2,1,1*%
%TO.N,/Keyboard/C*%
X27725000Y-32000000D03*
%TO.P,SW2,2,2*%
%TO.N,Net-(D1-A)*%
X40652000Y-29460000D03*
%TD*%
%TO.P,SW52,1,1*%
%TO.N,/Keyboard/C6*%
X158940000Y-71000000D03*
%TO.P,SW52,2,2*%
%TO.N,Net-(D51-A)*%
X171867000Y-68460000D03*
%TD*%
%TO.P,SW7,1,1*%
%TO.N,/Keyboard/C*%
X202780000Y-90500000D03*
%TO.P,SW7,2,2*%
%TO.N,Net-(D6-A)*%
X215707000Y-87960000D03*
%TD*%
%TO.P,SW42,1,1*%
%TO.N,/Keyboard/C5*%
X125280000Y-32000000D03*
%TO.P,SW42,2,2*%
%TO.N,Net-(D41-A)*%
X138207000Y-29460000D03*
%TD*%
%TO.P,SW24,1,1*%
%TO.N,/Keyboard/C2*%
X222360000Y-90500000D03*
%TO.P,SW24,2,2*%
%TO.N,Net-(D23-A)*%
X235287000Y-87960000D03*
%TD*%
%TO.P,SW43,1,1*%
%TO.N,/Keyboard/C5*%
X134860000Y-51500000D03*
%TO.P,SW43,2,2*%
%TO.N,Net-(D42-A)*%
X147787000Y-48960000D03*
%TD*%
%TO.P,SW61,1,1*%
%TO.N,/Keyboard/C7*%
X183280000Y-90500000D03*
%TO.P,SW61,2,2*%
%TO.N,Net-(D60-A)*%
X196207000Y-87960000D03*
%TD*%
%TO.P,SW6,1,1*%
%TO.N,/Keyboard/C*%
X30360000Y-110000000D03*
%TO.P,SW6,2,2*%
%TO.N,Net-(D5-A)*%
X43287000Y-107460000D03*
%TD*%
%TO.P,SW20,1,1*%
%TO.N,/Keyboard/C2*%
X80860000Y-71000000D03*
%TO.P,SW20,2,2*%
%TO.N,Net-(D19-A)*%
X93787000Y-68460000D03*
%TD*%
%TO.P,SW44,1,1*%
%TO.N,/Keyboard/C5*%
X139360000Y-71000000D03*
%TO.P,SW44,2,2*%
%TO.N,Net-(D43-A)*%
X152287000Y-68460000D03*
%TD*%
%TO.P,SW3,1,1*%
%TO.N,/Keyboard/C*%
X32440000Y-51500000D03*
%TO.P,SW3,2,2*%
%TO.N,Net-(D2-A)*%
X45367000Y-48960000D03*
%TD*%
%TO.P,SW50,1,1*%
%TO.N,/Keyboard/C6*%
X144860000Y-32000000D03*
%TO.P,SW50,2,2*%
%TO.N,Net-(D49-A)*%
X157787000Y-29460000D03*
%TD*%
D16*
%TO.P,SW1,A,A*%
%TO.N,Net-(U2-GPIO46)*%
X386680000Y-105447920D03*
D17*
%TO.P,SW1,B,B*%
%TO.N,Net-(U2-GPIO47)*%
X386680000Y-110447920D03*
%TO.P,SW1,C,C*%
%TO.N,GND*%
X386680000Y-107947920D03*
%TO.P,SW1,S1,S1*%
%TO.N,Net-(U2-GPIO48)*%
X401180000Y-105447920D03*
%TO.P,SW1,S2,S2*%
%TO.N,GND*%
X401180000Y-110447920D03*
D18*
%TO.P,SW1,SH*%
%TO.N,N/C*%
X394180000Y-102347920D03*
X394180000Y-113547920D03*
%TD*%
D12*
%TO.P,SW23,1,1*%
%TO.N,/Keyboard/C2*%
X193440000Y-51500000D03*
%TO.P,SW23,2,2*%
%TO.N,Net-(D22-A)*%
X206367000Y-48960000D03*
%TD*%
%TO.P,SW55,1,1*%
%TO.N,/Keyboard/C6*%
X242780000Y-32000000D03*
%TO.P,SW55,2,2*%
%TO.N,Net-(D54-A)*%
X255707000Y-29460000D03*
%TD*%
%TO.P,SW47,1,1*%
%TO.N,/Keyboard/C5*%
X223280000Y-32000000D03*
%TO.P,SW47,2,2*%
%TO.N,Net-(D46-A)*%
X236207000Y-29460000D03*
%TD*%
%TO.P,SW38,1,1*%
%TO.N,/Keyboard/C4*%
X171000000Y-110000000D03*
%TO.P,SW38,2,2*%
%TO.N,Net-(D37-A)*%
X183927000Y-107460000D03*
%TD*%
%TO.P,SW36,1,1*%
%TO.N,/Keyboard/C4*%
X119860000Y-71000000D03*
%TO.P,SW36,2,2*%
%TO.N,Net-(D35-A)*%
X132787000Y-68460000D03*
%TD*%
%TO.P,SW30,1,1*%
%TO.N,/Keyboard/C3*%
X101440000Y-110000000D03*
%TO.P,SW30,2,2*%
%TO.N,Net-(D29-A)*%
X114367000Y-107460000D03*
%TD*%
%TO.P,SW26,1,1*%
%TO.N,/Keyboard/C3*%
X86360000Y-32000000D03*
%TO.P,SW26,2,2*%
%TO.N,Net-(D25-A)*%
X99287000Y-29460000D03*
%TD*%
%TO.P,SW10,1,1*%
%TO.N,/Keyboard/C1*%
X47280000Y-32000000D03*
%TO.P,SW10,2,2*%
%TO.N,Net-(D9-A)*%
X60207000Y-29460000D03*
%TD*%
%TO.P,SW60,1,1*%
%TO.N,/Keyboard/C7*%
X178440000Y-71000000D03*
%TO.P,SW60,2,2*%
%TO.N,Net-(D59-A)*%
X191367000Y-68460000D03*
%TD*%
%TO.P,SW35,1,1*%
%TO.N,/Keyboard/C4*%
X115280000Y-51500000D03*
%TO.P,SW35,2,2*%
%TO.N,Net-(D34-A)*%
X128207000Y-48960000D03*
%TD*%
%TO.P,SW27,1,1*%
%TO.N,/Keyboard/C3*%
X95780000Y-51500000D03*
%TO.P,SW27,2,2*%
%TO.N,Net-(D26-A)*%
X108707000Y-48960000D03*
%TD*%
%TO.P,SW51,1,1*%
%TO.N,/Keyboard/C6*%
X154440000Y-51500000D03*
%TO.P,SW51,2,2*%
%TO.N,Net-(D50-A)*%
X167367000Y-48960000D03*
%TD*%
%TO.P,SW16,1,1*%
%TO.N,/Keyboard/C1*%
X241940000Y-90500000D03*
%TO.P,SW16,2,2*%
%TO.N,Net-(D15-A)*%
X254867000Y-87960000D03*
%TD*%
%TO.P,SW14,1,1*%
%TO.N,/Keyboard/C1*%
X54780000Y-110000000D03*
%TO.P,SW14,2,2*%
%TO.N,Net-(D13-A)*%
X67707000Y-107460000D03*
%TD*%
%TO.P,SW41,1,1*%
%TO.N,/Keyboard/C4*%
X313400000Y-90500000D03*
%TO.P,SW41,2,2*%
%TO.N,Net-(D40-A)*%
X326327000Y-87960000D03*
%TD*%
%TO.P,SW33,1,1*%
%TO.N,/Keyboard/C3*%
X313400000Y-110000000D03*
%TO.P,SW33,2,2*%
%TO.N,Net-(D32-A)*%
X326327000Y-107460000D03*
%TD*%
%TO.P,SW56,1,1*%
%TO.N,/Keyboard/C6*%
X251780000Y-51500000D03*
%TO.P,SW56,2,2*%
%TO.N,Net-(D55-A)*%
X264707000Y-48960000D03*
%TD*%
%TO.P,SW48,1,1*%
%TO.N,/Keyboard/C5*%
X232280000Y-51500000D03*
%TO.P,SW48,2,2*%
%TO.N,Net-(D47-A)*%
X245207000Y-48960000D03*
%TD*%
%TO.P,SW5,1,1*%
%TO.N,/Keyboard/C*%
X37335000Y-90460000D03*
%TO.P,SW5,2,2*%
%TO.N,Net-(D4-A)*%
X50262000Y-87920000D03*
%TD*%
%TO.P,SW57,1,1*%
%TO.N,/Keyboard/C6*%
X313400000Y-51000000D03*
%TO.P,SW57,2,2*%
%TO.N,Net-(D56-A)*%
X326327000Y-48460000D03*
%TD*%
%TO.P,SW31,1,1*%
%TO.N,/Keyboard/C3*%
X184170000Y-32040000D03*
%TO.P,SW31,2,2*%
%TO.N,Net-(D30-A)*%
X197097000Y-29500000D03*
%TD*%
%TO.P,SW45,1,1*%
%TO.N,/Keyboard/C5*%
X144440000Y-90500000D03*
%TO.P,SW45,2,2*%
%TO.N,Net-(D44-A)*%
X157367000Y-87960000D03*
%TD*%
%TO.P,SW15,1,1*%
%TO.N,/Keyboard/C1*%
X197860000Y-71040000D03*
%TO.P,SW15,2,2*%
%TO.N,Net-(D14-A)*%
X210787000Y-68500000D03*
%TD*%
%TO.P,SW28,1,1*%
%TO.N,/Keyboard/C3*%
X100360000Y-71000000D03*
%TO.P,SW28,2,2*%
%TO.N,Net-(D27-A)*%
X113287000Y-68460000D03*
%TD*%
%TO.P,SW46,1,1*%
%TO.N,/Keyboard/C5*%
X241750000Y-110000000D03*
%TO.P,SW46,2,2*%
%TO.N,Net-(D45-A)*%
X254677000Y-107460000D03*
%TD*%
D19*
%TO.P,U2,1,3V3*%
%TO.N,Net-(U1-VCC)*%
X375360000Y-87340000D03*
D20*
%TO.P,U2,2,3V3*%
X375360000Y-84800000D03*
%TO.P,U2,3,CHIP_PU*%
%TO.N,Net-(U2-CHIP_PU)*%
X375360000Y-82260000D03*
%TO.P,U2,4,GPIO4/ADC1_CH3*%
%TO.N,Net-(U2-GPIO4{slash}ADC1_CH3)*%
X375360000Y-79720000D03*
%TO.P,U2,5,GPIO5/ADC1_CH4*%
%TO.N,Net-(U2-GPIO5{slash}ADC1_CH4)*%
X375360000Y-77180000D03*
%TO.P,U2,6,GPIO6/ADC1_CH5*%
%TO.N,unconnected-(U2-GPIO6{slash}ADC1_CH5-Pad6)*%
X375360000Y-74640000D03*
%TO.P,U2,7,GPIO7/ADC1_CH6*%
%TO.N,Net-(U2-GPIO7{slash}ADC1_CH6)*%
X375360000Y-72100000D03*
%TO.P,U2,8,GPIO15/ADC2_CH4/32K_P*%
%TO.N,unconnected-(U2-GPIO15{slash}ADC2_CH4{slash}32K_P-Pad8)*%
X375360000Y-69560000D03*
%TO.P,U2,9,GPIO16/ADC2_CH5/32K_N*%
%TO.N,unconnected-(U2-GPIO16{slash}ADC2_CH5{slash}32K_N-Pad9)*%
X375360000Y-67020000D03*
%TO.P,U2,10,GPIO17/ADC2_CH6*%
%TO.N,Net-(U2-GPIO17{slash}ADC2_CH6)*%
X375360000Y-64480000D03*
%TO.P,U2,11,GPIO18/ADC2_CH7*%
%TO.N,Net-(U2-GPIO18{slash}ADC2_CH7)*%
X375360000Y-61940000D03*
%TO.P,U2,12,GPIO8/ADC1_CH7*%
%TO.N,Net-(U1-D{slash}~{C})*%
X375360000Y-59400000D03*
%TO.P,U2,13,GPIO3/ADC1_CH2*%
%TO.N,Net-(U1-LED)*%
X375360000Y-56860000D03*
%TO.P,U2,14,GPIO46*%
%TO.N,Net-(U2-GPIO46)*%
X375360000Y-54320000D03*
%TO.P,U2,15,GPIO9/ADC1_CH8*%
%TO.N,Net-(U1-RESET)*%
X375360000Y-51780000D03*
%TO.P,U2,16,GPIO10/ADC1_CH9*%
%TO.N,Net-(U1-~{CS})*%
X375360000Y-49240000D03*
%TO.P,U2,17,GPIO11/ADC2_CH0*%
%TO.N,Net-(U1-MOSI)*%
X375360000Y-46700000D03*
%TO.P,U2,18,GPIO12/ADC2_CH1*%
%TO.N,Net-(U1-SCK)*%
X375360000Y-44160000D03*
%TO.P,U2,19,GPIO13/ADC2_CH2*%
%TO.N,Net-(U1-MISO)*%
X375360000Y-41620000D03*
%TO.P,U2,20,GPIO14/ADC2_CH3*%
%TO.N,unconnected-(U2-GPIO14{slash}ADC2_CH3-Pad20)*%
X375363680Y-39082720D03*
%TO.P,U2,21,5V*%
%TO.N,unconnected-(U2-5V-Pad21)*%
X375363680Y-36542720D03*
%TO.P,U2,22,GND*%
%TO.N,GND*%
X375363680Y-34002720D03*
%TO.P,U2,23,GND*%
X352500000Y-34000000D03*
%TO.P,U2,24,GND*%
X352500000Y-36540000D03*
%TO.P,U2,25,GPIO19/USB_D-*%
%TO.N,unconnected-(U2-GPIO19{slash}USB_D--Pad25)*%
X352500000Y-39080000D03*
%TO.P,U2,26,GPIO20/USB_D+*%
%TO.N,unconnected-(U2-GPIO20{slash}USB_D+-Pad26)*%
X352500000Y-41620000D03*
%TO.P,U2,27,GPIO21*%
%TO.N,unconnected-(U2-GPIO21-Pad27)*%
X352500000Y-44160000D03*
%TO.P,U2,28,GPIO47*%
%TO.N,Net-(U2-GPIO47)*%
X352500000Y-46700000D03*
%TO.P,U2,29,GPIO48*%
%TO.N,Net-(U2-GPIO48)*%
X352500000Y-49240000D03*
%TO.P,U2,30,GPIO45*%
%TO.N,unconnected-(U2-GPIO45-Pad30)*%
X352500000Y-51780000D03*
%TO.P,U2,31,GPIO0*%
%TO.N,unconnected-(U2-GPIO0-Pad31)*%
X352500000Y-54320000D03*
%TO.P,U2,32,GPIO35*%
%TO.N,Net-(U1-SD_MOSI)*%
X352500000Y-56860000D03*
%TO.P,U2,33,GPIO36*%
%TO.N,Net-(U1-SD_SCK)*%
X352500000Y-59400000D03*
%TO.P,U2,34,GPIO37*%
%TO.N,Net-(U1-SD_MISO)*%
X352500000Y-61940000D03*
%TO.P,U2,35,GPIO38*%
%TO.N,unconnected-(U2-GPIO38-Pad35)*%
X352500000Y-64480000D03*
%TO.P,U2,36,GPIO39/MTCK*%
%TO.N,unconnected-(U2-GPIO39{slash}MTCK-Pad36)*%
X352500000Y-67020000D03*
%TO.P,U2,37,GPIO40/MTDO*%
%TO.N,unconnected-(U2-GPIO40{slash}MTDO-Pad37)*%
X352500000Y-69560000D03*
%TO.P,U2,38,GPIO41/MTDI*%
%TO.N,unconnected-(U2-GPIO41{slash}MTDI-Pad38)*%
X352500000Y-72100000D03*
%TO.P,U2,39,GPIO42/MTMS*%
%TO.N,unconnected-(U2-GPIO42{slash}MTMS-Pad39)*%
X352500000Y-74640000D03*
%TO.P,U2,40,GPIO2/ADC1_CH1*%
%TO.N,Net-(U1-SD_CS)*%
X352500000Y-77180000D03*
%TO.P,U2,41,GPIO1/ADC1_CH0*%
%TO.N,Net-(U1-FLASH_CD)*%
X352500000Y-79720000D03*
%TO.P,U2,42,GPIO44/U0RXD*%
%TO.N,unconnected-(U2-GPIO44{slash}U0RXD-Pad42)*%
X352500000Y-82260000D03*
%TO.P,U2,43,GPIO43/U0TXD*%
%TO.N,unconnected-(U2-GPIO43{slash}U0TXD-Pad43)*%
X352500000Y-84800000D03*
%TO.P,U2,44,GND*%
%TO.N,GND*%
X352500000Y-87340000D03*
%TD*%
D12*
%TO.P,SW4,1,1*%
%TO.N,/Keyboard/C*%
X34860000Y-71000000D03*
%TO.P,SW4,2,2*%
%TO.N,Net-(D3-A)*%
X47787000Y-68460000D03*
%TD*%
%TO.P,SW62,1,1*%
%TO.N,/Keyboard/C7*%
X281255000Y-110040000D03*
%TO.P,SW62,2,2*%
%TO.N,Net-(D61-A)*%
X294182000Y-107500000D03*
%TD*%
%TO.P,SW37,1,1*%
%TO.N,/Keyboard/C4*%
X124780000Y-90500000D03*
%TO.P,SW37,2,2*%
%TO.N,Net-(D36-A)*%
X137707000Y-87960000D03*
%TD*%
D21*
%TO.P,D41,1,K*%
%TO.N,/Keyboard/R*%
X140865000Y-34415000D03*
%TO.P,D41,2,A*%
%TO.N,Net-(D41-A)*%
X140865000Y-32540000D03*
%TD*%
%TO.P,D25,1,K*%
%TO.N,/Keyboard/R*%
X101945000Y-34477500D03*
%TO.P,D25,2,A*%
%TO.N,Net-(D25-A)*%
X101945000Y-32602500D03*
%TD*%
D22*
%TO.P,R13,1*%
%TO.N,Net-(U4-D5)*%
X339195000Y-65442500D03*
%TO.P,R13,2*%
%TO.N,/Keyboard/R2*%
X339195000Y-63617500D03*
%TD*%
D21*
%TO.P,D22,1,K*%
%TO.N,/Keyboard/R5*%
X209025000Y-53947500D03*
%TO.P,D22,2,A*%
%TO.N,Net-(D22-A)*%
X209025000Y-52072500D03*
%TD*%
%TO.P,D53,1,K*%
%TO.N,/Keyboard/R4*%
X277200000Y-112437500D03*
%TO.P,D53,2,A*%
%TO.N,Net-(D53-A)*%
X277200000Y-110562500D03*
%TD*%
D23*
%TO.P,R5,1*%
%TO.N,Net-(U4-D0)*%
X344245000Y-79030000D03*
%TO.P,R5,2*%
%TO.N,/Keyboard/R7*%
X344245000Y-80855000D03*
%TD*%
D22*
%TO.P,R15,1*%
%TO.N,Net-(U3-D6)*%
X341695000Y-37637500D03*
%TO.P,R15,2*%
%TO.N,/Keyboard/C1*%
X341695000Y-35812500D03*
%TD*%
D21*
%TO.P,D5,1,K*%
%TO.N,/Keyboard/R4*%
X46160000Y-112450000D03*
%TO.P,D5,2,A*%
%TO.N,Net-(D5-A)*%
X46160000Y-110575000D03*
%TD*%
D23*
%TO.P,R8,1*%
%TO.N,Net-(U4-D2)*%
X338645000Y-79030000D03*
%TO.P,R8,2*%
%TO.N,/Keyboard/R5*%
X338645000Y-80855000D03*
%TD*%
%TO.P,R18,1*%
%TO.N,Net-(U3-D3)*%
X336695000Y-50812500D03*
%TO.P,R18,2*%
%TO.N,/Keyboard/C4*%
X336695000Y-52637500D03*
%TD*%
D21*
%TO.P,D54,1,K*%
%TO.N,/Keyboard/R5*%
X258365000Y-34477500D03*
%TO.P,D54,2,A*%
%TO.N,Net-(D54-A)*%
X258365000Y-32602500D03*
%TD*%
%TO.P,D47,1,K*%
%TO.N,/Keyboard/R6*%
X247810000Y-53915000D03*
%TO.P,D47,2,A*%
%TO.N,Net-(D47-A)*%
X247810000Y-52040000D03*
%TD*%
%TO.P,D64,1,K*%
%TO.N,/Keyboard/R7*%
X328970000Y-34375000D03*
%TO.P,D64,2,A*%
%TO.N,Net-(D64-A)*%
X328970000Y-32500000D03*
%TD*%
%TO.P,D43,1,K*%
%TO.N,/Keyboard/R2*%
X154930000Y-73397500D03*
%TO.P,D43,2,A*%
%TO.N,Net-(D43-A)*%
X154930000Y-71522500D03*
%TD*%
%TO.P,D8,1,K*%
%TO.N,/Keyboard/R7*%
X272165000Y-73340000D03*
%TO.P,D8,2,A*%
%TO.N,Net-(D8-A)*%
X272165000Y-71465000D03*
%TD*%
D22*
%TO.P,R14,1*%
%TO.N,Net-(U3-D5)*%
X339195000Y-37637500D03*
%TO.P,R14,2*%
%TO.N,/Keyboard/C2*%
X339195000Y-35812500D03*
%TD*%
D21*
%TO.P,D36,1,K*%
%TO.N,/Keyboard/R3*%
X140445000Y-93040000D03*
%TO.P,D36,2,A*%
%TO.N,Net-(D36-A)*%
X140445000Y-91165000D03*
%TD*%
%TO.P,D17,1,K*%
%TO.N,/Keyboard/R*%
X82445000Y-34477500D03*
%TO.P,D17,2,A*%
%TO.N,Net-(D17-A)*%
X82445000Y-32602500D03*
%TD*%
%TO.P,D39,1,K*%
%TO.N,/Keyboard/R6*%
X228430000Y-53977500D03*
%TO.P,D39,2,A*%
%TO.N,Net-(D39-A)*%
X228430000Y-52102500D03*
%TD*%
%TO.P,D21,1,K*%
%TO.N,/Keyboard/R4*%
X94945000Y-112477500D03*
%TO.P,D21,2,A*%
%TO.N,Net-(D21-A)*%
X94945000Y-110602500D03*
%TD*%
%TO.P,D60,1,K*%
%TO.N,/Keyboard/R3*%
X198850000Y-92875000D03*
%TO.P,D60,2,A*%
%TO.N,Net-(D60-A)*%
X198850000Y-91000000D03*
%TD*%
D23*
%TO.P,R19,1*%
%TO.N,Net-(U3-D2)*%
X338695000Y-50812500D03*
%TO.P,R19,2*%
%TO.N,/Keyboard/C5*%
X338695000Y-52637500D03*
%TD*%
D22*
%TO.P,R9,1*%
%TO.N,Net-(U4-D6)*%
X341695000Y-65530000D03*
%TO.P,R9,2*%
%TO.N,/Keyboard/R1*%
X341695000Y-63705000D03*
%TD*%
D21*
%TO.P,D11,1,K*%
%TO.N,/Keyboard/R2*%
X76945000Y-73477500D03*
%TO.P,D11,2,A*%
%TO.N,Net-(D11-A)*%
X76945000Y-71602500D03*
%TD*%
%TO.P,D46,1,K*%
%TO.N,/Keyboard/R5*%
X238810000Y-34447500D03*
%TO.P,D46,2,A*%
%TO.N,Net-(D46-A)*%
X238810000Y-32572500D03*
%TD*%
%TO.P,D23,1,K*%
%TO.N,/Keyboard/R6*%
X237945000Y-92977500D03*
%TO.P,D23,2,A*%
%TO.N,Net-(D23-A)*%
X237945000Y-91102500D03*
%TD*%
%TO.P,D48,1,K*%
%TO.N,/Keyboard/R7*%
X328850000Y-72977500D03*
%TO.P,D48,2,A*%
%TO.N,Net-(D48-A)*%
X328850000Y-71102500D03*
%TD*%
%TO.P,D33,1,K*%
%TO.N,/Keyboard/R*%
X121485000Y-34415000D03*
%TO.P,D33,2,A*%
%TO.N,Net-(D33-A)*%
X121485000Y-32540000D03*
%TD*%
%TO.P,D28,1,K*%
%TO.N,/Keyboard/R3*%
X120945000Y-92977500D03*
%TO.P,D28,2,A*%
%TO.N,Net-(D28-A)*%
X120945000Y-91102500D03*
%TD*%
%TO.P,D50,1,K*%
%TO.N,/Keyboard/R1*%
X170025000Y-53875000D03*
%TO.P,D50,2,A*%
%TO.N,Net-(D50-A)*%
X170025000Y-52000000D03*
%TD*%
%TO.P,D42,1,K*%
%TO.N,/Keyboard/R1*%
X150445000Y-53875000D03*
%TO.P,D42,2,A*%
%TO.N,Net-(D42-A)*%
X150445000Y-52000000D03*
%TD*%
%TO.P,D35,1,K*%
%TO.N,/Keyboard/R2*%
X135445000Y-73477500D03*
%TO.P,D35,2,A*%
%TO.N,Net-(D35-A)*%
X135445000Y-71602500D03*
%TD*%
D22*
%TO.P,R6,1*%
%TO.N,Net-(U4-D4)*%
X336195000Y-65442500D03*
%TO.P,R6,2*%
%TO.N,/Keyboard/R3*%
X336195000Y-63617500D03*
%TD*%
D21*
%TO.P,D13,1,K*%
%TO.N,/Keyboard/R4*%
X70445000Y-112477500D03*
%TO.P,D13,2,A*%
%TO.N,Net-(D13-A)*%
X70445000Y-110602500D03*
%TD*%
%TO.P,D27,1,K*%
%TO.N,/Keyboard/R2*%
X115945000Y-73477500D03*
%TO.P,D27,2,A*%
%TO.N,Net-(D27-A)*%
X115945000Y-71602500D03*
%TD*%
%TO.P,D2,1,K*%
%TO.N,/Keyboard/R1*%
X47945000Y-53977500D03*
%TO.P,D2,2,A*%
%TO.N,Net-(D2-A)*%
X47945000Y-52102500D03*
%TD*%
%TO.P,D59,1,K*%
%TO.N,/Keyboard/R2*%
X193945000Y-73540000D03*
%TO.P,D59,2,A*%
%TO.N,Net-(D59-A)*%
X193945000Y-71665000D03*
%TD*%
%TO.P,D45,1,K*%
%TO.N,/Keyboard/R4*%
X257280000Y-112375000D03*
%TO.P,D45,2,A*%
%TO.N,Net-(D45-A)*%
X257280000Y-110500000D03*
%TD*%
%TO.P,D24,1,K*%
%TO.N,/Keyboard/R7*%
X296525000Y-92915000D03*
%TO.P,D24,2,A*%
%TO.N,Net-(D24-A)*%
X296525000Y-91040000D03*
%TD*%
D23*
%TO.P,R12,1*%
%TO.N,Net-(U3-D0)*%
X345195000Y-50900000D03*
%TO.P,R12,2*%
%TO.N,/Keyboard/C7*%
X345195000Y-52725000D03*
%TD*%
D21*
%TO.P,D31,1,K*%
%TO.N,/Keyboard/R6*%
X232945000Y-73540000D03*
%TO.P,D31,2,A*%
%TO.N,Net-(D31-A)*%
X232945000Y-71665000D03*
%TD*%
%TO.P,D51,1,K*%
%TO.N,/Keyboard/R2*%
X174510000Y-73335000D03*
%TO.P,D51,2,A*%
%TO.N,Net-(D51-A)*%
X174510000Y-71460000D03*
%TD*%
%TO.P,D12,1,K*%
%TO.N,/Keyboard/R3*%
X81945000Y-92977500D03*
%TO.P,D12,2,A*%
%TO.N,Net-(D12-A)*%
X81945000Y-91102500D03*
%TD*%
%TO.P,D18,1,K*%
%TO.N,/Keyboard/R1*%
X91945000Y-53977500D03*
%TO.P,D18,2,A*%
%TO.N,Net-(D18-A)*%
X91945000Y-52102500D03*
%TD*%
%TO.P,D63,1,K*%
%TO.N,/Keyboard/R6*%
X295445000Y-66415000D03*
%TO.P,D63,2,A*%
%TO.N,Net-(D63-A)*%
X295445000Y-64540000D03*
%TD*%
%TO.P,D58,1,K*%
%TO.N,/Keyboard/R1*%
X189445000Y-53977500D03*
%TO.P,D58,2,A*%
%TO.N,Net-(D58-A)*%
X189445000Y-52102500D03*
%TD*%
%TO.P,D62,1,K*%
%TO.N,/Keyboard/R5*%
X287510000Y-34407500D03*
%TO.P,D62,2,A*%
%TO.N,Net-(D62-A)*%
X287510000Y-32532500D03*
%TD*%
%TO.P,D56,1,K*%
%TO.N,/Keyboard/R7*%
X328930000Y-53415000D03*
%TO.P,D56,2,A*%
%TO.N,Net-(D56-A)*%
X328930000Y-51540000D03*
%TD*%
%TO.P,D49,1,K*%
%TO.N,/Keyboard/R*%
X160445000Y-34415000D03*
%TO.P,D49,2,A*%
%TO.N,Net-(D49-A)*%
X160445000Y-32540000D03*
%TD*%
%TO.P,D32,1,K*%
%TO.N,/Keyboard/R7*%
X328930000Y-112477500D03*
%TO.P,D32,2,A*%
%TO.N,Net-(D32-A)*%
X328930000Y-110602500D03*
%TD*%
D22*
%TO.P,R17,1*%
%TO.N,Net-(U3-D4)*%
X336695000Y-37637500D03*
%TO.P,R17,2*%
%TO.N,/Keyboard/C3*%
X336695000Y-35812500D03*
%TD*%
D23*
%TO.P,R10,1*%
%TO.N,Net-(U4-D1)*%
X341595000Y-79030000D03*
%TO.P,R10,2*%
%TO.N,/Keyboard/R6*%
X341595000Y-80855000D03*
%TD*%
D21*
%TO.P,D19,1,K*%
%TO.N,/Keyboard/R2*%
X96445000Y-73477500D03*
%TO.P,D19,2,A*%
%TO.N,Net-(D19-A)*%
X96445000Y-71602500D03*
%TD*%
%TO.P,D44,1,K*%
%TO.N,/Keyboard/R3*%
X159945000Y-93040000D03*
%TO.P,D44,2,A*%
%TO.N,Net-(D44-A)*%
X159945000Y-91165000D03*
%TD*%
%TO.P,D16,1,K*%
%TO.N,/Keyboard/R7*%
X277065000Y-92977500D03*
%TO.P,D16,2,A*%
%TO.N,Net-(D16-A)*%
X277065000Y-91102500D03*
%TD*%
D23*
%TO.P,R7,1*%
%TO.N,Net-(U4-D3)*%
X335695000Y-79030000D03*
%TO.P,R7,2*%
%TO.N,/Keyboard/R4*%
X335695000Y-80855000D03*
%TD*%
D24*
%TO.P,U3,1,~{PL}*%
%TO.N,Net-(U2-GPIO4{slash}ADC1_CH3)*%
X335560000Y-42065000D03*
%TO.P,U3,2,CP*%
%TO.N,Net-(U2-GPIO5{slash}ADC1_CH4)*%
X336830000Y-42065000D03*
%TO.P,U3,3,D4*%
%TO.N,Net-(U3-D4)*%
X338100000Y-42065000D03*
%TO.P,U3,4,D5*%
%TO.N,Net-(U3-D5)*%
X339370000Y-42065000D03*
%TO.P,U3,5,D6*%
%TO.N,Net-(U3-D6)*%
X340640000Y-42065000D03*
%TO.P,U3,6,D7*%
%TO.N,Net-(U3-D7)*%
X341910000Y-42065000D03*
%TO.P,U3,7,~{Q7}*%
%TO.N,unconnected-(U3-~{Q7}-Pad7)*%
X343180000Y-42065000D03*
%TO.P,U3,8,GND*%
%TO.N,GND*%
X344450000Y-42065000D03*
%TO.P,U3,9,Q7*%
%TO.N,Net-(U3-Q7)*%
X344450000Y-47015000D03*
%TO.P,U3,10,DS*%
%TO.N,GND*%
X343180000Y-47015000D03*
%TO.P,U3,11,D0*%
%TO.N,Net-(U3-D0)*%
X341910000Y-47015000D03*
%TO.P,U3,12,D1*%
%TO.N,Net-(U3-D1)*%
X340640000Y-47015000D03*
%TO.P,U3,13,D2*%
%TO.N,Net-(U3-D2)*%
X339370000Y-47015000D03*
%TO.P,U3,14,D3*%
%TO.N,Net-(U3-D3)*%
X338100000Y-47015000D03*
%TO.P,U3,15,~{CE}*%
%TO.N,GND*%
X336830000Y-47015000D03*
%TO.P,U3,16,VCC*%
%TO.N,Net-(U1-VCC)*%
X335560000Y-47015000D03*
%TD*%
D21*
%TO.P,D14,1,K*%
%TO.N,/Keyboard/R5*%
X213485000Y-73567500D03*
%TO.P,D14,2,A*%
%TO.N,Net-(D14-A)*%
X213485000Y-71692500D03*
%TD*%
%TO.P,D52,1,K*%
%TO.N,/Keyboard/R3*%
X179445000Y-92915000D03*
%TO.P,D52,2,A*%
%TO.N,Net-(D52-A)*%
X179445000Y-91040000D03*
%TD*%
%TO.P,D3,1,K*%
%TO.N,/Keyboard/R2*%
X50580000Y-73487500D03*
%TO.P,D3,2,A*%
%TO.N,Net-(D3-A)*%
X50580000Y-71612500D03*
%TD*%
%TO.P,D7,1,K*%
%TO.N,/Keyboard/R6*%
X252580000Y-73350000D03*
%TO.P,D7,2,A*%
%TO.N,Net-(D7-A)*%
X252580000Y-71475000D03*
%TD*%
D23*
%TO.P,R20,1*%
%TO.N,Net-(U3-D1)*%
X342195000Y-50725000D03*
%TO.P,R20,2*%
%TO.N,/Keyboard/C6*%
X342195000Y-52550000D03*
%TD*%
D22*
%TO.P,R16,1*%
%TO.N,Net-(U3-D7)*%
X344695000Y-37637500D03*
%TO.P,R16,2*%
%TO.N,/Keyboard/C*%
X344695000Y-35812500D03*
%TD*%
D21*
%TO.P,D29,1,K*%
%TO.N,/Keyboard/R4*%
X116970000Y-112375000D03*
%TO.P,D29,2,A*%
%TO.N,Net-(D29-A)*%
X116970000Y-110500000D03*
%TD*%
%TO.P,D4,1,K*%
%TO.N,/Keyboard/R3*%
X52945000Y-92977500D03*
%TO.P,D4,2,A*%
%TO.N,Net-(D4-A)*%
X52945000Y-91102500D03*
%TD*%
%TO.P,D1,1,K*%
%TO.N,/Keyboard/R*%
X43445000Y-34477500D03*
%TO.P,D1,2,A*%
%TO.N,Net-(D1-A)*%
X43445000Y-32602500D03*
%TD*%
%TO.P,D6,1,K*%
%TO.N,/Keyboard/R5*%
X218500000Y-92900000D03*
%TO.P,D6,2,A*%
%TO.N,Net-(D6-A)*%
X218500000Y-91025000D03*
%TD*%
%TO.P,D20,1,K*%
%TO.N,/Keyboard/R3*%
X101445000Y-92977500D03*
%TO.P,D20,2,A*%
%TO.N,Net-(D20-A)*%
X101445000Y-91102500D03*
%TD*%
D25*
%TO.P,D37,1,K*%
%TO.N,/Keyboard/R4*%
X188982500Y-107500000D03*
%TO.P,D37,2,A*%
%TO.N,Net-(D37-A)*%
X190857500Y-107500000D03*
%TD*%
D21*
%TO.P,D55,1,K*%
%TO.N,/Keyboard/R6*%
X267310000Y-53977500D03*
%TO.P,D55,2,A*%
%TO.N,Net-(D55-A)*%
X267310000Y-52102500D03*
%TD*%
%TO.P,D15,1,K*%
%TO.N,/Keyboard/R6*%
X257565000Y-92977500D03*
%TO.P,D15,2,A*%
%TO.N,Net-(D15-A)*%
X257565000Y-91102500D03*
%TD*%
D24*
%TO.P,U4,1,~{PL}*%
%TO.N,Net-(U2-GPIO4{slash}ADC1_CH3)*%
X335560000Y-70065000D03*
%TO.P,U4,2,CP*%
%TO.N,Net-(U2-GPIO5{slash}ADC1_CH4)*%
X336830000Y-70065000D03*
%TO.P,U4,3,D4*%
%TO.N,Net-(U4-D4)*%
X338100000Y-70065000D03*
%TO.P,U4,4,D5*%
%TO.N,Net-(U4-D5)*%
X339370000Y-70065000D03*
%TO.P,U4,5,D6*%
%TO.N,Net-(U4-D6)*%
X340640000Y-70065000D03*
%TO.P,U4,6,D7*%
%TO.N,Net-(U4-D7)*%
X341910000Y-70065000D03*
%TO.P,U4,7,~{Q7}*%
%TO.N,unconnected-(U4-~{Q7}-Pad7)*%
X343180000Y-70065000D03*
%TO.P,U4,8,GND*%
%TO.N,GND*%
X344450000Y-70065000D03*
%TO.P,U4,9,Q7*%
%TO.N,Net-(U2-GPIO7{slash}ADC1_CH6)*%
X344450000Y-75015000D03*
%TO.P,U4,10,DS*%
%TO.N,Net-(U3-Q7)*%
X343180000Y-75015000D03*
%TO.P,U4,11,D0*%
%TO.N,Net-(U4-D0)*%
X341910000Y-75015000D03*
%TO.P,U4,12,D1*%
%TO.N,Net-(U4-D1)*%
X340640000Y-75015000D03*
%TO.P,U4,13,D2*%
%TO.N,Net-(U4-D2)*%
X339370000Y-75015000D03*
%TO.P,U4,14,D3*%
%TO.N,Net-(U4-D3)*%
X338100000Y-75015000D03*
%TO.P,U4,15,~{CE}*%
%TO.N,GND*%
X336830000Y-75015000D03*
%TO.P,U4,16,VCC*%
%TO.N,Net-(U1-VCC)*%
X335560000Y-75015000D03*
%TD*%
D21*
%TO.P,D26,1,K*%
%TO.N,/Keyboard/R1*%
X111445000Y-53977500D03*
%TO.P,D26,2,A*%
%TO.N,Net-(D26-A)*%
X111445000Y-52102500D03*
%TD*%
%TO.P,D57,1,K*%
%TO.N,/Keyboard/R*%
X179945000Y-34477500D03*
%TO.P,D57,2,A*%
%TO.N,Net-(D57-A)*%
X179945000Y-32602500D03*
%TD*%
%TO.P,D9,1,K*%
%TO.N,/Keyboard/R*%
X62945000Y-34477500D03*
%TO.P,D9,2,A*%
%TO.N,Net-(D9-A)*%
X62945000Y-32602500D03*
%TD*%
%TO.P,D10,1,K*%
%TO.N,/Keyboard/R1*%
X72445000Y-53977500D03*
%TO.P,D10,2,A*%
%TO.N,Net-(D10-A)*%
X72445000Y-52102500D03*
%TD*%
%TO.P,D61,1,K*%
%TO.N,/Keyboard/R4*%
X296840000Y-112517500D03*
%TO.P,D61,2,A*%
%TO.N,Net-(D61-A)*%
X296840000Y-110642500D03*
%TD*%
%TO.P,D38,1,K*%
%TO.N,/Keyboard/R5*%
X219350000Y-34385000D03*
%TO.P,D38,2,A*%
%TO.N,Net-(D38-A)*%
X219350000Y-32510000D03*
%TD*%
%TO.P,D40,1,K*%
%TO.N,/Keyboard/R7*%
X328970000Y-92977500D03*
%TO.P,D40,2,A*%
%TO.N,Net-(D40-A)*%
X328970000Y-91102500D03*
%TD*%
%TO.P,D30,1,K*%
%TO.N,/Keyboard/R5*%
X199700000Y-34425000D03*
%TO.P,D30,2,A*%
%TO.N,Net-(D30-A)*%
X199700000Y-32550000D03*
%TD*%
%TO.P,D34,1,K*%
%TO.N,/Keyboard/R1*%
X130905000Y-53937500D03*
%TO.P,D34,2,A*%
%TO.N,Net-(D34-A)*%
X130905000Y-52062500D03*
%TD*%
D22*
%TO.P,R11,1*%
%TO.N,Net-(U4-D7)*%
X344645000Y-65530000D03*
%TO.P,R11,2*%
%TO.N,/Keyboard/R*%
X344645000Y-63705000D03*
%TD*%
D26*
%TO.N,/Keyboard/C1*%
X65500000Y-75000000D03*
%TO.N,Net-(U2-GPIO17{slash}ADC2_CH6)*%
X416500000Y-90000000D03*
%TO.N,Net-(U2-GPIO18{slash}ADC2_CH7)*%
X407000000Y-99000000D03*
%TO.N,/Keyboard/R*%
X348000000Y-40500000D03*
X345500000Y-56500000D03*
%TO.N,/Keyboard/R1*%
X114000000Y-56500000D03*
X116500000Y-56500000D03*
X340000000Y-54000000D03*
X192000000Y-56500000D03*
X310500000Y-56000000D03*
X307500000Y-56000000D03*
%TO.N,/Keyboard/R2*%
X335000000Y-73000000D03*
X118500000Y-76000000D03*
X121500000Y-76000000D03*
X333500000Y-70500000D03*
X339000000Y-72000000D03*
X215000000Y-76500000D03*
%TO.N,/Keyboard/R3*%
X310000000Y-62500000D03*
X69500000Y-94500000D03*
X336000000Y-56000000D03*
X65500000Y-93000000D03*
X328500000Y-57000000D03*
X139000000Y-92000000D03*
X165500000Y-96000000D03*
X274000000Y-74000000D03*
X297500000Y-68000000D03*
X124000000Y-94500000D03*
X168500000Y-96000000D03*
X200500000Y-94000000D03*
%TO.N,/Keyboard/R4*%
X331500000Y-87000000D03*
X303500000Y-112500000D03*
%TO.N,/Keyboard/R5*%
X290000000Y-36500000D03*
X331500000Y-60000000D03*
%TO.N,Net-(D7-A)*%
X254000000Y-71500000D03*
X254000000Y-69500000D03*
%TO.N,/Keyboard/R6*%
X332500000Y-83000000D03*
X269000000Y-54000000D03*
X295500000Y-68000000D03*
X286000000Y-53000000D03*
X252500000Y-57500000D03*
X247500000Y-71500000D03*
%TO.N,/Keyboard/R7*%
X299500000Y-96000000D03*
X320500000Y-96500000D03*
%TO.N,GND*%
X373500000Y-99000000D03*
%TO.N,Net-(U1-VCC)*%
X357000000Y-75500000D03*
X346000000Y-73000000D03*
X339500000Y-73000000D03*
%TO.N,/Keyboard/C*%
X41000000Y-95500000D03*
X167000000Y-94500000D03*
X219000000Y-82500000D03*
X222458163Y-82458163D03*
%TO.N,/Keyboard/C1*%
X117000000Y-76500000D03*
X219000000Y-81500000D03*
X57000000Y-55500000D03*
X49000000Y-36000000D03*
X240500000Y-88500000D03*
X79430000Y-77430000D03*
X49000000Y-38000000D03*
X58000000Y-57500000D03*
X121500000Y-75000000D03*
%TO.N,/Keyboard/C2*%
X82500000Y-94500000D03*
X84500000Y-93500000D03*
X309000000Y-83000000D03*
X67500000Y-36000000D03*
X82000000Y-77500000D03*
X281000000Y-86500000D03*
X118500000Y-66000000D03*
X279000000Y-94000000D03*
X77000000Y-55500000D03*
X226500000Y-96500000D03*
X78500000Y-57000000D03*
X215500000Y-74500000D03*
X67500000Y-38000000D03*
X81500000Y-74500000D03*
X214000000Y-68500000D03*
%TO.N,/Keyboard/C3*%
X221500000Y-78500000D03*
X251500000Y-79500000D03*
X104000000Y-94000000D03*
X103500000Y-77500000D03*
X277500000Y-83000000D03*
X86000000Y-35500000D03*
X96000000Y-55500000D03*
X101500000Y-94500000D03*
X109000000Y-43000000D03*
X111500000Y-43000000D03*
X213500000Y-66000000D03*
X165000000Y-37500000D03*
X250500000Y-78500000D03*
X264500000Y-81000000D03*
X168500000Y-37500000D03*
X89500000Y-38000000D03*
X329000000Y-80500000D03*
X101500000Y-75000000D03*
X281000000Y-83000000D03*
X217500000Y-66000000D03*
X96000000Y-57500000D03*
X332500000Y-62500000D03*
%TO.N,/Keyboard/C4*%
X215572903Y-77535453D03*
X173500000Y-104000000D03*
X286500000Y-85500000D03*
X198500000Y-89000000D03*
X110000000Y-38500000D03*
X217500000Y-75500000D03*
X338500000Y-58500000D03*
X210500000Y-42000000D03*
X106500000Y-35500000D03*
X281000000Y-82000000D03*
X248000000Y-80000000D03*
X212500000Y-44000000D03*
X313000000Y-85000000D03*
X249500000Y-81500000D03*
%TO.N,/Keyboard/C5*%
X134000000Y-53500000D03*
X339000000Y-54500000D03*
X226500000Y-38000000D03*
X313500000Y-64500000D03*
X141000000Y-77500000D03*
X240000000Y-77000000D03*
X224000000Y-35500000D03*
X136000000Y-67000000D03*
X139500000Y-74000000D03*
X228500000Y-57500000D03*
X129000000Y-38000000D03*
X127000000Y-36000000D03*
%TO.N,/Keyboard/C6*%
X159000000Y-74500000D03*
X342000000Y-54500000D03*
X248000000Y-55500000D03*
X244500000Y-36000000D03*
X249000000Y-57500000D03*
X237500000Y-73000000D03*
X300500000Y-52000000D03*
X155500000Y-55500000D03*
X312000000Y-47500000D03*
X236250000Y-74750000D03*
X161500000Y-77000000D03*
X252000000Y-55000000D03*
X234500000Y-76500000D03*
X147000000Y-36000000D03*
X246500000Y-38000000D03*
X157500000Y-67500000D03*
X148500000Y-38000000D03*
%TO.N,/Keyboard/C7*%
X313000000Y-34500000D03*
X345195000Y-54805000D03*
X180000000Y-77000000D03*
X180000000Y-69000000D03*
X217500000Y-65000000D03*
X179500000Y-75000000D03*
X174000000Y-54500000D03*
X278500000Y-65000000D03*
X284000000Y-55500000D03*
X286500000Y-55500000D03*
X285500000Y-107000000D03*
%TO.N,Net-(U1-SD_SCK)*%
X359500000Y-58500000D03*
X361500000Y-51500000D03*
%TO.N,Net-(U1-SD_MISO)*%
X359000000Y-43500000D03*
%TO.N,Net-(U2-GPIO4{slash}ADC1_CH3)*%
X335000000Y-77500000D03*
X362500000Y-81500000D03*
%TO.N,Net-(U2-GPIO5{slash}ADC1_CH4)*%
X336000000Y-72500000D03*
X349500000Y-76000000D03*
%TO.N,Net-(U3-Q7)*%
X347000000Y-53000000D03*
X345500000Y-47000000D03*
%TD*%
D27*
%TO.N,Net-(U1-SD_SCK)*%
X359500000Y-53500000D02*
X361500000Y-51500000D01*
X359500000Y-58500000D02*
X359500000Y-53500000D01*
%TO.N,Net-(U2-GPIO17{slash}ADC2_CH6)*%
X403500000Y-94650057D02*
X407601000Y-98751057D01*
X393759000Y-82879000D02*
X375360000Y-64480000D01*
X400019241Y-99601000D02*
X393759000Y-93340759D01*
X393759000Y-93340759D02*
X393759000Y-82879000D01*
X407248943Y-99601000D02*
X400019241Y-99601000D01*
X407601000Y-98751057D02*
X407601000Y-99248943D01*
X407601000Y-99248943D02*
X407248943Y-99601000D01*
X416500000Y-90000000D02*
X403500000Y-90000000D01*
X403500000Y-90000000D02*
X403500000Y-94650057D01*
%TO.N,Net-(U2-GPIO18{slash}ADC2_CH7)*%
X395861000Y-93469859D02*
X395861000Y-82441000D01*
X395861000Y-82441000D02*
X375360000Y-61940000D01*
X407000000Y-99000000D02*
X401391141Y-99000000D01*
X401391141Y-99000000D02*
X395861000Y-93469859D01*
%TO.N,Net-(D1-A)*%
X43445000Y-32602500D02*
X40652000Y-29809500D01*
X40652000Y-29809500D02*
X40652000Y-29460000D01*
%TO.N,/Keyboard/R*%
X157969000Y-36891000D02*
X160445000Y-34415000D01*
X341561327Y-23000000D02*
X184000000Y-23000000D01*
X184000000Y-23000000D02*
X180946000Y-26054000D01*
X348000000Y-40500000D02*
X348000000Y-29438673D01*
X348000000Y-29438673D02*
X341561327Y-23000000D01*
X344645000Y-57355000D02*
X345500000Y-56500000D01*
X180946000Y-33476500D02*
X179945000Y-34477500D01*
X121485000Y-34415000D02*
X123961000Y-36891000D01*
X143341000Y-36891000D02*
X157969000Y-36891000D01*
X180946000Y-26054000D02*
X180946000Y-33476500D01*
X344645000Y-63705000D02*
X344645000Y-57355000D01*
X168492065Y-30124000D02*
X163504840Y-30124000D01*
X140865000Y-34415000D02*
X143341000Y-36891000D01*
X82445000Y-34477500D02*
X80031500Y-36891000D01*
X163504840Y-30124000D02*
X161446000Y-32182840D01*
X82445000Y-34477500D02*
X84858500Y-36891000D01*
X104358500Y-36891000D02*
X119009000Y-36891000D01*
X170557065Y-32189000D02*
X168492065Y-30124000D01*
X179945000Y-34477500D02*
X177656500Y-32189000D01*
X45858500Y-36891000D02*
X43445000Y-34477500D01*
X84858500Y-36891000D02*
X99531500Y-36891000D01*
X119009000Y-36891000D02*
X121485000Y-34415000D01*
X161446000Y-33414000D02*
X160445000Y-34415000D01*
X99531500Y-36891000D02*
X101945000Y-34477500D01*
X123961000Y-36891000D02*
X138389000Y-36891000D01*
X80031500Y-36891000D02*
X65358500Y-36891000D01*
X101945000Y-34477500D02*
X104358500Y-36891000D01*
X60531500Y-36891000D02*
X45858500Y-36891000D01*
X177656500Y-32189000D02*
X170557065Y-32189000D01*
X161446000Y-32182840D02*
X161446000Y-33414000D01*
X62945000Y-34477500D02*
X60531500Y-36891000D01*
X138389000Y-36891000D02*
X140865000Y-34415000D01*
X65358500Y-36891000D02*
X62945000Y-34477500D01*
%TO.N,/Keyboard/R1*%
X152961000Y-56391000D02*
X150445000Y-53875000D01*
X50358500Y-56391000D02*
X47945000Y-53977500D01*
X189445000Y-53977500D02*
X187031500Y-56391000D01*
X72445000Y-53977500D02*
X70031500Y-56391000D01*
X172541000Y-56391000D02*
X170025000Y-53875000D01*
X191967500Y-56500000D02*
X189445000Y-53977500D01*
X111445000Y-53977500D02*
X109031500Y-56391000D01*
X72445000Y-53977500D02*
X74858500Y-56391000D01*
X128342500Y-56500000D02*
X116500000Y-56500000D01*
X192000000Y-56500000D02*
X191967500Y-56500000D01*
X74858500Y-56391000D02*
X89531500Y-56391000D01*
X133358500Y-56391000D02*
X130905000Y-53937500D01*
X310500000Y-56000000D02*
X307500000Y-56000000D01*
X114000000Y-56500000D02*
X113967500Y-56500000D01*
X150445000Y-53875000D02*
X147929000Y-56391000D01*
X130905000Y-53937500D02*
X128342500Y-56500000D01*
X341695000Y-55695000D02*
X340000000Y-54000000D01*
X113967500Y-56500000D02*
X111445000Y-53977500D01*
X170025000Y-53875000D02*
X167509000Y-56391000D01*
X89531500Y-56391000D02*
X91945000Y-53977500D01*
X70031500Y-56391000D02*
X50358500Y-56391000D01*
X341695000Y-63705000D02*
X341695000Y-55695000D01*
X167509000Y-56391000D02*
X152961000Y-56391000D01*
X94358500Y-56391000D02*
X91945000Y-53977500D01*
X187031500Y-56391000D02*
X172541000Y-56391000D01*
X147929000Y-56391000D02*
X133358500Y-56391000D01*
X109031500Y-56391000D02*
X94358500Y-56391000D01*
%TO.N,Net-(D2-A)*%
X47945000Y-52102500D02*
X45367000Y-49524500D01*
X45367000Y-49524500D02*
X45367000Y-48960000D01*
%TO.N,Net-(D3-A)*%
X50580000Y-71612500D02*
X47787000Y-68819500D01*
X47787000Y-68819500D02*
X47787000Y-68460000D01*
%TO.N,/Keyboard/R2*%
X333000000Y-77266560D02*
X333000000Y-73000000D01*
X335000000Y-73000000D02*
X334500000Y-73500000D01*
X339971000Y-71080968D02*
X339051968Y-72000000D01*
X339971000Y-66165160D02*
X339971000Y-71080968D01*
X137858500Y-75891000D02*
X152436500Y-75891000D01*
X335601000Y-77899000D02*
X335399000Y-78101000D01*
X135445000Y-73477500D02*
X137858500Y-75891000D01*
X193945000Y-73540000D02*
X191594000Y-75891000D01*
X333000000Y-73000000D02*
X333000000Y-71000000D01*
X76945000Y-73477500D02*
X74531500Y-75891000D01*
X340196000Y-65940160D02*
X339971000Y-66165160D01*
X335125340Y-78101000D02*
X334863170Y-78363170D01*
X157423500Y-75891000D02*
X154930000Y-73397500D01*
X96445000Y-73477500D02*
X94031500Y-75891000D01*
X132922500Y-76000000D02*
X121500000Y-76000000D01*
X98858500Y-75891000D02*
X113531500Y-75891000D01*
X335399000Y-78101000D02*
X335125340Y-78101000D01*
X191594000Y-75891000D02*
X177066000Y-75891000D01*
X174510000Y-73335000D02*
X171954000Y-75891000D01*
X96445000Y-73477500D02*
X98858500Y-75891000D01*
X340196000Y-64618500D02*
X340196000Y-65940160D01*
X94031500Y-75891000D02*
X79358500Y-75891000D01*
X118467500Y-76000000D02*
X118500000Y-76000000D01*
X52983500Y-75891000D02*
X50580000Y-73487500D01*
X177066000Y-75891000D02*
X174510000Y-73335000D01*
X339051968Y-72000000D02*
X339000000Y-72000000D01*
X196905000Y-76500000D02*
X193945000Y-73540000D01*
X152436500Y-75891000D02*
X154930000Y-73397500D01*
X215000000Y-76500000D02*
X196905000Y-76500000D01*
X113531500Y-75891000D02*
X115945000Y-73477500D01*
X334500000Y-76150057D02*
X335601000Y-77251057D01*
X334500000Y-73500000D02*
X334500000Y-76150057D01*
X334096610Y-78363170D02*
X333000000Y-77266560D01*
X333000000Y-71000000D02*
X333500000Y-70500000D01*
X115945000Y-73477500D02*
X118467500Y-76000000D01*
X79358500Y-75891000D02*
X76945000Y-73477500D01*
X135445000Y-73477500D02*
X132922500Y-76000000D01*
X335601000Y-77251057D02*
X335601000Y-77899000D01*
X339195000Y-63617500D02*
X340196000Y-64618500D01*
X74531500Y-75891000D02*
X52983500Y-75891000D01*
X334863170Y-78363170D02*
X334096610Y-78363170D01*
X171954000Y-75891000D02*
X157423500Y-75891000D01*
%TO.N,/Keyboard/R3*%
X336195000Y-56195000D02*
X336000000Y-56000000D01*
X72449826Y-90689000D02*
X69500000Y-93638826D01*
X120945000Y-92977500D02*
X122477500Y-92977500D01*
X69500000Y-93660184D02*
X72471184Y-90689000D01*
X196334000Y-95391000D02*
X198850000Y-92875000D01*
X118531500Y-95391000D02*
X120945000Y-92977500D01*
X81945000Y-92977500D02*
X79656500Y-90689000D01*
X52967500Y-93000000D02*
X65500000Y-93000000D01*
X274500000Y-73093100D02*
X274500000Y-73500000D01*
X314267284Y-57000000D02*
X309401000Y-61866284D01*
X101445000Y-92977500D02*
X103858500Y-95391000D01*
X176860000Y-95500000D02*
X176860000Y-95640000D01*
X199975000Y-94000000D02*
X198850000Y-92875000D01*
X81945000Y-92977500D02*
X84358500Y-95391000D01*
X139000000Y-92000000D02*
X139405000Y-92000000D01*
X157594000Y-95391000D02*
X159945000Y-93040000D01*
X274500000Y-73500000D02*
X274000000Y-74000000D01*
X292406900Y-73093100D02*
X297500000Y-68000000D01*
X69500000Y-93660184D02*
X69500000Y-94500000D01*
X84358500Y-95391000D02*
X99031500Y-95391000D01*
X103858500Y-95391000D02*
X118531500Y-95391000D01*
X274500000Y-73093100D02*
X292406900Y-73093100D01*
X79656500Y-90689000D02*
X72449826Y-90689000D01*
X179445000Y-92915000D02*
X181921000Y-95391000D01*
X139405000Y-92000000D02*
X140445000Y-93040000D01*
X69500000Y-93638826D02*
X69500000Y-93660184D01*
X142796000Y-95391000D02*
X157594000Y-95391000D01*
X310000000Y-62500000D02*
X310000000Y-62465284D01*
X200500000Y-94000000D02*
X199975000Y-94000000D01*
X159945000Y-93040000D02*
X162540000Y-93040000D01*
X179445000Y-92915000D02*
X176860000Y-95500000D01*
X52945000Y-92977500D02*
X52967500Y-93000000D01*
X328500000Y-57000000D02*
X314267284Y-57000000D01*
X176500000Y-96000000D02*
X168500000Y-96000000D01*
X122477500Y-92977500D02*
X124000000Y-94500000D01*
X176860000Y-95640000D02*
X176500000Y-96000000D01*
X309401000Y-61866284D02*
X310000000Y-62465284D01*
X162540000Y-93040000D02*
X165500000Y-96000000D01*
X181921000Y-95391000D02*
X196334000Y-95391000D01*
X336195000Y-63617500D02*
X336195000Y-56195000D01*
X99031500Y-95391000D02*
X101445000Y-92977500D01*
X140445000Y-93040000D02*
X142796000Y-95391000D01*
%TO.N,Net-(D4-A)*%
X52945000Y-91102500D02*
X50262000Y-88419500D01*
X50262000Y-88419500D02*
X50262000Y-87920000D01*
%TO.N,Net-(D5-A)*%
X46160000Y-110575000D02*
X43287000Y-107702000D01*
X43287000Y-107702000D02*
X43287000Y-107460000D01*
%TO.N,/Keyboard/R4*%
X177111184Y-110189000D02*
X173300184Y-114000000D01*
X116970000Y-112375000D02*
X114454000Y-114891000D01*
X114454000Y-114891000D02*
X97358500Y-114891000D01*
X92531500Y-114891000D02*
X72858500Y-114891000D01*
X188982500Y-107500000D02*
X186293500Y-110189000D01*
X335695000Y-80855000D02*
X333795057Y-80855000D01*
X46160000Y-112450000D02*
X48601000Y-114891000D01*
X97358500Y-114891000D02*
X94945000Y-112477500D01*
X296840000Y-112517500D02*
X294357500Y-115000000D01*
X186293500Y-110189000D02*
X177111184Y-110189000D01*
X68031500Y-114891000D02*
X70445000Y-112477500D01*
X303482500Y-112517500D02*
X296840000Y-112517500D01*
X277200000Y-112437500D02*
X274746500Y-114891000D01*
X173300184Y-114000000D02*
X118595000Y-114000000D01*
X72858500Y-114891000D02*
X70445000Y-112477500D01*
X333795057Y-80855000D02*
X331500000Y-83150057D01*
X331500000Y-83150057D02*
X331500000Y-87000000D01*
X196373500Y-114891000D02*
X188982500Y-107500000D01*
X274746500Y-114891000D02*
X259796000Y-114891000D01*
X118595000Y-114000000D02*
X116970000Y-112375000D01*
X94945000Y-112477500D02*
X92531500Y-114891000D01*
X254764000Y-114891000D02*
X196373500Y-114891000D01*
X259796000Y-114891000D02*
X257280000Y-112375000D01*
X279762500Y-115000000D02*
X277200000Y-112437500D01*
X257280000Y-112375000D02*
X254764000Y-114891000D01*
X294357500Y-115000000D02*
X279762500Y-115000000D01*
X303500000Y-112500000D02*
X303482500Y-112517500D01*
X48601000Y-114891000D02*
X68031500Y-114891000D01*
%TO.N,Net-(D6-A)*%
X215707000Y-87960000D02*
X215707000Y-88232000D01*
X215707000Y-88232000D02*
X218500000Y-91025000D01*
%TO.N,/Keyboard/R5*%
X221856000Y-36891000D02*
X219350000Y-34385000D01*
X210026000Y-43709000D02*
X219350000Y-34385000D01*
X209025000Y-53947500D02*
X210026000Y-52946500D01*
X210026000Y-52946500D02*
X210026000Y-44751000D01*
X286376500Y-33274000D02*
X287510000Y-34407500D01*
X262758500Y-30084000D02*
X279470935Y-30084000D01*
X215000000Y-72052500D02*
X213485000Y-73567500D01*
X210026000Y-44751000D02*
X199700000Y-34425000D01*
X215000000Y-59922500D02*
X215000000Y-72052500D01*
X220000000Y-91500000D02*
X219900000Y-91500000D01*
X282660935Y-33274000D02*
X286376500Y-33274000D01*
X337633500Y-79843500D02*
X335009840Y-79843500D01*
X209025000Y-53947500D02*
X215000000Y-59922500D01*
X236366500Y-36891000D02*
X221856000Y-36891000D01*
X213485000Y-73567500D02*
X220000000Y-80082500D01*
X335009840Y-79843500D02*
X331500000Y-76333660D01*
X255842500Y-37000000D02*
X258365000Y-34477500D01*
X279470935Y-30084000D02*
X282660935Y-33274000D01*
X258365000Y-34477500D02*
X262758500Y-30084000D01*
X238810000Y-34447500D02*
X236366500Y-36891000D01*
X241362500Y-37000000D02*
X255842500Y-37000000D01*
X220000000Y-80082500D02*
X220000000Y-91500000D01*
X289602500Y-36500000D02*
X287510000Y-34407500D01*
X219900000Y-91500000D02*
X218500000Y-92900000D01*
X290000000Y-36500000D02*
X289602500Y-36500000D01*
X210026000Y-44751000D02*
X210026000Y-43709000D01*
X331500000Y-76333660D02*
X331500000Y-60000000D01*
X338645000Y-80855000D02*
X337633500Y-79843500D01*
X238810000Y-34447500D02*
X241362500Y-37000000D01*
%TO.N,Net-(D7-A)*%
X252960000Y-68460000D02*
X249787000Y-68460000D01*
X252580000Y-71475000D02*
X253975000Y-71475000D01*
X254000000Y-69500000D02*
X252960000Y-68460000D01*
X253975000Y-71475000D02*
X254000000Y-71500000D01*
%TO.N,/Keyboard/R6*%
X254500000Y-56391000D02*
X250286000Y-56391000D01*
X285758826Y-53500000D02*
X285758826Y-53241174D01*
X235296000Y-75891000D02*
X232945000Y-73540000D01*
X269000000Y-54000000D02*
X267332500Y-54000000D01*
X237945000Y-92977500D02*
X239000000Y-91922500D01*
X290530000Y-61500000D02*
X288466935Y-61500000D01*
X252580000Y-73350000D02*
X250730000Y-71500000D01*
X230843500Y-56391000D02*
X245334000Y-56391000D01*
X285758826Y-53241174D02*
X286000000Y-53000000D01*
X252580000Y-73350000D02*
X250039000Y-75891000D01*
X253609000Y-56391000D02*
X254500000Y-56391000D01*
X250286000Y-56391000D02*
X247810000Y-53915000D01*
X250730000Y-71500000D02*
X247500000Y-71500000D01*
X257565000Y-92977500D02*
X259864000Y-90678500D01*
X288466935Y-61500000D02*
X285758826Y-58791891D01*
X245334000Y-56391000D02*
X247810000Y-53915000D01*
X285758826Y-58791891D02*
X285758826Y-53500000D01*
X267332500Y-54000000D02*
X267310000Y-53977500D01*
X264896500Y-56391000D02*
X254500000Y-56391000D01*
X295445000Y-66415000D02*
X290530000Y-61500000D01*
X341595000Y-80855000D02*
X339450000Y-83000000D01*
X239000000Y-75891000D02*
X235296000Y-75891000D01*
X259864000Y-85716000D02*
X250039000Y-75891000D01*
X339450000Y-83000000D02*
X332500000Y-83000000D01*
X295500000Y-68000000D02*
X295500000Y-66470000D01*
X267310000Y-53977500D02*
X264896500Y-56391000D01*
X252500000Y-57500000D02*
X253609000Y-56391000D01*
X295500000Y-66470000D02*
X295445000Y-66415000D01*
X239000000Y-91922500D02*
X239000000Y-75891000D01*
X259864000Y-90678500D02*
X259864000Y-85716000D01*
X228430000Y-53977500D02*
X230843500Y-56391000D01*
X250039000Y-75891000D02*
X239000000Y-75891000D01*
%TO.N,/Keyboard/R7*%
X296525000Y-92915000D02*
X292940000Y-96500000D01*
X330500000Y-35905000D02*
X330500000Y-55500000D01*
X328850000Y-72977500D02*
X330500000Y-74627500D01*
X330500000Y-74627500D02*
X330500000Y-75500000D01*
X279364000Y-80539000D02*
X272165000Y-73340000D01*
X330500000Y-75500000D02*
X330500000Y-92977500D01*
X344245000Y-80855000D02*
X332122500Y-92977500D01*
X280587500Y-96500000D02*
X277065000Y-92977500D01*
X299500000Y-95890000D02*
X296525000Y-92915000D01*
X277065000Y-92977500D02*
X279364000Y-90678500D01*
X330500000Y-55500000D02*
X330500000Y-75500000D01*
X332122500Y-92977500D02*
X330500000Y-92977500D01*
X330500000Y-54985000D02*
X330500000Y-55500000D01*
X328970000Y-92977500D02*
X325447500Y-96500000D01*
X279364000Y-90678500D02*
X279364000Y-80539000D01*
X330500000Y-92977500D02*
X328970000Y-92977500D01*
X328930000Y-53415000D02*
X330500000Y-54985000D01*
X328970000Y-34375000D02*
X330500000Y-35905000D01*
X330500000Y-110907500D02*
X330500000Y-92977500D01*
X328930000Y-112477500D02*
X330500000Y-110907500D01*
X299500000Y-96000000D02*
X299500000Y-95890000D01*
X325447500Y-96500000D02*
X320500000Y-96500000D01*
X292940000Y-96500000D02*
X280587500Y-96500000D01*
%TO.N,Net-(D8-A)*%
X269372000Y-68500000D02*
X269372000Y-68672000D01*
X269372000Y-68672000D02*
X272165000Y-71465000D01*
%TO.N,Net-(D9-A)*%
X62945000Y-32602500D02*
X60207000Y-29864500D01*
X60207000Y-29864500D02*
X60207000Y-29460000D01*
%TO.N,Net-(D10-A)*%
X69707000Y-49364500D02*
X69707000Y-48960000D01*
X72445000Y-52102500D02*
X69707000Y-49364500D01*
%TO.N,Net-(D11-A)*%
X76945000Y-71602500D02*
X74367000Y-69024500D01*
X74367000Y-69024500D02*
X74367000Y-68460000D01*
%TO.N,Net-(D12-A)*%
X79287000Y-87960000D02*
X79287000Y-88444500D01*
X79287000Y-88444500D02*
X81945000Y-91102500D01*
%TO.N,Net-(D13-A)*%
X70445000Y-110602500D02*
X67707000Y-107864500D01*
X67707000Y-107864500D02*
X67707000Y-107460000D01*
%TO.N,Net-(D14-A)*%
X210787000Y-68994500D02*
X213485000Y-71692500D01*
X210787000Y-68500000D02*
X210787000Y-68994500D01*
%TO.N,Net-(D15-A)*%
X257565000Y-91102500D02*
X254867000Y-88404500D01*
X254867000Y-88404500D02*
X254867000Y-87960000D01*
%TO.N,Net-(D16-A)*%
X277065000Y-91102500D02*
X274367000Y-88404500D01*
X274367000Y-88404500D02*
X274367000Y-87960000D01*
%TO.N,Net-(D17-A)*%
X82445000Y-32602500D02*
X79707000Y-29864500D01*
X79707000Y-29864500D02*
X79707000Y-29460000D01*
%TO.N,Net-(D18-A)*%
X89287000Y-49444500D02*
X91945000Y-52102500D01*
X89287000Y-48960000D02*
X89287000Y-49444500D01*
%TO.N,Net-(D19-A)*%
X96445000Y-71602500D02*
X93787000Y-68944500D01*
X93787000Y-68944500D02*
X93787000Y-68460000D01*
%TO.N,Net-(D20-A)*%
X101445000Y-91102500D02*
X98787000Y-88444500D01*
X98787000Y-88444500D02*
X98787000Y-87960000D01*
%TO.N,Net-(D21-A)*%
X94945000Y-110602500D02*
X92122000Y-107779500D01*
X92122000Y-107779500D02*
X92122000Y-107460000D01*
%TO.N,Net-(D22-A)*%
X206367000Y-49414500D02*
X209025000Y-52072500D01*
X206367000Y-48960000D02*
X206367000Y-49414500D01*
%TO.N,Net-(D23-A)*%
X237945000Y-91102500D02*
X235287000Y-88444500D01*
X235287000Y-88444500D02*
X235287000Y-87960000D01*
%TO.N,Net-(D24-A)*%
X293867000Y-88382000D02*
X293867000Y-87960000D01*
X296525000Y-91040000D02*
X293867000Y-88382000D01*
%TO.N,Net-(D25-A)*%
X99287000Y-29944500D02*
X101945000Y-32602500D01*
X99287000Y-29460000D02*
X99287000Y-29944500D01*
%TO.N,Net-(D26-A)*%
X111445000Y-52102500D02*
X108707000Y-49364500D01*
X108707000Y-49364500D02*
X108707000Y-48960000D01*
%TO.N,Net-(D27-A)*%
X115945000Y-71602500D02*
X113287000Y-68944500D01*
X113287000Y-68944500D02*
X113287000Y-68460000D01*
%TO.N,Net-(D28-A)*%
X118287000Y-88444500D02*
X118287000Y-87960000D01*
X120945000Y-91102500D02*
X118287000Y-88444500D01*
%TO.N,Net-(D29-A)*%
X116970000Y-110500000D02*
X114367000Y-107897000D01*
X114367000Y-107897000D02*
X114367000Y-107460000D01*
%TO.N,Net-(D30-A)*%
X199700000Y-32550000D02*
X197097000Y-29947000D01*
X197097000Y-29947000D02*
X197097000Y-29500000D01*
%TO.N,Net-(D31-A)*%
X230342000Y-69062000D02*
X230342000Y-68522500D01*
X232945000Y-71665000D02*
X230342000Y-69062000D01*
%TO.N,Net-(D32-A)*%
X328930000Y-110602500D02*
X326327000Y-107999500D01*
X326327000Y-107999500D02*
X326327000Y-107460000D01*
%TO.N,Net-(D33-A)*%
X121485000Y-32540000D02*
X118787000Y-29842000D01*
X118787000Y-29842000D02*
X118787000Y-29460000D01*
%TO.N,Net-(D34-A)*%
X130905000Y-52062500D02*
X128207000Y-49364500D01*
X128207000Y-49364500D02*
X128207000Y-48960000D01*
%TO.N,Net-(D35-A)*%
X135445000Y-71602500D02*
X132787000Y-68944500D01*
X132787000Y-68944500D02*
X132787000Y-68460000D01*
%TO.N,Net-(D36-A)*%
X137707000Y-88427000D02*
X140445000Y-91165000D01*
X137707000Y-87960000D02*
X137707000Y-88427000D01*
%TO.N,Net-(D37-A)*%
X190857500Y-107500000D02*
X189856500Y-106499000D01*
X189856500Y-106499000D02*
X184888000Y-106499000D01*
X184888000Y-106499000D02*
X183927000Y-107460000D01*
%TO.N,Net-(D38-A)*%
X216707000Y-29460000D02*
X216707000Y-29867000D01*
X216707000Y-29867000D02*
X219350000Y-32510000D01*
%TO.N,Net-(D39-A)*%
X225787000Y-48960000D02*
X225787000Y-49459500D01*
X225787000Y-49459500D02*
X228430000Y-52102500D01*
%TO.N,Net-(D40-A)*%
X328970000Y-91102500D02*
X326327000Y-88459500D01*
X326327000Y-88459500D02*
X326327000Y-87960000D01*
%TO.N,Net-(D41-A)*%
X140865000Y-32540000D02*
X138207000Y-29882000D01*
X138207000Y-29882000D02*
X138207000Y-29460000D01*
%TO.N,Net-(D42-A)*%
X147787000Y-49342000D02*
X150445000Y-52000000D01*
X147787000Y-48960000D02*
X147787000Y-49342000D01*
%TO.N,Net-(D43-A)*%
X152287000Y-68879500D02*
X152287000Y-68460000D01*
X154930000Y-71522500D02*
X152287000Y-68879500D01*
%TO.N,Net-(D44-A)*%
X159945000Y-91165000D02*
X157367000Y-88587000D01*
X157367000Y-88587000D02*
X157367000Y-87960000D01*
%TO.N,Net-(D45-A)*%
X254677000Y-107897000D02*
X254677000Y-107460000D01*
X257280000Y-110500000D02*
X254677000Y-107897000D01*
%TO.N,Net-(D46-A)*%
X236207000Y-29969500D02*
X238810000Y-32572500D01*
X236207000Y-29460000D02*
X236207000Y-29969500D01*
%TO.N,Net-(D47-A)*%
X245207000Y-49437000D02*
X247810000Y-52040000D01*
X245207000Y-48960000D02*
X245207000Y-49437000D01*
%TO.N,Net-(D48-A)*%
X326247000Y-68499500D02*
X326247000Y-67960000D01*
X328850000Y-71102500D02*
X326247000Y-68499500D01*
%TO.N,Net-(D49-A)*%
X160445000Y-32540000D02*
X157787000Y-29882000D01*
X157787000Y-29882000D02*
X157787000Y-29460000D01*
%TO.N,Net-(D50-A)*%
X170025000Y-52000000D02*
X167367000Y-49342000D01*
X167367000Y-49342000D02*
X167367000Y-48960000D01*
%TO.N,Net-(D51-A)*%
X171867000Y-68817000D02*
X171867000Y-68460000D01*
X174510000Y-71460000D02*
X171867000Y-68817000D01*
%TO.N,Net-(D52-A)*%
X176867000Y-88462000D02*
X179445000Y-91040000D01*
X176867000Y-87960000D02*
X176867000Y-88462000D01*
%TO.N,Net-(D53-A)*%
X277200000Y-110562500D02*
X274597000Y-107959500D01*
X274597000Y-107959500D02*
X274597000Y-107460000D01*
%TO.N,Net-(D54-A)*%
X255707000Y-29460000D02*
X255707000Y-29944500D01*
X255707000Y-29944500D02*
X258365000Y-32602500D01*
%TO.N,Net-(D55-A)*%
X264707000Y-48960000D02*
X264707000Y-49499500D01*
X264707000Y-49499500D02*
X267310000Y-52102500D01*
%TO.N,Net-(D56-A)*%
X326327000Y-48937000D02*
X326327000Y-48460000D01*
X328930000Y-51540000D02*
X326327000Y-48937000D01*
%TO.N,Net-(D57-A)*%
X179945000Y-32602500D02*
X177367000Y-30024500D01*
X177367000Y-30024500D02*
X177367000Y-29460000D01*
%TO.N,Net-(D58-A)*%
X186867000Y-49524500D02*
X189445000Y-52102500D01*
X186867000Y-48960000D02*
X186867000Y-49524500D01*
%TO.N,Net-(D59-A)*%
X193945000Y-71665000D02*
X191367000Y-69087000D01*
X191367000Y-69087000D02*
X191367000Y-68460000D01*
%TO.N,Net-(D60-A)*%
X196207000Y-88357000D02*
X196207000Y-87960000D01*
X198850000Y-91000000D02*
X196207000Y-88357000D01*
%TO.N,Net-(D61-A)*%
X294182000Y-107984500D02*
X294182000Y-107500000D01*
X296840000Y-110642500D02*
X294182000Y-107984500D01*
%TO.N,Net-(D62-A)*%
X284762000Y-29784500D02*
X284762000Y-29420000D01*
X287510000Y-32532500D02*
X284762000Y-29784500D01*
%TO.N,Net-(D63-A)*%
X291342000Y-58420000D02*
X291342000Y-60437000D01*
X291342000Y-60437000D02*
X295445000Y-64540000D01*
%TO.N,Net-(D64-A)*%
X326327000Y-29857000D02*
X326327000Y-28960000D01*
X328970000Y-32500000D02*
X326327000Y-29857000D01*
%TO.N,GND*%
X344844794Y-73739000D02*
X351199000Y-80093206D01*
X337759032Y-73739000D02*
X336830000Y-74668032D01*
X351199000Y-86039000D02*
X352500000Y-87340000D01*
X346196000Y-43811000D02*
X346196000Y-43709794D01*
X346196000Y-50000000D02*
X344696000Y-48500000D01*
X336830000Y-47015000D02*
X336830000Y-46040001D01*
X343849000Y-73999032D02*
X344109032Y-73739000D01*
X352500000Y-34000000D02*
X352500000Y-36540000D01*
X375363680Y-34002720D02*
X352502720Y-34002720D01*
X352500000Y-37405794D02*
X352500000Y-36540000D01*
X336830000Y-46040001D02*
X337131001Y-45739000D01*
X351199000Y-80093206D02*
X351199000Y-86039000D01*
X352502720Y-34002720D02*
X352500000Y-34000000D01*
X343849000Y-76030968D02*
X343849000Y-73999032D01*
X336830000Y-74668032D02*
X336830000Y-75015000D01*
X342250968Y-45739000D02*
X343180000Y-46668032D01*
X344696000Y-48500000D02*
X343327000Y-48500000D01*
X344450000Y-70065000D02*
X344450000Y-70411968D01*
X344109032Y-73739000D02*
X344844794Y-73739000D01*
X361840000Y-87340000D02*
X373500000Y-99000000D01*
X352500000Y-87340000D02*
X361840000Y-87340000D01*
X343588968Y-76291000D02*
X343849000Y-76030968D01*
X346196000Y-68319000D02*
X344450000Y-70065000D01*
X346196000Y-43709794D02*
X352500000Y-37405794D01*
X346196000Y-43811000D02*
X346196000Y-50000000D01*
X342511000Y-73999032D02*
X342511000Y-76030968D01*
X344450000Y-70411968D02*
X341122968Y-73739000D01*
X342250968Y-73739000D02*
X342511000Y-73999032D01*
X343180000Y-46668032D02*
X343180000Y-47015000D01*
X337131001Y-45739000D02*
X342250968Y-45739000D01*
X341122968Y-73739000D02*
X342250968Y-73739000D01*
X341122968Y-73739000D02*
X337759032Y-73739000D01*
X342511000Y-76030968D02*
X342771032Y-76291000D01*
X343327000Y-48500000D02*
X343180000Y-48353000D01*
X343180000Y-48353000D02*
X343180000Y-47015000D01*
X346196000Y-43811000D02*
X344450000Y-42065000D01*
X346196000Y-50000000D02*
X346196000Y-68319000D01*
X342771032Y-76291000D02*
X343588968Y-76291000D01*
%TO.N,Net-(U1-VCC)*%
X335560000Y-74221968D02*
X336640984Y-73140984D01*
X339500000Y-73000000D02*
X336781968Y-73000000D01*
X354500000Y-73000000D02*
X346000000Y-73000000D01*
X338701000Y-66447160D02*
X337500000Y-65246160D01*
X335560000Y-53060000D02*
X335560000Y-47015000D01*
X337500000Y-55000000D02*
X335560000Y-53060000D01*
X336640984Y-73140984D02*
X338701000Y-71080968D01*
X336781968Y-73000000D02*
X336640984Y-73140984D01*
X337500000Y-65246160D02*
X337500000Y-55000000D01*
X357000000Y-75500000D02*
X354500000Y-73000000D01*
X338701000Y-71080968D02*
X338701000Y-66447160D01*
X335560000Y-75015000D02*
X335560000Y-74221968D01*
%TO.N,Net-(U2-GPIO48)*%
X349186794Y-71199000D02*
X376133206Y-71199000D01*
X376133206Y-71199000D02*
X393358000Y-88423794D01*
X393358000Y-88423794D02*
X393358000Y-95858000D01*
X347401000Y-54339000D02*
X347401000Y-69413206D01*
X393358000Y-95858000D02*
X401180000Y-103680000D01*
X347401000Y-69413206D02*
X349186794Y-71199000D01*
X401180000Y-103680000D02*
X401180000Y-105447920D01*
X352500000Y-49240000D02*
X347401000Y-54339000D01*
%TO.N,/Keyboard/C*%
X170029826Y-90689000D02*
X167000000Y-93718826D01*
X192463816Y-91814000D02*
X191338816Y-90689000D01*
X219000000Y-82500000D02*
X210780000Y-82500000D01*
X185792826Y-94266000D02*
X182273146Y-94266000D01*
X243452326Y-70686500D02*
X241889826Y-69124000D01*
X256091500Y-70686500D02*
X243452326Y-70686500D01*
X285357826Y-50143913D02*
X312100739Y-23401000D01*
X32440000Y-51500000D02*
X27725000Y-46785000D01*
X37335000Y-103025000D02*
X30360000Y-110000000D01*
X34860000Y-87985000D02*
X37335000Y-90460000D01*
X279029826Y-66624000D02*
X285357826Y-60296000D01*
X222458163Y-82458163D02*
X222416326Y-82500000D01*
X241889826Y-69124000D02*
X238736000Y-69124000D01*
X238736000Y-69124000D02*
X236860000Y-71000000D01*
X332283500Y-23401000D02*
X344695000Y-35812500D01*
X167000000Y-93718826D02*
X167000000Y-94500000D01*
X182273146Y-94266000D02*
X179835646Y-91828500D01*
X34860000Y-71000000D02*
X32440000Y-68580000D01*
X210780000Y-82500000D02*
X202780000Y-90500000D01*
X179835646Y-91828500D02*
X177924340Y-91828500D01*
X37335000Y-92728826D02*
X37335000Y-90460000D01*
X41000000Y-95500000D02*
X40106174Y-95500000D01*
X34860000Y-71000000D02*
X34860000Y-87985000D01*
X232164826Y-72751500D02*
X222458163Y-82458163D01*
X32440000Y-68580000D02*
X32440000Y-51500000D01*
X201466000Y-91814000D02*
X192463816Y-91814000D01*
X189369826Y-90689000D02*
X185792826Y-94266000D01*
X235108500Y-72751500D02*
X232164826Y-72751500D01*
X40106174Y-95500000D02*
X37335000Y-92728826D01*
X256445000Y-71040000D02*
X256091500Y-70686500D01*
X256445000Y-71040000D02*
X260861000Y-66624000D01*
X285357826Y-60296000D02*
X285357826Y-50143913D01*
X191338816Y-90689000D02*
X189369826Y-90689000D01*
X27725000Y-46785000D02*
X27725000Y-32000000D01*
X312100739Y-23401000D02*
X332283500Y-23401000D01*
X37335000Y-90460000D02*
X37335000Y-103025000D01*
X202780000Y-90500000D02*
X201466000Y-91814000D01*
X236860000Y-71000000D02*
X235108500Y-72751500D01*
X260861000Y-66624000D02*
X279029826Y-66624000D01*
X176784840Y-90689000D02*
X170029826Y-90689000D01*
X177924340Y-91828500D02*
X176784840Y-90689000D01*
%TO.N,/Keyboard/C1*%
X259609000Y-95391000D02*
X244562174Y-95391000D01*
X244562174Y-95391000D02*
X241940000Y-92768826D01*
X241940000Y-90500000D02*
X241940000Y-89940000D01*
X117000000Y-76500000D02*
X80360000Y-76500000D01*
X197860000Y-71040000D02*
X193073900Y-66253900D01*
X261440000Y-93560000D02*
X259609000Y-95391000D01*
X219000000Y-79649600D02*
X214425200Y-75074800D01*
X332966500Y-27084000D02*
X322247935Y-27084000D01*
X66360000Y-90500000D02*
X66360000Y-98420000D01*
X341695000Y-35812500D02*
X332966500Y-27084000D01*
X125011000Y-70222935D02*
X125011000Y-72127826D01*
X296446000Y-54754184D02*
X296446000Y-67903943D01*
X47280000Y-32000000D02*
X47280000Y-34280000D01*
X199736000Y-69164000D02*
X197860000Y-71040000D01*
X241940000Y-92768826D02*
X241940000Y-90500000D01*
X214425200Y-75074800D02*
X209764616Y-75074800D01*
X261440000Y-82587854D02*
X261440000Y-90500000D01*
X61440000Y-60940000D02*
X58000000Y-57500000D01*
X80360000Y-76500000D02*
X79430000Y-77430000D01*
X56780000Y-51500000D02*
X56780000Y-55280000D01*
X63661174Y-75490000D02*
X65000000Y-75490000D01*
X219000000Y-81500000D02*
X219000000Y-79649600D01*
X65010000Y-75490000D02*
X65500000Y-75000000D01*
X61440000Y-71000000D02*
X61440000Y-60940000D01*
X319511184Y-29820751D02*
X319511184Y-31689000D01*
X128980035Y-66253900D02*
X125011000Y-70222935D01*
X322247935Y-27084000D02*
X319511184Y-29820751D01*
X56780000Y-45780000D02*
X49000000Y-38000000D01*
X296446000Y-67903943D02*
X291798443Y-72551500D01*
X261440000Y-90500000D02*
X261440000Y-93560000D01*
X209764616Y-75074800D02*
X203853816Y-69164000D01*
X65000000Y-75490000D02*
X65010000Y-75490000D01*
X47280000Y-34280000D02*
X49000000Y-36000000D01*
X56780000Y-55280000D02*
X57000000Y-55500000D01*
X203853816Y-69164000D02*
X199736000Y-69164000D01*
X291798443Y-72551500D02*
X271476354Y-72551500D01*
X193073900Y-66253900D02*
X128980035Y-66253900D01*
X241940000Y-89940000D02*
X240500000Y-88500000D01*
X271476354Y-72551500D02*
X261440000Y-82587854D01*
X61440000Y-73268826D02*
X63661174Y-75490000D01*
X319511184Y-31689000D02*
X296446000Y-54754184D01*
X79430000Y-77430000D02*
X66360000Y-90500000D01*
X56780000Y-51500000D02*
X56780000Y-45780000D01*
X66360000Y-98420000D02*
X54780000Y-110000000D01*
X61440000Y-71000000D02*
X61440000Y-73268826D01*
X122138826Y-75000000D02*
X121500000Y-75000000D01*
X125011000Y-72127826D02*
X122138826Y-75000000D01*
%TO.N,/Keyboard/C2*%
X76360000Y-54860000D02*
X77000000Y-55500000D01*
X201891000Y-56391000D02*
X199529826Y-56391000D01*
X118647100Y-65852900D02*
X118500000Y-66000000D01*
X193440000Y-55909943D02*
X183497043Y-65852900D01*
X85860000Y-81360000D02*
X82000000Y-77500000D01*
X197492065Y-54353239D02*
X197492065Y-53376000D01*
X198591000Y-50722935D02*
X197492065Y-49624000D01*
X222360000Y-92768826D02*
X222360000Y-90500000D01*
X85860000Y-92140000D02*
X84500000Y-93500000D01*
X214000000Y-68500000D02*
X201891000Y-56391000D01*
X280940000Y-90500000D02*
X280940000Y-92060000D01*
X197492065Y-53376000D02*
X198591000Y-52277065D01*
X197492065Y-49624000D02*
X195316000Y-49624000D01*
X82500000Y-94500000D02*
X79195000Y-97805000D01*
X76360000Y-51500000D02*
X76360000Y-54860000D01*
X195316000Y-49624000D02*
X193440000Y-51500000D01*
X183497043Y-65852900D02*
X118647100Y-65852900D01*
X226091174Y-96500000D02*
X222360000Y-92768826D01*
X221500000Y-89640000D02*
X221500000Y-80500000D01*
X280940000Y-92060000D02*
X279000000Y-94000000D01*
X80860000Y-59360000D02*
X78500000Y-57000000D01*
X198591000Y-52277065D02*
X198591000Y-50722935D01*
X319000000Y-42867854D02*
X319000000Y-51700184D01*
X281000000Y-86500000D02*
X280940000Y-86560000D01*
X79195000Y-97805000D02*
X79195000Y-110000000D01*
X226500000Y-96500000D02*
X226091174Y-96500000D01*
X67500000Y-32720000D02*
X67500000Y-36000000D01*
X319000000Y-51700184D02*
X309000000Y-61700184D01*
X80860000Y-71000000D02*
X80860000Y-73860000D01*
X328281354Y-33586500D02*
X319000000Y-42867854D01*
X280940000Y-86560000D02*
X280940000Y-90500000D01*
X339195000Y-35812500D02*
X336969000Y-33586500D01*
X222360000Y-90500000D02*
X221500000Y-89640000D01*
X66780000Y-32000000D02*
X67500000Y-32720000D01*
X80860000Y-73860000D02*
X81500000Y-74500000D01*
X309000000Y-61700184D02*
X309000000Y-83000000D01*
X76360000Y-46860000D02*
X67500000Y-38000000D01*
X80860000Y-71000000D02*
X80860000Y-59360000D01*
X221500000Y-80500000D02*
X215500000Y-74500000D01*
X193440000Y-51500000D02*
X193440000Y-55909943D01*
X76360000Y-51500000D02*
X76360000Y-46860000D01*
X336969000Y-33586500D02*
X328281354Y-33586500D01*
X85860000Y-90500000D02*
X85860000Y-92140000D01*
X199529826Y-56391000D02*
X197492065Y-54353239D01*
X85860000Y-90500000D02*
X85860000Y-81360000D01*
%TO.N,/Keyboard/C3*%
X263500000Y-82000000D02*
X264500000Y-81000000D01*
X111500000Y-43000000D02*
X117101000Y-37399000D01*
X95780000Y-55280000D02*
X96000000Y-55500000D01*
X311744000Y-84038843D02*
X308141421Y-87641422D01*
X327831935Y-80500000D02*
X329000000Y-80500000D01*
X117101000Y-37399000D02*
X146399000Y-37399000D01*
X308141421Y-87641422D02*
X304999999Y-84500000D01*
X101440000Y-94560000D02*
X101500000Y-94500000D01*
X334157000Y-60843000D02*
X334157000Y-42900900D01*
X313748943Y-63899000D02*
X313251057Y-63899000D01*
X178710000Y-37500000D02*
X184170000Y-32040000D01*
X168500000Y-37500000D02*
X178710000Y-37500000D01*
X284500000Y-84500000D02*
X282500000Y-84500000D01*
X105360000Y-90500000D02*
X105360000Y-92640000D01*
X304999999Y-84500000D02*
X284500000Y-84500000D01*
X318471000Y-68621057D02*
X313748943Y-63899000D01*
X146399000Y-37399000D02*
X164899000Y-37399000D01*
X334778950Y-37728550D02*
X336695000Y-35812500D01*
X316631000Y-93255065D02*
X318551000Y-91335065D01*
X217500000Y-66500000D02*
X217415000Y-66585000D01*
X321149000Y-87182935D02*
X327831935Y-80500000D01*
X317372065Y-72376000D02*
X318471000Y-71277065D01*
X217415000Y-74415000D02*
X217415000Y-71062500D01*
X100360000Y-61860000D02*
X96000000Y-57500000D01*
X251500000Y-79500000D02*
X250500000Y-78500000D01*
X109000000Y-43000000D02*
X108750000Y-43250000D01*
X184170000Y-32040000D02*
X184170000Y-34338826D01*
X100360000Y-71000000D02*
X100360000Y-61860000D01*
X105360000Y-92640000D02*
X104000000Y-94000000D01*
X332500000Y-62500000D02*
X334157000Y-60843000D01*
X105360000Y-79360000D02*
X103500000Y-77500000D01*
X318551000Y-91335065D02*
X318551000Y-74532174D01*
X100360000Y-71000000D02*
X100360000Y-73860000D01*
X217415000Y-66585000D02*
X217415000Y-71062500D01*
X107720000Y-44280000D02*
X109000000Y-43000000D01*
X313400000Y-110000000D02*
X316631000Y-106769000D01*
X100360000Y-73860000D02*
X101500000Y-75000000D01*
X316631000Y-106769000D02*
X316631000Y-93255065D01*
X311744000Y-65406057D02*
X311744000Y-84038843D01*
X317372065Y-73353239D02*
X317372065Y-72376000D01*
X105360000Y-90500000D02*
X105360000Y-79360000D01*
X95780000Y-44280000D02*
X89500000Y-38000000D01*
X321149000Y-88737065D02*
X321149000Y-87182935D01*
X86000000Y-35500000D02*
X86000000Y-34628826D01*
X101440000Y-110000000D02*
X101440000Y-94560000D01*
X277500000Y-83000000D02*
X263500000Y-83000000D01*
X217500000Y-66000000D02*
X217500000Y-66500000D01*
X318551000Y-74532174D02*
X317372065Y-73353239D01*
X316631000Y-93255065D02*
X321149000Y-88737065D01*
X282500000Y-84500000D02*
X281000000Y-83000000D01*
X313251057Y-63899000D02*
X311744000Y-65406057D01*
X86000000Y-34628826D02*
X86360000Y-34268826D01*
X95780000Y-51500000D02*
X95780000Y-55280000D01*
X334157000Y-42900900D02*
X334778950Y-42278950D01*
X213500000Y-63668826D02*
X213500000Y-66000000D01*
X334778950Y-42278950D02*
X334778950Y-37728550D01*
X95780000Y-44280000D02*
X107720000Y-44280000D01*
X318471000Y-71277065D02*
X318471000Y-68621057D01*
X263500000Y-83000000D02*
X263500000Y-82000000D01*
X221500000Y-78500000D02*
X217415000Y-74415000D01*
X184170000Y-34338826D02*
X213500000Y-63668826D01*
X95780000Y-51500000D02*
X95780000Y-44280000D01*
X164899000Y-37399000D02*
X165000000Y-37500000D01*
X86360000Y-34268826D02*
X86360000Y-32000000D01*
%TO.N,/Keyboard/C4*%
X336695000Y-52637500D02*
X336695000Y-53195000D01*
X119860000Y-71000000D02*
X115280000Y-66420000D01*
X338500000Y-55000000D02*
X338500000Y-58500000D01*
X249500000Y-81500000D02*
X248000000Y-80000000D01*
X115280000Y-51500000D02*
X110000000Y-46220000D01*
X106500000Y-35500000D02*
X105860000Y-34860000D01*
X105860000Y-34860000D02*
X105860000Y-32000000D01*
X210000000Y-77500000D02*
X215500000Y-77500000D01*
X124780000Y-92768826D02*
X124780000Y-90500000D01*
X124780000Y-90500000D02*
X119860000Y-85580000D01*
X215839000Y-73839000D02*
X215839000Y-56747826D01*
X212860000Y-51500000D02*
X212860000Y-44360000D01*
X115280000Y-66420000D02*
X115280000Y-51500000D01*
X313400000Y-85900000D02*
X313400000Y-90500000D01*
X286500000Y-85500000D02*
X282650057Y-85500000D01*
X280399000Y-83248943D02*
X280399000Y-82601000D01*
X171000000Y-106500000D02*
X173500000Y-104000000D01*
X171000000Y-110000000D02*
X171000000Y-106500000D01*
X198500000Y-89000000D02*
X210000000Y-77500000D01*
X282650057Y-85500000D02*
X280399000Y-83248943D01*
X212860000Y-44360000D02*
X212500000Y-44000000D01*
X313000000Y-85500000D02*
X313400000Y-85900000D01*
X212860000Y-53768826D02*
X212860000Y-51500000D01*
X217500000Y-75500000D02*
X215839000Y-73839000D01*
X119860000Y-85580000D02*
X119860000Y-71000000D01*
X171000000Y-110000000D02*
X142011174Y-110000000D01*
X203780000Y-35280000D02*
X203780000Y-32000000D01*
X210500000Y-42000000D02*
X203780000Y-35280000D01*
X313000000Y-85000000D02*
X313000000Y-85500000D01*
X280399000Y-82601000D02*
X281000000Y-82000000D01*
X142011174Y-110000000D02*
X124780000Y-92768826D01*
X336695000Y-53195000D02*
X338500000Y-55000000D01*
X110000000Y-46220000D02*
X110000000Y-38500000D01*
X215839000Y-56747826D02*
X212860000Y-53768826D01*
%TO.N,/Keyboard/C5*%
X313320000Y-83029943D02*
X290765943Y-105584000D01*
X338695000Y-52637500D02*
X338695000Y-54195000D01*
X134860000Y-52640000D02*
X134000000Y-53500000D01*
X227429000Y-53501354D02*
X227429000Y-56429000D01*
X223280000Y-32000000D02*
X223280000Y-34780000D01*
X139360000Y-73860000D02*
X139360000Y-71000000D01*
X232280000Y-51500000D02*
X230591000Y-53189000D01*
X223280000Y-34780000D02*
X224000000Y-35500000D01*
X246166000Y-105584000D02*
X241750000Y-110000000D01*
X139360000Y-71000000D02*
X136000000Y-67640000D01*
X129000000Y-38000000D02*
X134860000Y-43860000D01*
X134860000Y-51500000D02*
X134860000Y-52640000D01*
X139500000Y-74000000D02*
X139360000Y-73860000D01*
X239500000Y-98918000D02*
X239500000Y-77500000D01*
X313500000Y-64500000D02*
X313320000Y-64680000D01*
X232280000Y-51500000D02*
X232280000Y-43780000D01*
X144440000Y-90500000D02*
X144440000Y-80940000D01*
X125280000Y-32000000D02*
X125280000Y-34280000D01*
X313320000Y-64680000D02*
X313320000Y-70500000D01*
X227741354Y-53189000D02*
X227429000Y-53501354D01*
X338695000Y-54195000D02*
X339000000Y-54500000D01*
X125280000Y-34280000D02*
X127000000Y-36000000D01*
X144440000Y-80940000D02*
X141000000Y-77500000D01*
X313320000Y-70500000D02*
X313320000Y-83029943D01*
X239500000Y-77500000D02*
X240000000Y-77000000D01*
X230591000Y-53189000D02*
X227741354Y-53189000D01*
X246166000Y-105584000D02*
X239500000Y-98918000D01*
X290765943Y-105584000D02*
X246166000Y-105584000D01*
X136000000Y-67640000D02*
X136000000Y-67000000D01*
X232280000Y-43780000D02*
X226500000Y-38000000D01*
X227429000Y-56429000D02*
X228500000Y-57500000D01*
X134860000Y-43860000D02*
X134860000Y-51500000D01*
%TO.N,/Keyboard/C6*%
X146591174Y-36000000D02*
X147000000Y-36000000D01*
X192500000Y-107500000D02*
X189500000Y-104500000D01*
X163940000Y-79440000D02*
X161500000Y-77000000D01*
X313400000Y-48900000D02*
X313400000Y-51000000D01*
X189500000Y-104500000D02*
X175671174Y-104500000D01*
X237500000Y-73500000D02*
X237500000Y-73000000D01*
X251780000Y-54780000D02*
X251780000Y-51500000D01*
X175671174Y-104500000D02*
X163940000Y-92768826D01*
X144860000Y-32000000D02*
X144860000Y-34268826D01*
X196766000Y-113766000D02*
X192500000Y-109500000D01*
X247743816Y-108124000D02*
X247743816Y-110285010D01*
X230109000Y-88737065D02*
X230109000Y-80891000D01*
X242780000Y-34280000D02*
X244500000Y-36000000D01*
X247839826Y-110189000D02*
X244262826Y-113766000D01*
X342195000Y-52550000D02*
X342195000Y-54305000D01*
X307500000Y-47500000D02*
X304267284Y-47500000D01*
X192500000Y-109500000D02*
X192500000Y-107500000D01*
X247743816Y-110285010D02*
X244262826Y-113766000D01*
X148500000Y-38000000D02*
X154440000Y-43940000D01*
X159000000Y-74500000D02*
X158940000Y-74440000D01*
X252285908Y-110214092D02*
X252260816Y-110189000D01*
X252000000Y-55000000D02*
X251780000Y-54780000D01*
X312000000Y-47500000D02*
X313400000Y-48900000D01*
X144860000Y-34268826D02*
X146591174Y-36000000D01*
X252285908Y-110214092D02*
X249833908Y-110214092D01*
X260356000Y-111314000D02*
X253385816Y-111314000D01*
X236250000Y-74750000D02*
X237500000Y-73500000D01*
X304267284Y-47500000D02*
X300133642Y-51633642D01*
X251780000Y-51500000D02*
X251780000Y-43280000D01*
X253385816Y-111314000D02*
X252285908Y-110214092D01*
X300133642Y-51633642D02*
X300500000Y-52000000D01*
X154440000Y-54440000D02*
X155500000Y-55500000D01*
X251780000Y-43280000D02*
X246500000Y-38000000D01*
X158940000Y-68940000D02*
X157500000Y-67500000D01*
X163940000Y-90500000D02*
X163940000Y-79440000D01*
X233049033Y-104110193D02*
X233049033Y-91677098D01*
X249000000Y-57500000D02*
X249000000Y-56500000D01*
X233049033Y-91677098D02*
X230109000Y-88737065D01*
X249833908Y-110214092D02*
X247743816Y-108124000D01*
X312000000Y-47500000D02*
X307500000Y-47500000D01*
X163940000Y-92768826D02*
X163940000Y-90500000D01*
X242780000Y-32000000D02*
X242780000Y-34280000D01*
X248500000Y-56000000D02*
X248000000Y-55500000D01*
X158940000Y-71000000D02*
X158940000Y-68940000D01*
X342195000Y-54305000D02*
X342000000Y-54500000D01*
X249000000Y-56500000D02*
X248500000Y-56000000D01*
X230109000Y-80891000D02*
X234500000Y-76500000D01*
X242704840Y-113766000D02*
X233049033Y-104110193D01*
X244262826Y-113766000D02*
X196766000Y-113766000D01*
X158940000Y-74440000D02*
X158940000Y-71000000D01*
X261670000Y-110000000D02*
X260356000Y-111314000D01*
X154440000Y-43940000D02*
X154440000Y-51500000D01*
X244262826Y-113766000D02*
X242704840Y-113766000D01*
X154440000Y-51500000D02*
X154440000Y-54440000D01*
X252260816Y-110189000D02*
X247839826Y-110189000D01*
%TO.N,/Keyboard/C7*%
X173940000Y-54440000D02*
X173940000Y-51500000D01*
X178440000Y-73940000D02*
X179500000Y-75000000D01*
X273227500Y-55772500D02*
X264000000Y-65000000D01*
X183280000Y-80280000D02*
X180000000Y-77000000D01*
X284295000Y-107000000D02*
X285500000Y-107000000D01*
X164440000Y-32000000D02*
X164440000Y-34940000D01*
X292000000Y-55500000D02*
X286500000Y-55500000D01*
X345195000Y-52725000D02*
X345195000Y-54805000D01*
X278415000Y-60960000D02*
X273227500Y-55772500D01*
X174000000Y-54500000D02*
X173940000Y-54440000D01*
X164440000Y-34940000D02*
X173940000Y-44440000D01*
X313000000Y-34500000D02*
X313400000Y-34100000D01*
X273227500Y-55772500D02*
X271835000Y-54380000D01*
X173940000Y-44440000D02*
X173940000Y-51500000D01*
X278540000Y-60960000D02*
X278415000Y-60960000D01*
X178440000Y-71000000D02*
X180000000Y-69440000D01*
X279000000Y-64000000D02*
X278415000Y-63415000D01*
X297500000Y-50000000D02*
X292000000Y-55500000D01*
X281255000Y-110040000D02*
X284295000Y-107000000D01*
X183280000Y-90500000D02*
X183280000Y-80280000D01*
X313400000Y-34100000D02*
X297500000Y-50000000D01*
X284000000Y-55500000D02*
X278540000Y-60960000D01*
X278415000Y-63415000D02*
X278415000Y-60960000D01*
X180000000Y-69440000D02*
X180000000Y-69000000D01*
X313400000Y-34100000D02*
X313400000Y-31500000D01*
X278500000Y-64500000D02*
X278500000Y-65000000D01*
X264000000Y-65000000D02*
X217500000Y-65000000D01*
X178440000Y-71000000D02*
X178440000Y-73940000D01*
X271835000Y-54380000D02*
X271835000Y-31960000D01*
X279000000Y-64000000D02*
X278500000Y-64500000D01*
%TO.N,Net-(U1-RESET)*%
X399890000Y-92905420D02*
X398839000Y-93956420D01*
X396299000Y-71701000D02*
X396500000Y-71500000D01*
X396914661Y-93956420D02*
X396299000Y-93340759D01*
X376780000Y-51780000D02*
X375360000Y-51780000D01*
X398839000Y-93956420D02*
X396914661Y-93956420D01*
X396299000Y-93340759D02*
X396299000Y-71701000D01*
X396500000Y-71500000D02*
X376780000Y-51780000D01*
%TO.N,Net-(U1-SD_MISO)*%
X359000000Y-43500000D02*
X359000000Y-55440000D01*
X359000000Y-55440000D02*
X352500000Y-61940000D01*
%TO.N,Net-(U1-~{CS})*%
X397350000Y-92905420D02*
X397350000Y-71230000D01*
X397350000Y-71230000D02*
X375360000Y-49240000D01*
%TO.N,Net-(U2-GPIO7{slash}ADC1_CH6)*%
X345500000Y-76065000D02*
X345500000Y-100000000D01*
X344450000Y-75015000D02*
X345500000Y-76065000D01*
X345500000Y-100000000D02*
X350500000Y-105000000D01*
X370000000Y-105000000D02*
X379500000Y-95500000D01*
X379500000Y-95500000D02*
X379500000Y-76000000D01*
X379500000Y-76000000D02*
X379260000Y-76000000D01*
X379260000Y-76000000D02*
X375360000Y-72100000D01*
X350500000Y-105000000D02*
X370000000Y-105000000D01*
%TO.N,Net-(U2-GPIO4{slash}ADC1_CH3)*%
X334000000Y-76500000D02*
X335000000Y-77500000D01*
X362500000Y-81500000D02*
X364280000Y-79720000D01*
X334558000Y-69063000D02*
X334558000Y-43067000D01*
X334558000Y-43067000D02*
X335560000Y-42065000D01*
X334000000Y-71625000D02*
X334000000Y-76500000D01*
X335560000Y-70065000D02*
X334558000Y-69063000D01*
X364280000Y-79720000D02*
X375360000Y-79720000D01*
X335560000Y-70065000D02*
X334000000Y-71625000D01*
%TO.N,Net-(U2-GPIO5{slash}ADC1_CH4)*%
X336830000Y-67830000D02*
X334959000Y-65959000D01*
X336830000Y-71670000D02*
X336000000Y-72500000D01*
X334959000Y-65959000D02*
X334959000Y-44910999D01*
X334959000Y-44910999D02*
X336830000Y-43039999D01*
X336830000Y-43039999D02*
X336830000Y-42065000D01*
X374281000Y-76101000D02*
X375360000Y-77180000D01*
X349500000Y-76000000D02*
X349601000Y-76101000D01*
X336830000Y-70065000D02*
X336830000Y-67830000D01*
X349601000Y-76101000D02*
X374281000Y-76101000D01*
X336830000Y-70065000D02*
X336830000Y-71670000D01*
%TO.N,Net-(U3-Q7)*%
X347000000Y-70220001D02*
X343180000Y-74040001D01*
X344465000Y-47000000D02*
X344450000Y-47015000D01*
X345500000Y-47000000D02*
X344465000Y-47000000D01*
X347000000Y-53000000D02*
X347000000Y-70220001D01*
X343180000Y-74040001D02*
X343180000Y-75015000D01*
%TO.N,Net-(U4-D0)*%
X341910000Y-76695000D02*
X341910000Y-75015000D01*
X344245000Y-79030000D02*
X341910000Y-76695000D01*
%TO.N,Net-(U4-D4)*%
X338100000Y-67347500D02*
X338100000Y-70065000D01*
X336195000Y-65442500D02*
X338100000Y-67347500D01*
%TO.N,Net-(U4-D3)*%
X338100000Y-76625000D02*
X338100000Y-75015000D01*
X335695000Y-79030000D02*
X338100000Y-76625000D01*
%TO.N,Net-(U4-D2)*%
X339370000Y-78305000D02*
X339370000Y-75015000D01*
X338645000Y-79030000D02*
X339370000Y-78305000D01*
%TO.N,Net-(U4-D6)*%
X340640000Y-67360000D02*
X340640000Y-70065000D01*
X341695000Y-65530000D02*
X341695000Y-66305000D01*
X341695000Y-66305000D02*
X340640000Y-67360000D01*
%TO.N,Net-(U4-D1)*%
X341595000Y-79030000D02*
X340640000Y-78075000D01*
X340640000Y-78075000D02*
X340640000Y-75015000D01*
%TO.N,Net-(U4-D7)*%
X344645000Y-65530000D02*
X341910000Y-68265000D01*
X341910000Y-68265000D02*
X341910000Y-70065000D01*
%TO.N,Net-(U3-D0)*%
X345195000Y-50900000D02*
X343795000Y-49500000D01*
X341910000Y-49410000D02*
X341910000Y-47015000D01*
X342000000Y-49500000D02*
X341910000Y-49410000D01*
X343795000Y-49500000D02*
X342000000Y-49500000D01*
%TO.N,Net-(U4-D5)*%
X339195000Y-69890000D02*
X339370000Y-70065000D01*
X339195000Y-65442500D02*
X339195000Y-69890000D01*
%TO.N,Net-(U3-D5)*%
X339195000Y-41890000D02*
X339370000Y-42065000D01*
X339195000Y-37637500D02*
X339195000Y-41890000D01*
%TO.N,Net-(U3-D6)*%
X341695000Y-37637500D02*
X340640000Y-38692500D01*
X340640000Y-38692500D02*
X340640000Y-42065000D01*
%TO.N,Net-(U3-D7)*%
X341910000Y-40422500D02*
X341910000Y-42065000D01*
X344695000Y-37637500D02*
X341910000Y-40422500D01*
%TO.N,Net-(U3-D4)*%
X338100000Y-39042500D02*
X338100000Y-42065000D01*
X336695000Y-37637500D02*
X338100000Y-39042500D01*
%TO.N,Net-(U3-D3)*%
X336695000Y-50812500D02*
X338100000Y-49407500D01*
X338100000Y-49407500D02*
X338100000Y-47015000D01*
%TO.N,Net-(U3-D2)*%
X338695000Y-50812500D02*
X339370000Y-50137500D01*
X339370000Y-50137500D02*
X339370000Y-47015000D01*
%TO.N,Net-(U3-D1)*%
X340640000Y-49170000D02*
X340640000Y-47015000D01*
X342195000Y-50725000D02*
X340640000Y-49170000D01*
%TD*%
M02*
